<svg width="85" height="90" fill="none" xmlns="http://www.w3.org/2000/svg"><g clip-path="url(#clip0)" fill="#0BD5FE"><path d="M62.087 54.183l-2.93 1.719c-.603.354-.82 1.156-.487 1.792.227.435.652.68 1.09.68.204 0 .412-.053.603-.165l2.93-1.72c.602-.352.82-1.155.486-1.791-.333-.638-1.091-.868-1.692-.515zm0-3.74l-2.931 1.718c-.602.353-.82 1.156-.486 1.793.227.434.652.68 1.09.68.204 0 .412-.054.602-.166l2.931-1.72c.602-.352.82-1.154.486-1.791-.333-.637-1.091-.867-1.692-.514z"/><path d="M82.749 66.237c.119-.206.186-.448.186-.69V53.949c0-.73-.558-1.319-1.246-1.319s-1.245.59-1.245 1.319v9.567L68.47 57.86V33.363l11.974-7.024v21.868c0 .729.557 1.319 1.245 1.319.688 0 1.246-.59 1.246-1.319V24.101c0-.47-.253-.925-.642-1.153L43.15-.013a1.2 1.2 0 00-1.207 0L2.8 22.948a1.35 1.35 0 00-.642 1.17v41.429c0 .47.252.925.642 1.153l17.246 10.117c.602.353 1.36.122 1.693-.514.333-.637.115-1.44-.486-1.792L6.19 65.674l11.616-5.485L41.301 73.97v12.3l-15.11-8.862c-.6-.353-1.359-.123-1.692.514-.333.637-.115 1.44.486 1.792l16.958 9.948a1.2 1.2 0 001.207 0l17.785-10.434c.602-.353.819-1.155.486-1.792-.333-.637-1.091-.867-1.693-.514L43.791 86.27v-12.3l23.495-13.78 11.616 5.485-14.239 8.353c-.602.353-.819 1.155-.486 1.793.227.434.652.68 1.09.68.204 0 .412-.054.603-.166L82.293 66.7a1.3 1.3 0 00.456-.463zm-40.203-46.62l22.11 12.97-22.11 12.969-22.11-12.97 22.11-12.97zm24.68 11.462L43.79 17.332V3.378L79.12 24.1l-11.895 6.98zM41.3 17.332L17.867 31.08 5.973 24.101 41.3 3.378v13.954zM4.648 26.34l11.974 7.024V57.86L4.648 63.516V26.339zm14.465 8.485l9.038 5.302L41.3 47.84v23.116L19.112 57.94V34.824zM43.79 47.84l22.19-13.016V57.94L43.79 70.956V47.84z"/></g><defs><clipPath id="clip0"><path fill="#fff" d="M0 0h85v90H0z"/></clipPath></defs></svg>