<svg width="56" height="53" fill="none" xmlns="http://www.w3.org/2000/svg"><path d="M3.737 51.083a.882.882 0 00.638.261h14a.92.92 0 00.347-.068.878.878 0 00.29-.193.824.824 0 00.186-.287.787.787 0 00.05-.332l-1.75-26.5a.798.798 0 00-.173-.445l-2.45-3.092V18.22h.875a.9.9 0 00.619-.243.806.806 0 00.256-.585v-3.313c0-.22-.092-.43-.256-.585a.9.9 0 00-.619-.243H7a.9.9 0 00-.619.243.806.806 0 00-.256.585v3.313c0 .22.092.43.256.585A.9.9 0 007 18.22h.875v2.208l-2.45 3.092a.798.798 0 00-.174.445l-1.75 26.5a.787.787 0 00.05.332.83.83 0 00.186.287zm1.57-1.395l.109-1.657h11.918l.11 1.657H5.306zm3.88-28.157h4.376l1.312 1.657h-7l1.312-1.657zm6.616 3.313l1.422 21.531h-11.7l1.422-21.531h8.856zm-7.928-9.938h7v1.656h-7v-1.656zm5.25 3.313v1.656h-3.5v-1.656h3.5zM38.5 11.293c0-2.49-1.503-3.22-2.957-3.927-.52-.239-1.02-.512-1.499-.817-1.939-1.286-1.677-3.95-1.674-3.975a.79.79 0 00-.094-.473.852.852 0 00-.357-.344.917.917 0 00-.97.084c-.263.201-6.449 4.992-6.449 9.452 0 2.816 1.233 4.964 3.322 6.077-.45 3.586-.697 7.96-.697 12.442 0 5.573.368 10.818 1.036 14.77.33 1.957.72 3.505 1.158 4.6.214.534.864 2.162 2.181 2.162.326 0 1.317 0 2.18-2.162.438-1.096.828-2.643 1.159-4.6.668-3.952 1.036-9.197 1.036-14.77 0-4.483-.247-8.856-.697-12.442 2.09-1.113 3.322-3.26 3.322-6.077zm-5.282 32.365c-.674 4.359-1.437 5.615-1.718 5.944-.281-.33-1.044-1.585-1.718-5.944-.585-3.784-.907-8.7-.907-13.846 0-2.269.064-4.506.186-6.625h4.878c.122 2.119.186 4.356.186 6.625 0 5.145-.322 10.062-.907 13.846zm.612-22.127h-4.66c.092-1.237.205-2.423.337-3.535a9.044 9.044 0 003.986 0c.132 1.112.245 2.298.337 3.535zm-2.33-4.968c-3.287 0-5.25-1.97-5.25-5.27 0-2.395 2.587-5.304 4.477-7.041.22 1.175.807 2.654 2.312 3.653.544.35 1.114.662 1.705.935 1.336.649 2.006.974 2.006 2.453 0 3.3-1.963 5.27-5.25 5.27z" fill="#0BD5FE"/><path d="M32.375 13.25c-2.17 0-2.625-1.351-2.625-2.484 0-.22-.092-.43-.256-.586a.9.9 0 00-.619-.242.9.9 0 00-.619.242.806.806 0 00-.256.586c0 2.001 1.15 4.14 4.375 4.14a.9.9 0 00.619-.242.806.806 0 00.256-.586c0-.22-.092-.43-.256-.585a.9.9 0 00-.619-.243zm20.125 0a.786.786 0 00-.039-.244l-3.5-10.765a.831.831 0 00-.316-.423.908.908 0 00-1.04 0 .831.831 0 00-.316.423l-3.5 10.765a.786.786 0 00-.039.244c0 2.4 1.505 4.407 3.5 4.869v3.412H45.5a.9.9 0 00-.619.243.806.806 0 00-.256.585v25.672c0 .879.369 1.721 1.025 2.343a3.61 3.61 0 002.475.97c.928 0 1.819-.35 2.475-.97a3.225 3.225 0 001.025-2.343V22.36c0-.22-.092-.43-.256-.585a.9.9 0 00-.619-.243H49V18.12c1.995-.462 3.5-2.47 3.5-4.869zm-2.625 34.781c0 .44-.184.86-.513 1.171a1.8 1.8 0 01-1.237.486c-.464 0-.91-.175-1.237-.486a1.613 1.613 0 01-.513-1.17V23.187h3.5V48.03zM45.502 13.37l2.623-8.07 2.623 8.07c-.05 1.77-1.207 3.193-2.623 3.193-1.416 0-2.573-1.422-2.623-3.194z" fill="#0BD5FE"/></svg>