<svg width="82" height="82" fill="none" xmlns="http://www.w3.org/2000/svg"><path d="M2.402 48.259c0-6.946 5.18-12.899 12.049-13.85a1.2 1.2 0 00.953-.75 20.646 20.646 0 0110.17-11.012c.071.302.19.598.357.875a2.976 2.976 0 002.567 1.449h4.368l-3.814 8.343a2.989 2.989 0 00.204 2.869 2.99 2.99 0 002.524 1.378h4.898l-.702 2.832a15.547 15.547 0 00-5.71 2.22 1.201 1.201 0 001.302 2.019c2.126-1.37 4.668-2.094 7.35-2.094 3.135 0 6.11 1.006 8.376 2.834a1.201 1.201 0 101.508-1.87 14.82 14.82 0 00-3.735-2.182l2.785-3.656a1.2 1.2 0 10-1.912-1.456l-3.31 4.347a16.675 16.675 0 00-3.712-.419c-.135 0-.27.004-.405.007l.866-3.494a1.2 1.2 0 00-1.165-1.49H31.78a.582.582 0 01-.503-.274.583.583 0 01-.04-.572l4.592-10.044a1.203 1.203 0 00-1.093-1.7h-6.238a.588.588 0 01-.51-.288.59.59 0 01-.018-.587l4.851-9.236a1.2 1.2 0 10-2.126-1.117l-4.398 8.372a22.99 22.99 0 00-6.223 3.615l-2.503-4.764a2.177 2.177 0 00-1.932-1.167H8.384c-.773 0-1.474.397-1.871 1.06a2.165 2.165 0 00-.054 2.15l.877 1.641H7.33c-.762 0-1.457.387-1.857 1.037a2.168 2.168 0 00-.094 2.124l1.854 3.697a2.168 2.168 0 00-1.91 1.213 2.17 2.17 0 00.219 2.291l1.61 2.113a16.445 16.445 0 00-3.084 2.73A16.365 16.365 0 000 48.26c0 3.409 1.038 6.678 3 9.452a1.2 1.2 0 101.962-1.387 13.891 13.891 0 01-2.56-8.065zm5.321-16.752H9.18a1.201 1.201 0 001.073-1.74L7.687 24.65H9.34a1.2 1.2 0 001.06-1.767l-1.647-3.084h6.754l2.73 5.197a23.031 23.031 0 00-4.805 7.145 16.3 16.3 0 00-4.18 1.37l-1.528-2.004z" fill="#0BD5FE"/><path d="M73.909 43.302a17.42 17.42 0 00-3.923-11.96l5.162-6.776a2.17 2.17 0 00.22-2.29 2.169 2.169 0 00-1.91-1.213l1.853-3.697a2.169 2.169 0 00-.094-2.125 2.169 2.169 0 00-1.857-1.036h-.005l.877-1.64a2.165 2.165 0 00-.053-2.15 2.164 2.164 0 00-1.872-1.06h-7.255c-.814 0-1.554.446-1.932 1.166l-5.017 9.55a2.167 2.167 0 00.064 2.144 2.166 2.166 0 001.868 1.053h1.533l-.974 2.132a17.5 17.5 0 00-4.753-.49 2.983 2.983 0 00-2.82-1.983h-1.538l4.124-8.225a2.979 2.979 0 00-.13-2.92 2.98 2.98 0 00-2.552-1.424h-1.677l2.393-4.48a2.977 2.977 0 00-.073-2.956 2.976 2.976 0 00-2.573-1.457h-13.3A2.99 2.99 0 0035.04 3.07l-1.598 3.04a1.201 1.201 0 102.127 1.118l1.597-3.04a.597.597 0 01.529-.32h13.3c.306 0 .46.203.512.29.053.088.159.32.015.59l-3.337 6.246a1.2 1.2 0 001.06 1.768h3.68a.59.59 0 01.509.283.59.59 0 01.026.582l-4.996 9.965a1.2 1.2 0 001.073 1.74h3.484c.335 0 .486.233.536.332.049.1.142.361-.06.628l-4.41 5.787a1.2 1.2 0 101.911 1.456l4.41-5.787c.102-.136.191-.278.269-.425.25-.013.503-.021.754-.021 8.325 0 15.1 6.774 15.1 15.1 0 .554-.032 1.12-.095 1.682-.46 2.9-1.808 5.602-3.9 7.818a1.201 1.201 0 101.745 1.65c2.126-2.25 3.59-4.942 4.281-7.846a8.636 8.636 0 016.035 8.255c0 4.776-3.885 8.66-8.66 8.66a8.595 8.595 0 01-5.059-1.632 1.2 1.2 0 00-1.452.036 13.83 13.83 0 01-8.721 3.053c-2.706 0-5.33-.774-7.592-2.24a1.203 1.203 0 00-1.758.538 13.971 13.971 0 01-12.87 8.507 14.01 14.01 0 01-12.736-8.207 13.657 13.657 0 012.776-13.952 1.2 1.2 0 10-1.772-1.623 16.044 16.044 0 00-3.688 15.04 13.895 13.895 0 01-9.687-2.417 1.202 1.202 0 00-1.377 1.97 16.284 16.284 0 009.384 2.952c.855 0 1.71-.066 2.553-.199a16.417 16.417 0 0014.547 8.839 16.37 16.37 0 0011.238-4.456c6.211 1.518 10.54 4.622 12.868 9.232.875 1.732 2.61 2.809 4.526 2.809a5.01 5.01 0 004.334-2.457c.922-1.538.966-3.4.12-4.98l-4.432-8.276a16.31 16.31 0 003.083-1.724 10.976 10.976 0 005.715 1.59C77.037 65.023 82 60.06 82 53.96c0-5.026-3.343-9.345-8.091-10.658zm-11.01-17.165l1.631-3.57a1.201 1.201 0 00-1.093-1.701H60.4l4.785-9.11h6.755l-1.648 3.084a1.201 1.201 0 001.06 1.768h1.652l-2.566 5.117a1.2 1.2 0 001.074 1.74h1.456l-4.65 6.103a17.538 17.538 0 00-5.42-3.43zm1.554 48.429c.443.828.42 1.805-.063 2.611a2.627 2.627 0 01-2.273 1.288 2.666 2.666 0 01-2.381-1.488c-2.499-4.949-6.939-8.358-13.208-10.155a16.477 16.477 0 001.453-2.276 16.338 16.338 0 0011.855 1.398l4.617 8.622z" fill="#0BD5FE"/><path d="M38.91 54.31h-.012a1.196 1.196 0 00-1.188 1.209c.005.66.548 1.193 1.208 1.193h.007a1.2 1.2 0 00-.007-2.403h-.008zm2.73 2.226h-.013a1.197 1.197 0 00-1.188 1.21 1.206 1.206 0 001.208 1.193h.007a1.2 1.2 0 00-.007-2.403h-.008zm-7.066 2.082a1.196 1.196 0 00-1.188 1.21 1.206 1.206 0 001.208 1.193h.007a1.2 1.2 0 10-.015-2.403h-.012zm39.26.096a1.2 1.2 0 00-1.2-1.201h-.013c-.663 0-1.195.537-1.195 1.201 0 .663.544 1.201 1.207 1.201a1.2 1.2 0 001.201-1.2zM67.18 38.76a1.2 1.2 0 00-1.2-1.2h-.013c-.664 0-1.195.536-1.195 1.2 0 .663.543 1.201 1.207 1.201.663 0 1.201-.538 1.201-1.2zm-52.143 8.889c-.664 0-1.195.537-1.195 1.201 0 .663.544 1.201 1.208 1.201a1.202 1.202 0 000-2.402h-.013zm11.654-18.852c-.663 0-1.195.538-1.195 1.202 0 .663.544 1.2 1.207 1.2a1.201 1.201 0 100-2.402h-.012z" fill="#0BD5FE"/></svg>