<svg width="75" height="73" fill="none" xmlns="http://www.w3.org/2000/svg"><g clip-path="url(#clip0)" fill-rule="evenodd" clip-rule="evenodd" fill="#0BD5FE"><path d="M70.274 30.008c-.81 0-1.465.638-1.465 1.425v9.319H6.299v-9.319c0-.787-.656-1.425-1.465-1.425s-1.465.638-1.465 1.425v10.745c0 .787.656 1.425 1.465 1.425h31.255v13.953l-13.366 13.01a1.4 1.4 0 000 2.016c.286.279.66.418 1.036.418.375 0 .75-.14 1.036-.418L36.089 61.59v9.985c0 .788.656 1.426 1.465 1.426.808 0 1.465-.638 1.465-1.426V61.59l11.293 10.992a1.48 1.48 0 001.037.418c.374 0 .75-.14 1.035-.418a1.4 1.4 0 000-2.016L39.02 57.557V43.603h31.254c.81 0 1.465-.638 1.465-1.425V31.434c0-.788-.656-1.426-1.464-1.426zm0-30.008H4.834C4.025 0 3.37.638 3.37 1.426v18.601c0 .787.656 1.426 1.465 1.426.81 0 1.465-.639 1.465-1.426v-9.319h62.51v9.32c0 .786.656 1.425 1.464 1.425.81 0 1.465-.639 1.465-1.426V1.426C71.738.638 71.082 0 70.274 0zM6.299 7.857V2.852h62.51v5.005H6.298z"/><path d="M29.59 36.107a1.5 1.5 0 00.732-.19l15.929-8.953c.453-.254.732-.725.732-1.234 0-.51-.279-.98-.732-1.234l-15.93-8.952a1.5 1.5 0 00-1.464 0 1.42 1.42 0 00-.732 1.235v17.903c0 .51.279.98.732 1.234.227.128.479.191.732.191zm1.464-16.859L42.59 25.73l-11.535 6.482V19.248zm-26.22 7.908c.807 0 1.465-.64 1.465-1.426 0-.785-.658-1.425-1.465-1.425s-1.465.64-1.465 1.425c0 .786.659 1.426 1.465 1.426zm65.44-2.851c-.808 0-1.465.64-1.465 1.425 0 .786.657 1.426 1.465 1.426.806 0 1.465-.64 1.465-1.426 0-.785-.659-1.425-1.465-1.425z"/></g><defs><clipPath id="clip0"><path fill="#fff" d="M0 0h75v73H0z"/></clipPath></defs></svg>