<svg width="80" height="83" fill="none" xmlns="http://www.w3.org/2000/svg"><g clip-path="url(#clip0)" fill="#0BD5FE"><path d="M13.137 43.406a2.905 2.905 0 010-3.809c7.396-8.47 16.908-13.134 26.782-13.134 9.873 0 19.386 4.665 26.785 13.134a2.905 2.905 0 010 3.81 44.495 44.495 0 01-3.927 3.963 1.143 1.143 0 01-1.652-.133 1.249 1.249 0 01.127-1.715 42.02 42.02 0 003.715-3.75.414.414 0 000-.542c-6.949-7.954-15.844-12.335-25.048-12.335-9.204 0-18.098 4.38-25.045 12.335a.413.413 0 000 .542c6.947 7.953 15.842 12.333 25.045 12.333 6.1 0 11.932-1.841 17.333-5.473a1.146 1.146 0 011.62.36 1.243 1.243 0 01-.346 1.681c-5.705 3.836-12.14 5.864-18.607 5.864-9.873 0-19.384-4.664-26.782-13.131zm-8.18 18.603a2.715 2.715 0 013.048.629l3.816 3.959a1.25 1.25 0 010 1.719c-.458.475-1.2.475-1.658 0l-3.816-3.96a.42.42 0 00-.493-.101.446.446 0 00-.28.434v11.975c0 .26.204.47.453.47H17.57a.433.433 0 00.418-.29.46.46 0 00-.099-.512l-4.118-4.272a1.249 1.249 0 010-1.72 1.142 1.142 0 011.658 0l4.118 4.273a2.973 2.973 0 01.606 3.162c-.434 1.087-1.448 1.79-2.583 1.79H6.027c-1.542 0-2.796-1.301-2.796-2.901V64.689c0-1.178.677-2.23 1.726-2.68z"/><path d="M2.794 9.3C1.25 9.3-.003 8-.003 6.4V2.9C-.003 1.301 1.25 0 2.794 0h3.371c1.542 0 2.796 1.301 2.796 2.901v.534h26.477V2.9c0-1.6 1.255-2.901 2.796-2.901h3.372c1.542 0 2.797 1.301 2.797 2.901v.534h26.476V2.9c0-1.6 1.255-2.901 2.796-2.901h3.372c1.543 0 2.797 1.301 2.797 2.901v3.5c0 1.6-1.254 2.9-2.796 2.9h-.438v27.55h.438c1.541 0 2.796 1.3 2.796 2.901v3.498c0 1.6-1.254 2.901-2.796 2.901h-.438V73.7h.438c1.541 0 2.796 1.301 2.796 2.901V80.1c0 1.6-1.254 2.901-2.797 2.901h-3.371c-1.542 0-2.797-1.301-2.797-2.901v-.534H44.402v.534c0 1.6-1.254 2.901-2.796 2.901h-3.371c-1.542 0-2.797-1.301-2.797-2.901v-3.5c0-1.6 1.255-2.9 2.797-2.9h3.371c1.542 0 2.797 1.3 2.797 2.9v.534h26.476V76.6c0-1.6 1.255-2.9 2.796-2.9h.591V46.15h-.59c-1.542 0-2.797-1.3-2.797-2.901v-3.498c0-1.6 1.255-2.901 2.796-2.901h.591V9.3h-.59c-1.542 0-2.797-1.3-2.797-2.9v-.534H44.402V6.4c0 1.6-1.254 2.9-2.796 2.9h-3.371c-1.542 0-2.797-1.3-2.797-2.9v-.534H8.962V6.4c0 1.6-1.254 2.9-2.797 2.9h-.59v27.55h.59c1.543 0 2.797 1.3 2.797 2.901v3.498c0 1.6-1.254 2.901-2.797 2.901H2.794c-1.542 0-2.796-1.301-2.796-2.901v-3.498c0-1.6 1.254-2.901 2.796-2.901h.437V9.3h-.437zm39.265 67.3a.461.461 0 00-.453-.469h-3.371c-.25 0-.453.21-.453.47v3.498c0 .258.203.47.453.47h3.371c.25 0 .453-.212.453-.47V76.6zm31.617-.469c-.25 0-.453.21-.453.47v3.498c0 .258.203.47.453.47h3.371c.25 0 .453-.212.453-.47V76.6a.462.462 0 00-.453-.469h-3.371zm0-36.85a.462.462 0 00-.453.47v3.498c0 .259.203.47.453.47h3.371c.25 0 .453-.211.453-.47v-3.498a.462.462 0 00-.453-.47h-3.371zM73.222 6.4c0 .259.203.469.453.469h3.371c.25 0 .453-.21.453-.47V2.902a.462.462 0 00-.453-.47h-3.371a.463.463 0 00-.453.47V6.4zm-35.441 0c0 .259.203.469.452.469h3.372c.25 0 .453-.21.453-.47V2.902a.462.462 0 00-.453-.47h-3.372a.462.462 0 00-.452.47V6.4zM2.794 39.28a.462.462 0 00-.453.47v3.498c0 .259.203.47.453.47h3.371c.25 0 .452-.211.452-.47V39.75a.462.462 0 00-.452-.47H2.794zM6.165 6.87a.46.46 0 00.452-.47V2.902a.462.462 0 00-.452-.47H2.794a.463.463 0 00-.453.47V6.4c0 .259.203.469.453.469h3.371z"/><path d="M31.674 39.767c-.128.658-.746 1.085-1.38.952-.635-.133-1.045-.774-.918-1.432 1.006-5.184 5.44-8.947 10.544-8.947 5.931 0 10.757 5.006 10.757 11.16S45.85 52.66 39.92 52.66c-4.547 0-8.621-2.987-10.14-7.433-.216-.632.103-1.328.714-1.552.61-.224 1.28.107 1.496.74 1.187 3.477 4.374 5.814 7.93 5.814 4.64 0 8.413-3.916 8.413-8.729 0-4.813-3.774-8.728-8.413-8.728-3.992 0-7.46 2.942-8.246 6.995z"/><path d="M37.878 35.328c1.15 0 2.157.632 2.726 1.576 2.148.342 3.799 2.273 3.799 4.596 0 2.565-2.011 4.65-4.483 4.65-2.471 0-4.482-2.085-4.482-4.65 0-.21.015-.419.042-.626a3.388 3.388 0 01-.816-2.212c0-1.838 1.442-3.334 3.214-3.334zm0 2.431c-.48 0-.87.406-.87.903 0 .498.39.903.87.903s.87-.405.87-.903c0-.497-.39-.903-.87-.903zm2.042 5.96c1.18 0 2.139-.996 2.139-2.22 0-.827-.44-1.55-1.09-1.931-.382 1.4-1.622 2.428-3.09 2.428l-.041-.002c.217.986 1.067 1.725 2.082 1.725zm-.001-20.805h-.003c-.647-.002-1.17-.547-1.169-1.22l.004-1.343c0-.67.525-1.213 1.172-1.213h.002c.648.002 1.17.547 1.17 1.22L41.09 21.7c-.002.67-.526 1.213-1.172 1.213zm3.096.59c-.2 0-.402-.053-.587-.165-.56-.337-.75-1.08-.425-1.661l.65-1.163a1.149 1.149 0 011.602-.44c.56.336.75 1.08.425 1.66l-.65 1.164c-.218.388-.61.605-1.015.605zm-6.195-.016c-.406 0-.8-.219-1.017-.61l-.646-1.166c-.322-.582-.128-1.325.434-1.66a1.15 1.15 0 011.6.45l.644 1.165c.322.582.128 1.325-.433 1.66-.183.11-.384.161-.582.161zm3.102 36.598h.003c.647.001 1.17.547 1.169 1.22l-.004 1.343c-.001.67-.525 1.212-1.172 1.212h-.002c-.648-.001-1.17-.547-1.17-1.218l.004-1.344c.002-.67.526-1.213 1.172-1.213zm-4.111.015a1.149 1.149 0 011.602-.44c.56.337.75 1.08.425 1.661l-.65 1.163c-.218.388-.61.605-1.015.605-.2 0-.402-.053-.587-.164-.56-.337-.75-1.081-.425-1.662l.65-1.163zm8.227.021l.645 1.166c.322.582.128 1.326-.433 1.66a1.13 1.13 0 01-.582.161c-.406 0-.801-.22-1.018-.61l-.644-1.166c-.323-.582-.13-1.325.432-1.66a1.15 1.15 0 011.6.45z"/></g><defs><clipPath id="clip0"><path transform="matrix(-1 0 0 1 80 0)" fill="#fff" d="M0 0h80v83H0z"/></clipPath></defs></svg>