<svg width="53" height="53" fill="none" xmlns="http://www.w3.org/2000/svg"><path d="M40.578 26.5h-13.25v-4.969h7.453a3.312 3.312 0 100-6.625H18.22a1.656 1.656 0 110-3.312h8.28a.828.828 0 00.828-.828v-4.97a.828.828 0 10-1.656 0v4.141h-7.453a3.312 3.312 0 100 6.626H34.78a1.656 1.656 0 010 3.312H26.5a.828.828 0 00-.828.828V26.5h-13.25a10.766 10.766 0 109.552 15.734h9.052A10.767 10.767 0 1040.578 26.5zm-5.051 1.656a4.148 4.148 0 01-4.058 3.313H21.53a4.148 4.148 0 01-4.057-3.313h18.053zm5.051 18.219a9.14 9.14 0 01-8.283-5.314.828.828 0 00-.753-.483H21.458a.828.828 0 00-.753.483 9.11 9.11 0 11-8.283-12.905h3.372a5.805 5.805 0 005.737 4.969h9.938a5.805 5.805 0 005.736-4.969h3.373a9.11 9.11 0 110 18.219z" fill="#0BD5FE"/><path d="M24.844 36.438H21.53a.828.828 0 100 1.656h3.313a.828.828 0 000-1.657zm6.625 0h-3.313a.828.828 0 100 1.656h3.313a.828.828 0 000-1.657zm-15.735-1.657h-.828v-.828a2.484 2.484 0 10-4.969 0v.828H9.11a2.484 2.484 0 000 4.969h.829v.828a2.484 2.484 0 104.968 0v-.828h.828a2.484 2.484 0 100-4.969zm0 3.313h-1.656a.828.828 0 00-.828.828v1.656a.828.828 0 11-1.656 0v-1.656a.828.828 0 00-.828-.828H9.109a.828.828 0 010-1.657h1.657a.828.828 0 00.828-.828v-1.656a.828.828 0 111.656 0v1.656a.828.828 0 00.828.828h1.656a.828.828 0 110 1.657zm28.156-3.313c-.37 0-.736.083-1.07.243a2.484 2.484 0 10-4.483 0 2.484 2.484 0 100 4.483 2.484 2.484 0 104.482 0 2.485 2.485 0 101.072-4.726zm-3.312-1.656a.828.828 0 110 1.656.828.828 0 010-1.656zm1.071 3.07a2.481 2.481 0 000 2.142 2.481 2.481 0 00-2.142 0 2.48 2.48 0 000-2.143 2.48 2.48 0 002.142 0zm-4.383 1.899a.828.828 0 110-1.657.828.828 0 010 1.657zm3.312 3.312a.828.828 0 110-1.656.828.828 0 010 1.656zm3.313-3.312a.828.828 0 110-1.656.828.828 0 010 1.656z" fill="#0BD5FE"/></svg>