<svg width="146" height="51" fill="none" xmlns="http://www.w3.org/2000/svg"><g clip-path="url(#clip0)"><path d="M17.57 50.175L5.215 35.167h3.661c2.256 0 4.086-.293 5.49-.88a7.33 7.33 0 002.7-2.219 5.245 5.245 0 001.143-3.271 5.394 5.394 0 00-.96-3.024 7.095 7.095 0 00-2.747-2.355 8.898 8.898 0 00-4.117-.917H2.06v27.674H0V20.437h10.386a11.48 11.48 0 013.934.661 9.602 9.602 0 013.203 1.9 8.415 8.415 0 012.038 2.697 7.358 7.358 0 01-.802 7.62 8.735 8.735 0 01-3.569 2.864 9.379 9.379 0 01-2.768.8c-.951.11-1.907.163-2.864.16l10.752 13.04-2.74-.004zm10.707 0V20.437h19.261v2.106H30.334v11.712H43.74v2.106H30.334v11.675h17.204v2.152l-19.261-.013zm35.641 0h-8.556V20.437h8.556a14.605 14.605 0 015.857 1.168 13.53 13.53 0 014.679 3.313 14.632 14.632 0 012.863 4.712 16.236 16.236 0 010 11.256 15.159 15.159 0 01-2.863 4.758 13.258 13.258 0 01-4.668 3.363 14.607 14.607 0 01-5.868 1.168zm-6.496-2.06h6.496c3.692 0 6.696-1.296 9.014-3.89a11.96 11.96 0 002.447-4.049 14.554 14.554 0 000-9.79 11.981 11.981 0 00-2.447-4.05c-2.35-2.531-5.355-3.797-9.014-3.797h-6.496v25.576zm27.863 2.06l-.046-29.738h10.615a10.388 10.388 0 014.828 1.15 9.352 9.352 0 013.525 3.064 7.413 7.413 0 010 8.397 9.253 9.253 0 01-3.525 3.084 10.386 10.386 0 01-4.828 1.143h-8.51V50.18l-2.06-.004zm2.06-15.054h8.509a8.563 8.563 0 003.797-.846 7.205 7.205 0 002.778-2.288 5.267 5.267 0 001.02-3.13 5.335 5.335 0 00-1.02-3.184 7.232 7.232 0 00-2.769-2.288 8.563 8.563 0 00-3.797-.846h-8.565l.046 12.582zm25.657 15.054V20.437h2.06v29.738h-2.06zM146 20.433l-10.615 14.87L146 50.176h-2.516l-9.335-13.133-9.333 13.133H122.3l10.616-14.871L122.3 20.433h2.516l9.333 13.133 9.335-13.133H146z" fill="#fff"/><path d="M134.149 0l-9.65 14.109 9.65 14.106 9.65-14.106L134.149 0z" fill="url(#paint0_linear)"/><path d="M134.149 0l-8.807 12.875 8.807 12.875 8.809-12.875L134.149 0z" fill="url(#paint1_linear)"/><path d="M134.149 0l-7.923 11.584 7.923 11.587 7.926-11.587L134.149 0z" fill="url(#paint2_linear)"/></g><defs><linearGradient id="paint0_linear" x1="134.149" y1="0" x2="134.149" y2="28.215" gradientUnits="userSpaceOnUse"><stop stop-color="#D22026"/><stop offset=".16" stop-color="#CE2025"/><stop offset=".34" stop-color="#C11E23"/><stop offset=".52" stop-color="#AB1C20"/><stop offset=".71" stop-color="#8D191B"/><stop offset=".9" stop-color="#671515"/><stop offset="1" stop-color="#4F1211"/></linearGradient><linearGradient id="paint1_linear" x1="134.149" y1="0" x2="134.149" y2="25.75" gradientUnits="userSpaceOnUse"><stop stop-color="#D22026"/><stop offset=".38" stop-color="#D02026"/><stop offset=".57" stop-color="#C81F24"/><stop offset=".71" stop-color="#BB1D22"/><stop offset=".84" stop-color="#A91A1E"/><stop offset=".94" stop-color="#91171A"/><stop offset="1" stop-color="#811517"/></linearGradient><linearGradient id="paint2_linear" x1="134.149" y1="0" x2="134.149" y2="23.169" gradientUnits="userSpaceOnUse"><stop stop-color="#D22026"/><stop offset=".29" stop-color="#D22228"/><stop offset=".44" stop-color="#D42A30"/><stop offset=".55" stop-color="#D7373C"/><stop offset=".64" stop-color="#DA494E"/><stop offset=".72" stop-color="#DF6266"/><stop offset=".8" stop-color="#E57F83"/><stop offset=".87" stop-color="#ECA3A5"/><stop offset=".93" stop-color="#F5CCCD"/><stop offset=".99" stop-color="#FEF9F9"/><stop offset="1" stop-color="#fff"/></linearGradient><clipPath id="clip0"><path fill="#fff" d="M0 0h146v50.175H0z"/></clipPath></defs></svg>