<svg width="54" height="53" fill="none" xmlns="http://www.w3.org/2000/svg"><path d="M47.25 14.078a.82.82 0 00-.247-.585.852.852 0 00-.597-.243H7.594a.852.852 0 00-.597.243.82.82 0 00-.247.585v24.844c0 .22.089.43.247.585a.852.852 0 00.597.243h38.812a.852.852 0 00.597-.243.82.82 0 00.247-.585V14.078zm-1.688 24.016H8.438V14.906h37.124v23.188zm6.751-35.61a.82.82 0 00-.248-.585.852.852 0 00-.596-.243H2.53a.852.852 0 00-.596.243.82.82 0 000 1.171.852.852 0 00.596.243h48.94a.852.852 0 00.596-.243.82.82 0 00.248-.586zm-.844 47.204H2.53a.852.852 0 00-.596.242.82.82 0 000 1.171.852.852 0 00.596.243h48.94a.852.852 0 00.596-.243.82.82 0 000-1.17.852.852 0 00-.596-.243zm-13.5-38.094a.852.852 0 00.596-.243.82.82 0 00.248-.585v-4.97a.82.82 0 00-.248-.585.852.852 0 00-.596-.242h-5.063a.852.852 0 00-.596.242.82.82 0 00-.248.586v4.969c0 .22.09.43.248.585a.852.852 0 00.596.243h5.063zM33.75 6.625h3.375v3.313H33.75V6.624zm13.5-.828a.82.82 0 00-.247-.586.852.852 0 00-.597-.242h-5.062a.852.852 0 00-.597.242.82.82 0 00-.247.586v4.969c0 .22.089.43.247.585a.852.852 0 00.597.243h5.062a.852.852 0 00.597-.243.82.82 0 00.247-.585v-4.97zm-1.688 4.14h-3.374V6.626h3.374v3.313zm-16.031 1.657a.852.852 0 00.597-.243.82.82 0 00.247-.585v-4.97a.82.82 0 00-.247-.585.852.852 0 00-.597-.242H24.47a.852.852 0 00-.597.242.82.82 0 00-.247.586v4.969c0 .22.089.43.247.585a.852.852 0 00.597.243h5.062zm-4.218-4.969h3.375v3.313h-3.375V6.624zm-4.219 4.969a.852.852 0 00.596-.243.82.82 0 00.247-.585v-4.97a.82.82 0 00-.247-.585.852.852 0 00-.596-.242H16.03a.852.852 0 00-.596.242.82.82 0 00-.248.586v4.969c0 .22.09.43.248.585a.852.852 0 00.596.243h5.063zm-4.219-4.969h3.375v3.313h-3.375V6.624zm-9.281 4.969h5.062a.852.852 0 00.597-.243.82.82 0 00.247-.585v-4.97a.82.82 0 00-.247-.585.852.852 0 00-.597-.242H7.594a.852.852 0 00-.597.242.82.82 0 00-.247.586v4.969c0 .22.089.43.247.585a.852.852 0 00.597.243zm.843-4.969h3.376v3.313H8.437V6.624zM2.531 9.938a.852.852 0 00-.596.242.82.82 0 000 1.171.852.852 0 00.596.243H4.22a.852.852 0 00.596-.243.82.82 0 00.247-.585v-4.97a.82.82 0 00-.247-.585.852.852 0 00-.596-.242H2.53a.852.852 0 00-.596.242.82.82 0 000 1.171.852.852 0 00.596.243h.844v3.313H2.53zm48.938-3.313a.852.852 0 00.596-.243.82.82 0 000-1.17.852.852 0 00-.596-.243H49.78a.852.852 0 00-.596.242.82.82 0 00-.248.586v4.969c0 .22.09.43.248.585a.852.852 0 00.596.243h1.688a.852.852 0 00.596-.243.82.82 0 000-1.17.852.852 0 00-.596-.243h-.844V6.624h.844zM32.906 41.406a.852.852 0 00-.596.243.82.82 0 00-.248.585v4.97c0 .219.09.43.248.585a.852.852 0 00.596.242h5.063a.852.852 0 00.596-.242.82.82 0 00.248-.586v-4.969a.82.82 0 00-.248-.585.852.852 0 00-.596-.243h-5.063zm4.219 4.969H33.75v-3.313h3.375v3.313zm9.281-4.969h-5.062a.852.852 0 00-.597.243.82.82 0 00-.247.585v4.97c0 .219.089.43.247.585a.852.852 0 00.597.242h5.062a.852.852 0 00.597-.242.82.82 0 00.247-.586v-4.969a.82.82 0 00-.247-.585.852.852 0 00-.597-.243zm-.843 4.969h-3.376v-3.313h3.376v3.313zm-21.094-4.969a.852.852 0 00-.597.243.82.82 0 00-.247.585v4.97c0 .219.089.43.247.585a.852.852 0 00.597.242h5.062a.852.852 0 00.597-.242.82.82 0 00.247-.586v-4.969a.82.82 0 00-.247-.585.852.852 0 00-.597-.243H24.47zm4.218 4.969h-3.375v-3.313h3.375v3.313zm-12.656-4.969a.852.852 0 00-.596.243.82.82 0 00-.248.585v4.97c0 .219.09.43.248.585a.852.852 0 00.596.242h5.063a.852.852 0 00.596-.242.82.82 0 00.247-.586v-4.969a.82.82 0 00-.247-.585.852.852 0 00-.596-.243H16.03zm4.219 4.969h-3.375v-3.313h3.375v3.313zM7.594 41.406a.852.852 0 00-.597.243.82.82 0 00-.247.585v4.97c0 .219.089.43.247.585a.852.852 0 00.597.242h5.062a.852.852 0 00.597-.242.82.82 0 00.247-.586v-4.969a.82.82 0 00-.247-.585.852.852 0 00-.597-.243H7.594zm4.218 4.969H8.438v-3.313h3.374v3.313zm-9.281 0a.852.852 0 00-.596.243.82.82 0 000 1.17.852.852 0 00.596.243H4.22a.852.852 0 00.596-.242.82.82 0 00.247-.586v-4.969a.82.82 0 00-.247-.585.852.852 0 00-.596-.243H2.53a.852.852 0 00-.596.243.82.82 0 000 1.17.852.852 0 00.596.243h.844v3.313H2.53zm48.938-3.312a.852.852 0 00.596-.243.82.82 0 000-1.171.852.852 0 00-.596-.243H49.78a.852.852 0 00-.596.243.82.82 0 00-.248.585v4.97c0 .219.09.43.248.585a.852.852 0 00.596.242h1.688a.852.852 0 00.596-.242.82.82 0 000-1.171.852.852 0 00-.596-.243h-.844v-3.313h.844z" fill="#0BD5FE"/><path d="M27 34.781a8.55 8.55 0 004.688-1.395 8.316 8.316 0 003.107-3.717 8.14 8.14 0 00.48-4.785 8.235 8.235 0 00-2.309-4.24 8.487 8.487 0 00-4.32-2.266 8.585 8.585 0 00-4.875.471 8.405 8.405 0 00-3.787 3.05 8.173 8.173 0 00-1.422 4.601 8.214 8.214 0 002.475 5.853A8.528 8.528 0 0027 34.781zm0-14.906c1.335 0 2.64.389 3.75 1.116a6.654 6.654 0 012.486 2.974 6.505 6.505 0 01.384 3.828 6.588 6.588 0 01-1.847 3.392 6.79 6.79 0 01-3.456 1.813 6.869 6.869 0 01-3.9-.377 6.725 6.725 0 01-3.03-2.44A6.538 6.538 0 0120.25 26.5a6.57 6.57 0 011.98-4.682A6.823 6.823 0 0127 19.875z" fill="#0BD5FE"/><path d="M24.869 29.689a.856.856 0 00.82.036l5.063-2.484a.839.839 0 00.34-.306.817.817 0 00-.34-1.176l-5.062-2.484a.858.858 0 00-.821.036.835.835 0 00-.4.705v4.968a.816.816 0 00.4.705zm1.287-4.333l2.332 1.144-2.332 1.145v-2.29zM2.531 38.094a.852.852 0 00-.596.242.82.82 0 000 1.171.852.852 0 00.596.243H4.22a.852.852 0 00.596-.243.82.82 0 00.247-.585V14.078a.82.82 0 00-.247-.585.852.852 0 00-.596-.243H2.53a.852.852 0 00-.596.243.82.82 0 000 1.17.852.852 0 00.596.243h.844v23.188H2.53zm48.938-23.188a.852.852 0 00.596-.242.82.82 0 000-1.171.852.852 0 00-.596-.243H49.78a.852.852 0 00-.596.243.82.82 0 00-.248.585v24.844c0 .22.09.43.248.585a.852.852 0 00.596.243h1.688a.852.852 0 00.596-.243.82.82 0 000-1.17.852.852 0 00-.596-.243h-.844V14.906h.844z" fill="#0BD5FE"/></svg>