<svg width="76" height="73" fill="none" xmlns="http://www.w3.org/2000/svg"><path fill-rule="evenodd" clip-rule="evenodd" d="M1.515 31.128c.82 0 1.484-.639 1.484-1.426V7.51c0-1.468 1.244-2.662 2.773-2.662H70.23c1.528 0 2.772 1.194 2.772 2.662v4.364c0 .787.664 1.425 1.484 1.425s1.485-.638 1.485-1.425V7.51c0-3.04-2.576-5.514-5.741-5.514H5.77C2.607 1.996.032 4.47.032 7.51v22.192c0 .787.664 1.426 1.484 1.426zm72.972-9.048c-.82 0-1.484.64-1.484 1.427v22.192c0 1.468-1.244 2.662-2.772 2.662H5.77C4.243 48.361 3 47.167 3 45.7v-4.364c0-.787-.664-1.425-1.484-1.425S.03 40.548.03 41.335V45.7c0 3.04 2.575 5.514 5.74 5.514h64.46c3.165 0 5.74-2.474 5.74-5.514V23.507c0-.788-.664-1.426-1.484-1.426z" fill="#0BD5FE"/><path fill-rule="evenodd" clip-rule="evenodd" d="M28.492 14.001a1.538 1.538 0 00-1.485 0 1.417 1.417 0 00-.742 1.235v22.737c0 .51.283.98.742 1.234a1.528 1.528 0 001.485 0l20.5-11.368c.46-.255.742-.725.742-1.235 0-.509-.283-.98-.742-1.235l-20.5-11.368zm.742 21.503V17.705l16.048 8.9-16.048 8.899zm45.253 26.184H25.945v-1.344c0-2.857-2.42-5.18-5.394-5.18s-5.394 2.323-5.394 5.18v1.344H1.515c-.82 0-1.484.638-1.484 1.426 0 .787.664 1.426 1.484 1.426h13.642v1.342c0 2.857 2.42 5.181 5.394 5.181s5.394-2.324 5.394-5.18V64.54h48.542c.82 0 1.484-.639 1.484-1.426 0-.788-.664-1.426-1.484-1.426zm-51.511 4.194c0 1.285-1.088 2.33-2.425 2.33-1.337 0-2.425-1.045-2.425-2.33v-5.538c0-1.284 1.088-2.329 2.425-2.329 1.337 0 2.425 1.045 2.425 2.33v5.537zM1.514 36.973c.834 0 1.514-.654 1.514-1.454 0-.801-.68-1.454-1.514-1.454S0 34.718 0 35.519c0 .8.68 1.454 1.514 1.454zm72.972-20.738c-.834 0-1.514.654-1.514 1.455 0 .8.68 1.454 1.514 1.454S76 18.49 76 17.69c0-.801-.68-1.455-1.514-1.455z" fill="#0BD5FE"/></svg>