<svg width="113" height="114" fill="none" xmlns="http://www.w3.org/2000/svg"><path d="M68.96 35.924c-.64 0-1.158.523-1.158 1.169v1.94c0 .646.519 1.17 1.159 1.17s1.158-.524 1.158-1.17v-1.94c0-.646-.519-1.17-1.158-1.17zm-21.836 1.968a3.765 3.765 0 00-3.085-1.617 3.765 3.765 0 00-3.084 1.617 1.25 1.25 0 00.3 1.733c.557.395 1.326.26 1.718-.303a1.285 1.285 0 011.066-.559c.43 0 .81.211 1.067.56.591.8 1.502.455 1.718.302a1.25 1.25 0 00.3-1.733zm16.624 3.776c-1.741-1.27-4.383-1.998-7.248-1.998s-5.507.728-7.248 1.998a2.607 2.607 0 00-.958 2.945 2.557 2.557 0 002.47 1.81h.51c.765 1.794 2.826 3.083 5.244 3.083 2.418 0 4.48-1.29 5.245-3.084h.473c1.147 0 2.117-.71 2.47-1.81a2.608 2.608 0 00-.958-2.944zm-7.23 5.5c-.925 0-1.772-.291-2.37-.746h4.74c-.597.455-1.444.746-2.37.746zm5.718-3.084H50.764c-.36 0-.352-.392-.155-.521 1.382-.907 3.538-1.555 5.89-1.555 2.354 0 4.551.587 5.891 1.555.18.13.261.521-.154.521z" fill="#0BD5FE"/><path d="M87.72 55.321c-2.93-5.379-7.113-8.534-9.74-10.107v-6.445a21.67 21.67 0 00-3.818-12.334 1.152 1.152 0 00-1.612-.294 1.175 1.175 0 00-.292 1.626 19.335 19.335 0 013.404 11.002v6.865c0 3.393.91 6.745 2.634 9.694a25.642 25.642 0 013.487 12.929c0 6.477-2.382 12.59-6.723 17.317h-5.933a19.466 19.466 0 006.635-14.662c0-10.715-8.641-19.433-19.263-19.433-7.1 0-13.604 3.922-16.972 10.235a1.174 1.174 0 00.471 1.583 1.154 1.154 0 001.57-.475c2.963-5.554 8.685-9.005 14.931-9.005 9.344 0 16.945 7.67 16.945 17.095 0 9.426-7.601 17.095-16.945 17.095-9.343 0-16.945-7.669-16.945-17.095 0-1.303.146-2.601.433-3.859a1.17 1.17 0 00-.868-1.401 1.158 1.158 0 00-1.39.876 19.704 19.704 0 00-.492 4.384 19.466 19.466 0 006.634 14.662h-5.867c-4.38-4.75-6.787-10.88-6.787-17.317 0-4.556 1.206-9.027 3.487-12.93a19.234 19.234 0 002.634-9.693V38.77c0-10.66 8.596-19.331 19.162-19.331 4.712 0 9.242 1.741 12.754 4.904.477.43 1.21.388 1.636-.094a1.176 1.176 0 00-.093-1.65A21.339 21.339 0 0056.5 17.1c-11.844 0-21.48 9.72-21.48 21.67v6.444c-2.627 1.573-6.81 4.728-9.74 10.107-3.859 7.084-4.455 15.812-1.773 25.94a4.068 4.068 0 002.5 2.794c.474.182 2.15.516 3.686-.417.891-.542 1.816-1.216 2.728-1.829a28.03 28.03 0 002.58 3.837c-2.674.43-4.724 2.773-4.724 5.591 0 3.123 2.518 5.663 5.613 5.663h9.513a5.572 5.572 0 004.036-1.734 27.082 27.082 0 007.266.935 27.433 27.433 0 006.866-.926A5.572 5.572 0 0067.6 96.9h9.513c3.095 0 5.613-2.54 5.613-5.663 0-2.8-2.024-5.13-4.673-5.582a27.785 27.785 0 002.558-3.824c.903.606 1.83 1.248 2.697 1.807 1.485.957 3.212.599 3.686.418a4.068 4.068 0 002.5-2.794c2.682-10.13 2.086-18.857-1.773-25.94zM28.412 81.69a1.715 1.715 0 01-1.584.18 1.762 1.762 0 01-1.082-1.21c-2.523-9.528-1.997-17.674 1.565-24.212 2.207-4.053 5.198-6.723 7.523-8.338a16.93 16.93 0 01-2.126 6.03A27.998 27.998 0 0028.9 68.258c0 4 .85 7.89 2.463 11.455l-2.95 1.977zm16.99 12.873H35.89c-1.818 0-3.296-1.492-3.296-3.325 0-1.833 1.478-3.325 3.296-3.325h9.512c1.818 0 3.296 1.492 3.296 3.325 0 1.833-1.479 3.325-3.296 3.325zm11.286-.8a24.775 24.775 0 01-5.979-.684 5.682 5.682 0 00.02-3.624c1.822.578 3.76.89 5.77.89 2.011 0 3.95-.312 5.774-.891a5.681 5.681 0 00.022 3.634c-1.83.432-3.71.662-5.607.676zm23.72-2.525c0 1.833-1.48 3.325-3.297 3.325H67.6c-1.818 0-3.296-1.492-3.296-3.325 0-1.833 1.478-3.325 3.296-3.325h9.513c1.817 0 3.295 1.492 3.295 3.325zm6.846-10.579a1.762 1.762 0 01-1.082 1.211 1.715 1.715 0 01-1.584-.18c-.93-.621-1.953-1.307-2.925-1.96A27.975 27.975 0 0084.1 68.258a28 28 0 00-3.808-14.117 16.934 16.934 0 01-2.126-6.03c2.325 1.614 5.315 4.284 7.523 8.337 3.562 6.538 4.088 14.684 1.565 24.211z" fill="#0BD5FE"/><path d="M68.351 77.468a1.152 1.152 0 00-1.607.323 12.388 12.388 0 01-6.683 5.01 1.17 1.17 0 00-.773 1.458c.151.505.66 1.046 1.445.78 3.203-1.08 6.052-3.1 7.938-5.95a1.175 1.175 0 00-.32-1.62z" fill="#0BD5FE"/></svg>