<svg width="81" height="80" fill="none" xmlns="http://www.w3.org/2000/svg"><g clip-path="url(#clip0)" fill="#0BD5FE"><path d="M37.8 25.333h5.4c.746 0 1.35-.597 1.35-1.333s-.604-1.333-1.35-1.333h-5.4c-.746 0-1.35.597-1.35 1.333s.604 1.333 1.35 1.333zM43.2 72h-5.4c-.746 0-1.35.597-1.35 1.333 0 .737.604 1.334 1.35 1.334h5.4c.746 0 1.35-.597 1.35-1.334 0-.736-.604-1.333-1.35-1.333zM8.1 69.333c0 2.946 2.418 5.334 5.4 5.334s5.4-2.388 5.4-5.334c0-2.945-2.418-5.333-5.4-5.333s-5.4 2.388-5.4 5.333zm5.4-2.666c1.491 0 2.7 1.194 2.7 2.666 0 1.473-1.209 2.667-2.7 2.667s-2.7-1.194-2.7-2.667c0-1.472 1.209-2.666 2.7-2.666zM1.604 63.641a3.06 3.06 0 003.256-.244l7.372-6.233a2.99 2.99 0 001.273-2.443c0-.97-.474-1.879-1.273-2.442L4.86 45.944a1.433 1.433 0 00-.135-.104 3.07 3.07 0 00-3.12-.15A2.995 2.995 0 000 48.335v12.667c0 1.104.617 2.118 1.604 2.638zM2.7 48.336a.313.313 0 01.178-.293.318.318 0 01.297-.012l7.336 6.308c.043.037.088.072.135.104a.332.332 0 010 .554c-.047.03-.092.061-.135.096l-7.333 6.208a.342.342 0 01-.323-.023.334.334 0 01-.155-.28V48.335z"/><path d="M76.95 25.333H59.4v-2.666c0-2.946-2.418-5.334-5.4-5.334H27a5.38 5.38 0 00-4.135 1.923c-5.387-1.633-11.234.21-14.667 4.623a13.2 13.2 0 00-.745 15.188c2.986 4.72 8.626 7.112 14.147 6v29.6C21.6 77.612 24.018 80 27 80h27c2.982 0 5.4-2.388 5.4-5.333V44h17.55c2.237 0 4.05-1.79 4.05-4V29.333c0-2.209-1.813-4-4.05-4zM8.1 32c0-5.891 4.835-10.667 10.8-10.667 5.965 0 10.8 4.776 10.8 10.667s-4.835 10.667-10.8 10.667C12.938 42.66 8.107 37.888 8.1 32zm24.3 0c-.005-4.796-2.618-9.219-6.842-11.584.43-.271.931-.416 1.442-.416h27c1.491 0 2.7 1.194 2.7 2.667v2.666h-8.1c-2.237 0-4.05 1.791-4.05 4v7.686l-5.258 10.385a1.295 1.295 0 00-.069 1.045c.125.343.39.618.729.76.044.018.089.032.135.044.106.035.215.056.327.064.028 0 .055.016.083.016.029 0 .044-.014.066-.016.187-.003.371-.045.54-.124L51.62 44h5.08v22.667h-2.137a3.908 3.908 0 00-1.29-.859l-.637-.267a11.66 11.66 0 000-1.268l.632-.266c2.058-.844 3.039-3.17 2.197-5.207a3.909 3.909 0 00-2.167-2.155 4.024 4.024 0 00-3.127-.021l-.631.267a11.585 11.585 0 00-.914-.9l.255-.616c.43-.978.432-2.087.007-3.067a4.051 4.051 0 00-3.74-2.462 4.05 4.05 0 00-3.738 2.462l-.27.639c-.43-.022-.86-.022-1.29 0l-.27-.647a3.907 3.907 0 00-2.153-2.133 4.038 4.038 0 00-3.134-.027c-2.063.856-3.039 3.196-2.186 5.239l.262.618c-.32.283-.622.583-.909.898l-.644-.267c-2.061-.816-4.405.14-5.282 2.156a3.954 3.954 0 00-.01 3.07 4.025 4.025 0 002.197 2.173l.637.266c-.024.423-.024.846 0 1.268l-.629.26a3.919 3.919 0 00-1.296.846H24.3V44.212c4.915-2.122 8.093-6.914 8.1-12.212zm9.45 32.923a1.34 1.34 0 01-1.18 1.313 1.35 1.35 0 01-1.475-.98 1.329 1.329 0 01.788-1.575 1.33 1.33 0 01.517-.1c.36-.001.705.14.958.393.253.252.395.593.392.949zm2.39-1.54c-.857-2.041-3.227-3.01-5.293-2.162-2.067.847-3.047 3.188-2.19 5.228.035.08.08.148.116.223h-5.745c.033-.153.038-.31.015-.464a8.73 8.73 0 010-2.577 1.33 1.33 0 00-.818-1.43l-1.57-.648a1.342 1.342 0 01-.731-.727 1.318 1.318 0 01.007-1.025 1.3 1.3 0 01.75-.708c.32-.139.686-.142 1.01-.008l1.567.64a1.36 1.36 0 001.597-.436 9.316 9.316 0 011.861-1.836 1.323 1.323 0 00.436-1.581l-.645-1.527a1.354 1.354 0 01.724-1.752 1.383 1.383 0 011.763.716l.647 1.547a1.35 1.35 0 001.425.812 9.499 9.499 0 012.646.01 1.353 1.353 0 001.45-.813l.645-1.557a1.356 1.356 0 011.767-.713c.333.14.594.406.726.738.142.318.142.681 0 .999l-.648 1.56a1.324 1.324 0 00.463 1.59 8.836 8.836 0 011.86 1.822 1.36 1.36 0 001.593.419l1.546-.638a1.37 1.37 0 011.755.732 1.328 1.328 0 01-.73 1.734l-1.553.64a1.331 1.331 0 00-.82 1.41c.122.86.12 1.734-.008 2.594-.023.155-.018.313.015.466h-5.752a3.928 3.928 0 00.121-3.278h-.001zM54 77.333H27c-1.491 0-2.7-1.194-2.7-2.666v-5.334h32.4v5.334c0 1.472-1.209 2.666-2.7 2.666zM78.3 40c0 .736-.604 1.333-1.35 1.333H51.3c-.21 0-.416.048-.603.14l-7.178 3.546 3.596-7.09a1.32 1.32 0 00.135-.596v-8c0-.736.604-1.333 1.35-1.333h28.35c.746 0 1.35.597 1.35 1.333V40z"/><path d="M54 30.667h-2.7c-.746 0-1.35.597-1.35 1.333s.604 1.333 1.35 1.333H54c.746 0 1.35-.597 1.35-1.333s-.604-1.333-1.35-1.333zm18.9 0H60.75c-.746 0-1.35.597-1.35 1.333s.604 1.333 1.35 1.333H72.9c.746 0 1.35-.597 1.35-1.333s-.604-1.333-1.35-1.333zm-58.05 0c.746 0 1.35-.597 1.35-1.334 0-.736-.604-1.333-1.35-1.333-.746 0-1.35.597-1.35 1.333 0 .737.604 1.334 1.35 1.334zm8.1 0c.746 0 1.35-.597 1.35-1.334 0-.736-.604-1.333-1.35-1.333-.746 0-1.35.597-1.35 1.333 0 .737.604 1.334 1.35 1.334zm1.295 2.843a1.364 1.364 0 00-1.025-.131c-.346.092-.64.316-.82.622a4.049 4.049 0 01-3.5 2 4.049 4.049 0 01-3.5-2 1.36 1.36 0 00-1.846-.489 1.325 1.325 0 00-.495 1.823c1.6 2.779 4.988 4.024 8.039 2.954l.717 1.102a1.36 1.36 0 001.86.393 1.324 1.324 0 00.41-1.836l-.663-1.015a6.616 6.616 0 001.32-1.6 1.32 1.32 0 00.134-1.013 1.336 1.336 0 00-.631-.81zM63.45 5.333c-.746 0-1.35.597-1.35 1.334v2.666c0 .737.604 1.334 1.35 1.334.746 0 1.35-.597 1.35-1.334V6.667c0-.737-.604-1.334-1.35-1.334zm-2.7 5.334h-2.7c-.746 0-1.35.597-1.35 1.333s.604 1.333 1.35 1.333h2.7c.746 0 1.35-.597 1.35-1.333s-.604-1.333-1.35-1.333zm1.35 6.666c0 .737.604 1.334 1.35 1.334.746 0 1.35-.597 1.35-1.334v-2.666c0-.737-.604-1.334-1.35-1.334-.746 0-1.35.597-1.35 1.334v2.666zm4.05-4h2.7c.746 0 1.35-.597 1.35-1.333s-.604-1.333-1.35-1.333h-2.7c-.746 0-1.35.597-1.35 1.333s.604 1.333 1.35 1.333zM12.15 0C9.602.004 7.402 1.765 6.87 4.227A5.355 5.355 0 005.4 4C2.418 4 0 6.388 0 9.333c0 2.946 2.418 5.334 5.4 5.334a5.36 5.36 0 001.47-.227c.579 2.665 3.099 4.47 5.843 4.185 2.745-.284 4.83-2.566 4.837-5.292a5.23 5.23 0 00-.75-2.666h16.95v4c0 .736.604 1.333 1.35 1.333.746 0 1.35-.597 1.35-1.333v-4h2.7v2.666c0 .737.604 1.334 1.35 1.334.746 0 1.35-.597 1.35-1.334v-2.666h2.7v4c0 .736.604 1.333 1.35 1.333.746 0 1.35-.597 1.35-1.333v-4h1.35c.746 0 1.35-.597 1.35-1.334C49.95 8.597 49.346 8 48.6 8H16.8a5.23 5.23 0 00.75-2.667C17.55 2.388 15.132 0 12.15 0zm0 2.667a2.696 2.696 0 012.608 1.901 2.65 2.65 0 01-1.12 3.005 2.727 2.727 0 01-3.235-.225c-.21-.5-.497-.967-.85-1.383a2.23 2.23 0 01-.103-.632c0-1.472 1.209-2.666 2.7-2.666zM2.7 9.333c0-1.472 1.209-2.666 2.7-2.666S8.1 7.86 8.1 9.333C8.1 10.806 6.891 12 5.4 12c-.716 0-1.403-.28-1.91-.781a2.65 2.65 0 01-.79-1.886zM12.15 16c-1.491 0-2.7-1.194-2.7-2.667a2.23 2.23 0 01.103-.632 5.29 5.29 0 00.85-1.382 2.727 2.727 0 013.234-.225 2.65 2.65 0 011.121 3.004A2.696 2.696 0 0112.15 16z"/></g><defs><clipPath id="clip0"><path fill="#fff" d="M0 0h81v80H0z"/></clipPath></defs></svg>