<svg width="13" height="13" fill="none" xmlns="http://www.w3.org/2000/svg"><path d="M2.649 8.642a13.791 13.791 0 004.587 3.593c.671.318 1.568.695 2.568.76.062.002.12.005.183.005.67 0 1.21-.232 1.648-.709a.056.056 0 00.011-.013c.156-.189.334-.358.52-.539.127-.12.256-.248.38-.377.574-.598.574-1.357-.006-1.937l-1.618-1.619c-.275-.285-.604-.436-.949-.436s-.676.15-.959.434l-.964.964a4.921 4.921 0 00-.267-.14 3.331 3.331 0 01-.296-.162c-.878-.557-1.676-1.284-2.438-2.22-.385-.487-.644-.896-.824-1.314.253-.229.49-.468.72-.703.08-.083.163-.167.247-.25.29-.291.447-.628.447-.97 0-.342-.154-.679-.447-.97l-.803-.803a24.132 24.132 0 01-.275-.28 14.774 14.774 0 00-.546-.541C3.29.143 2.964 0 2.619 0c-.342 0-.67.143-.959.418L.653 1.425A2.07 2.07 0 00.036 2.75c-.051.644.067 1.328.374 2.155.472 1.28 1.183 2.468 2.239 3.737zM.693 2.807c.033-.358.17-.657.429-.916L2.124.889c.156-.15.328-.229.495-.229.165 0 .332.078.485.234.18.167.35.342.534.528.091.095.185.189.28.286l.802.803c.167.167.254.336.254.503 0 .167-.087.337-.254.504l-.25.253c-.25.253-.485.493-.744.722l-.013.014c-.224.223-.189.436-.135.598l.008.021c.208.499.496.973.946 1.538.808.997 1.66 1.77 2.597 2.365.116.076.24.135.355.194.108.054.208.105.297.162l.03.016a.563.563 0 00.26.068.571.571 0 00.402-.184L9.48 8.278c.157-.156.326-.24.493-.24.205 0 .372.127.477.24l1.624 1.621c.324.324.32.674-.008 1.016a8.9 8.9 0 01-.358.358c-.188.184-.385.372-.563.585-.31.334-.679.49-1.156.49-.045 0-.094-.003-.14-.005-.883-.057-1.705-.402-2.322-.695a13.102 13.102 0 01-4.366-3.421C2.156 7.017 1.48 5.89 1.033 4.684.755 3.944.65 3.348.693 2.807z" fill="#0BD5FE"/></svg>