<svg width="54" height="54" fill="none" xmlns="http://www.w3.org/2000/svg"><g clip-path="url(#clip0)" fill="#0BD5FE"><path d="M38.7 0H15.3a4.505 4.505 0 00-4.5 4.5v45a4.505 4.505 0 004.5 4.5h23.4a4.505 4.505 0 004.5-4.5v-45A4.506 4.506 0 0038.7 0zm2.7 49.5a2.703 2.703 0 01-2.7 2.7H15.3a2.703 2.703 0 01-2.7-2.7V9h28.8v40.5zm0-42.3H12.6V4.5a2.703 2.703 0 012.7-2.7h23.4a2.703 2.703 0 012.7 2.7v2.7z"/><path d="M23.4 23.927l-1.8 1.8V23.4a.9.9 0 00-1.8 0v10.8a.9.9 0 001.603.562l3.33-4.162h4.534l3.33 4.162A.9.9 0 0034.2 34.2V23.4a.9.9 0 10-1.8 0v2.327l-1.8-1.8V21.6a.895.895 0 00-.073-.355l-2.7-6.3a.9.9 0 00-1.654 0l-2.7 6.3a.894.894 0 00-.073.355v2.327zm0 5.457l-1.8 2.25v-3.361l1.8-1.8v2.911zm7.2-2.911l1.8 1.8v3.361l-1.8-2.25v-2.911zm-5.4-4.688l1.8-4.2 1.8 4.2V28.8h-3.6v-7.015zM15.3 16.2a2.703 2.703 0 012.7 2.7.9.9 0 101.8 0 2.703 2.703 0 012.7-2.7.9.9 0 000-1.8 2.703 2.703 0 01-2.7-2.7.9.9 0 10-1.8 0 2.703 2.703 0 01-2.7 2.7.9.9 0 100 1.8zm3.594-1.82c.26.348.567.659.915.92a4.527 4.527 0 00-.915.92 4.522 4.522 0 00-.922-.92c.35-.26.66-.571.922-.92zM31.5 40.5a.9.9 0 000 1.8 2.703 2.703 0 012.7 2.7.9.9 0 101.8 0 2.703 2.703 0 012.7-2.7.9.9 0 100-1.8 2.703 2.703 0 01-2.7-2.7.9.9 0 10-1.8 0 2.703 2.703 0 01-2.7 2.7zm3.594-.02c.26.349.567.659.915.92a4.524 4.524 0 00-.915.92 4.523 4.523 0 00-.922-.92c.35-.26.66-.57.922-.92zM20.7 37.8a.9.9 0 00-.9.9v2.7a.9.9 0 101.8 0v-2.7a.9.9 0 00-.9-.9z"/><path d="M24.3 36.9a.9.9 0 00.9-.9v-.9a.9.9 0 00-1.8 0v.9a.9.9 0 00.9.9zm.9 4.5v-1.8a.9.9 0 10-1.8 0v1.8a.9.9 0 001.8 0zm5.4-6.3a.9.9 0 00-1.8 0v.9a.9.9 0 001.8 0v-.9zm-.9-31.5h-5.4a.9.9 0 100 1.8h5.4a.9.9 0 000-1.8zm6.3 0h-.9a.9.9 0 000 1.8h.9a.9.9 0 100-1.8zm3.195.153a.503.503 0 00-.153-.081.545.545 0 00-.172-.054.93.93 0 00-.809.243.913.913 0 000 1.278c.173.164.4.258.64.261a1.13 1.13 0 00.17-.018.557.557 0 00.171-.054.503.503 0 00.153-.081.846.846 0 00.144-.108l.108-.135a.701.701 0 00.081-.162.56.56 0 00.054-.162c.01-.06.017-.12.018-.18a.947.947 0 00-.26-.64.869.869 0 00-.145-.107zM27 45a3.15 3.15 0 100 6.3 3.15 3.15 0 000-6.3zm0 4.5a1.35 1.35 0 110-2.7 1.35 1.35 0 010 2.7z"/></g><defs><clipPath id="clip0"><path fill="#fff" d="M0 0h54v54H0z"/></clipPath></defs></svg>