<svg width="87" height="87" fill="none" xmlns="http://www.w3.org/2000/svg"><path fill-rule="evenodd" clip-rule="evenodd" d="M85.3 11.385H15.47a1.7 1.7 0 00-1.7 1.699v5.186H8.584a1.7 1.7 0 00-1.699 1.7v5.185H1.7a1.7 1.7 0 00-1.7 1.7V73.94c0 .939.76 1.7 1.7 1.7h28.118a1.7 1.7 0 100-3.399H3.398V28.553h66.433v43.689h-26.42a1.7 1.7 0 100 3.398h28.12a1.7 1.7 0 001.699-1.699v-5.186h5.186a1.7 1.7 0 001.699-1.699V61.87H85.3a1.7 1.7 0 001.7-1.7V13.085a1.7 1.7 0 00-1.7-1.7zm-8.584 53.972H73.23V26.854a1.7 1.7 0 00-1.7-1.699H10.285v-3.487h66.432v43.689zm6.886-6.885h-3.487V19.969a1.7 1.7 0 00-1.7-1.7H17.17v-3.486h66.433v43.689z" fill="#0BD5FE"/><path fill-rule="evenodd" clip-rule="evenodd" d="M54.351 50.398c0-9.78-7.956-17.737-17.736-17.737-9.78 0-17.736 7.956-17.736 17.737 0 9.78 7.956 17.736 17.736 17.736 9.78 0 17.736-7.956 17.736-17.736zm-32.074 0c0-7.906 6.432-14.338 14.338-14.338 7.906 0 14.338 6.432 14.338 14.338 0 7.906-6.432 14.338-14.338 14.338-7.906 0-14.338-6.432-14.338-14.338z" fill="#0BD5FE"/><path fill-rule="evenodd" clip-rule="evenodd" d="M47.21 50.398a1.7 1.7 0 00-.85-1.472l-14.036-8.103a1.697 1.697 0 00-2.548 1.472v16.207a1.7 1.7 0 002.548 1.471L46.36 51.87a1.7 1.7 0 00.85-1.471zm-14.036 5.16v-10.32l8.938 5.16-8.938 5.16zm3.441 16.684c-.936 0-1.7.763-1.7 1.7 0 .935.764 1.699 1.7 1.699.936 0 1.7-.764 1.7-1.7 0-.936-.764-1.699-1.7-1.699z" fill="#0BD5FE"/></svg>