<svg width="84" height="82" fill="none" xmlns="http://www.w3.org/2000/svg"><path fill-rule="evenodd" clip-rule="evenodd" d="M82.36 16.336h-7.384c-.906 0-1.64.717-1.64 1.602 0 .884.734 1.601 1.64 1.601h5.743v42.954h-58.57c-.906 0-1.64.718-1.64 1.602 0 .885.734 1.602 1.64 1.602h60.21c.907 0 1.641-.717 1.641-1.602V17.938c0-.885-.734-1.602-1.64-1.602zM9.024 62.493H3.281V19.54h58.57c.906 0 1.64-.717 1.64-1.602 0-.884-.734-1.601-1.64-1.601H1.64c-.907 0-1.641.717-1.641 1.602v46.157c0 .885.734 1.602 1.64 1.602h7.384c.906 0 1.64-.717 1.64-1.602 0-.884-.734-1.602-1.64-1.602z" fill="#0BD5FE"/><path fill-rule="evenodd" clip-rule="evenodd" d="M24.016 41.016c0 9.68 8.068 17.556 17.984 17.556 9.916 0 17.984-7.876 17.984-17.556S51.916 23.46 42 23.46c-9.916 0-17.984 7.876-17.984 17.556zm32.687 0c0 7.914-6.596 14.353-14.703 14.353S27.297 48.93 27.297 41.016 33.893 26.664 42 26.664s14.703 6.438 14.703 14.352z" fill="#0BD5FE"/><path fill-rule="evenodd" clip-rule="evenodd" d="M36.252 31.825c-.508.286-.82.814-.82 1.386v15.61c0 .572.312 1.101.82 1.387a1.666 1.666 0 001.64 0l13.849-7.805c.507-.286.82-.814.82-1.387 0-.572-.313-1.1-.82-1.387l-13.848-7.804a1.673 1.673 0 00-1.641 0zm2.461 4.16l8.926 5.031-8.926 5.031V35.985zm-25.027 8.678l-3.737-3.647 3.737-3.647c.64-.625.64-1.64 0-2.265a1.67 1.67 0 00-2.32 0l-4.897 4.78a1.576 1.576 0 000 2.265l4.896 4.78c.32.312.74.468 1.16.468.42 0 .84-.156 1.16-.469a1.573 1.573 0 000-2.264zm56.628-7.294l3.737 3.647-3.737 3.648a1.575 1.575 0 000 2.264c.32.313.74.47 1.16.47.42 0 .84-.157 1.16-.47l4.896-4.78a1.574 1.574 0 000-2.265l-4.896-4.78a1.67 1.67 0 00-2.32 0 1.577 1.577 0 000 2.266zM15.587 62.493c-.905 0-1.641.72-1.641 1.602 0 .882.736 1.602 1.64 1.602.904 0 1.641-.72 1.641-1.602 0-.882-.737-1.602-1.64-1.602zM68.413 19.54c.904 0 1.641-.72 1.641-1.602 0-.883-.737-1.602-1.64-1.602-.904 0-1.641.72-1.641 1.602 0 .882.737 1.601 1.64 1.601z" fill="#0BD5FE"/></svg>