<svg width="76" height="76" fill="none" xmlns="http://www.w3.org/2000/svg"><path fill-rule="evenodd" clip-rule="evenodd" d="M70.002 30.678H19.359l48.643-14.09a1.487 1.487 0 001.013-1.84l-2.546-8.787C65.452 2.451 62.184 0 58.522 0c-.772 0-1.54.11-2.286.325l-45.67 13.23a8.204 8.204 0 00-4.931 3.954 8.204 8.204 0 00-.706 6.28l2.487 8.584V67.74c0 4.555 3.706 8.261 8.26 8.261h17.837a1.484 1.484 0 100-2.969H15.677a5.298 5.298 0 01-5.292-5.292v-20.2h58.132v20.2a5.298 5.298 0 01-5.292 5.292H45.388a1.485 1.485 0 000 2.969h17.837c4.555 0 8.261-3.706 8.261-8.26V32.162c0-.82-.665-1.485-1.484-1.485zM43.827 44.57l6.307-10.923h8.203L52.031 44.57h-8.204zm-11.631 0l6.307-10.923h8.203L40.399 44.57h-8.203zm-11.631 0l6.306-10.923h8.204L28.768 44.57h-8.203zm5.519-19.216L15.523 15.21l7.913-2.292c.055.081.12.158.195.23L34.19 23.29l-7.912 2.292a1.478 1.478 0 00-.195-.23zm19.89-18.68l10.562 10.144-7.913 2.292a1.446 1.446 0 00-.195-.229L37.867 8.738l7.913-2.293c.055.082.12.158.194.23zM34.802 9.911l10.561 10.143-7.913 2.293a1.44 1.44 0 00-.195-.23l-10.56-10.143 7.912-2.292c.057.08.122.158.195.23zm22.26-6.734a5.25 5.25 0 011.46-.208 5.326 5.326 0 015.096 3.819l2.132 7.36-5.955 1.726a1.51 1.51 0 00-.196-.23L49.04 5.502l8.023-2.324zM8.235 18.94a5.253 5.253 0 013.156-2.534l.873-.253c.056.081.12.159.194.23L23.02 26.526 9.913 30.324l-2.132-7.361a5.254 5.254 0 01.454-4.022zm2.15 14.706h13.058L17.137 44.57h-6.752V33.647zM55.459 44.57l6.306-10.923h6.752V44.57H55.46z" fill="#0BD5FE"/><path fill-rule="evenodd" clip-rule="evenodd" d="M49.715 60.134c0-.53-.283-1.02-.742-1.285l-13.041-7.53a1.485 1.485 0 00-2.227 1.286v15.058a1.484 1.484 0 002.227 1.285l13.04-7.528c.46-.266.743-.756.743-1.286zm-13.041 4.958v-9.916l8.588 4.958-8.588 4.958zm2.776 7.939c-.817 0-1.484.667-1.484 1.485 0 .817.667 1.484 1.485 1.484.818 0 1.484-.667 1.484-1.484 0-.818-.666-1.485-1.484-1.485z" fill="#0BD5FE"/></svg>