<svg width="85" height="90" viewBox="0 0 85 90" fill="none" xmlns="http://www.w3.org/2000/svg">
<g clip-path="url(#clip0)">
<path d="M62.0866 54.1833L59.1561 55.902C58.5543 56.2556 58.337 57.0576 58.6703 57.6941C58.8973 58.1288 59.3221 58.3739 59.7605 58.3739C59.9641 58.3739 60.1716 58.321 60.3629 58.2091L63.2935 56.4898C63.8946 56.1368 64.1125 55.3341 63.7792 54.6976C63.4459 54.0604 62.6878 53.8304 62.0866 54.1833Z" fill="#0BD5FE"/>
<path d="M62.0866 50.4425L59.156 52.1612C58.5542 52.5141 58.3363 53.3168 58.6703 53.954C58.8973 54.3879 59.322 54.6331 59.7604 54.6331C59.9641 54.6331 60.1716 54.5802 60.3622 54.4683L63.2934 52.7489C63.8946 52.396 64.1125 51.594 63.7792 50.9568C63.4458 50.3196 62.6878 50.0895 62.0866 50.4425Z" fill="#0BD5FE"/>
<path d="M82.7485 66.2374C82.8678 66.0314 82.9346 65.789 82.9346 65.5466V53.9485C82.9346 53.2199 82.3769 52.6301 81.6888 52.6301C81.0014 52.6301 80.4437 53.2199 80.4437 53.9485V63.5155L68.4705 57.861V33.3628L80.4437 26.3391V48.2074C80.4437 48.9359 81.0014 49.5258 81.6888 49.5258C82.3769 49.5258 82.9346 48.9359 82.9346 48.2074V24.1013C82.9346 23.6309 82.6817 23.1764 82.2926 22.9484L43.1498 -0.013046C42.7782 -0.230026 42.3145 -0.230026 41.943 -0.013046L2.80017 22.9484C2.40459 23.1798 2.15297 23.6392 2.15816 24.1171V65.5466C2.15816 66.0176 2.41042 66.4715 2.80017 66.7002L20.0464 76.8172C20.6482 77.1695 21.4056 76.9394 21.739 76.3029C22.0723 75.6657 21.8544 74.863 21.2532 74.5108L6.18988 65.6743L17.8064 60.1887L41.3009 73.9704V86.2703L26.1915 77.4077C25.5904 77.0548 24.8323 77.2848 24.499 77.922C24.1656 78.5586 24.3835 79.3612 24.9847 79.7142L41.943 89.6616C42.3126 89.8786 42.7802 89.8786 43.1498 89.6616L60.9349 79.228C61.5367 78.8751 61.754 78.0731 61.4206 77.4359C61.088 76.7994 60.3299 76.5686 59.7281 76.9216L43.7912 86.2703V73.9704L67.2857 60.1887L78.9022 65.6743L64.6631 74.0274C64.0613 74.3803 63.8441 75.1823 64.1774 75.8195C64.4044 76.2542 64.8292 76.4993 65.2675 76.4993C65.4712 76.4993 65.6787 76.4457 65.87 76.3338L82.2926 66.7002C82.4768 66.5924 82.6382 66.4269 82.7485 66.2374ZM42.5461 19.6161L64.656 32.5862L42.5461 45.5556L20.4368 32.5862L42.5461 19.6161ZM67.2254 31.079L43.7912 17.3323V3.37761L79.1195 24.1013L67.2254 31.079ZM41.3009 17.3323L17.8674 31.079L5.97263 24.1013L41.3009 3.37761V17.3323ZM4.64839 26.3391L16.6216 33.3628V57.861L4.64839 63.5155V26.3391ZM19.1125 34.824L28.1507 40.1256L41.3009 47.84V70.956L19.1125 57.9399V34.824ZM43.7912 47.84L65.9802 34.824V57.9399L43.7912 70.956V47.84Z" fill="#0BD5FE"/>
</g>
<defs>
<clipPath id="clip0">
<rect width="85" height="90" fill="white"/>
</clipPath>
</defs>
</svg>
