<svg width="56" height="53" viewBox="0 0 56 53" fill="none" xmlns="http://www.w3.org/2000/svg">
<path d="M3.73722 51.0827C3.81905 51.1651 3.91786 51.2308 4.02755 51.2757C4.13723 51.3206 4.25548 51.3438 4.37499 51.3438H18.375C18.4945 51.3437 18.6127 51.3206 18.7224 51.2757C18.8321 51.2307 18.9309 51.165 19.0127 51.0826C19.0945 51.0001 19.1576 50.9027 19.1982 50.7963C19.2387 50.6899 19.2557 50.5768 19.2482 50.4639L17.4982 23.9639C17.4877 23.8026 17.4274 23.6478 17.3247 23.5187L14.875 20.4272V18.2188H15.75C15.982 18.2188 16.2046 18.1315 16.3687 17.9762C16.5328 17.8209 16.625 17.6103 16.625 17.3906V14.0781C16.625 13.8585 16.5328 13.6479 16.3687 13.4926C16.2046 13.3372 15.982 13.25 15.75 13.25H6.99999C6.76792 13.25 6.54536 13.3372 6.38127 13.4926C6.21717 13.6479 6.12499 13.8585 6.12499 14.0781V17.3906C6.12499 17.6103 6.21717 17.8209 6.38127 17.9762C6.54536 18.1315 6.76792 18.2188 6.99999 18.2188H7.87499V20.4272L5.42499 23.5187C5.32226 23.6478 5.2619 23.8026 5.25141 23.9639L3.50141 50.4639C3.49396 50.5768 3.51105 50.69 3.55161 50.7964C3.59216 50.9028 3.65533 51.0003 3.73722 51.0827ZM5.30642 49.6875L5.4158 48.0312H17.3342L17.4435 49.6875H5.30642ZM9.18749 21.5312H13.5625L14.875 23.1875H7.87499L9.18749 21.5312ZM15.8029 24.8438L17.2248 46.375H5.52517L6.94705 24.8438H15.8029ZM7.87499 14.9062H14.875V16.5625H7.87499V14.9062ZM13.125 18.2188V19.875H9.62499V18.2188H13.125Z" fill="#0BD5FE"/>
<path d="M38.5 11.2926C38.5 8.80286 36.9969 8.07245 35.5432 7.36617C35.0239 7.12737 34.523 6.85442 34.0441 6.54933C32.1054 5.26252 32.3673 2.59824 32.37 2.5736C32.3887 2.41054 32.3558 2.2459 32.2755 2.10055C32.1952 1.9552 32.0711 1.8357 31.9189 1.75718C31.7668 1.67866 31.5934 1.64468 31.4208 1.65953C31.2483 1.67438 31.0842 1.73741 30.9495 1.84061C30.6861 2.04236 24.5 6.83254 24.5 11.2926C24.5 14.109 25.7325 16.2567 27.822 17.37C27.3716 20.9564 27.125 25.3294 27.125 29.8125C27.125 35.3849 27.4929 40.6305 28.1611 44.5827C28.4919 46.5392 28.8816 48.0865 29.3193 49.1816C29.533 49.7164 30.1833 51.3437 31.5 51.3437C31.8256 51.3437 32.8167 51.3437 33.6807 49.1816C34.1182 48.0865 34.5081 46.5393 34.8389 44.5827C35.5071 40.6305 35.875 35.3849 35.875 29.8125C35.875 25.3294 35.6284 20.9564 35.178 17.3699C37.2675 16.2567 38.5 14.1092 38.5 11.2926ZM33.2181 43.6581C32.5443 48.0168 31.7812 49.2728 31.5 49.6024C31.2188 49.2728 30.4557 48.0168 29.7819 43.6581C29.1971 39.8742 28.875 34.9572 28.875 29.8125C28.875 27.5434 28.9394 25.3058 29.0609 23.1875H33.9391C34.0609 25.3058 34.125 27.5434 34.125 29.8125C34.125 34.9572 33.8029 39.8742 33.2181 43.6581ZM33.8297 21.5312H29.1703C29.2624 20.2936 29.3747 19.1083 29.5069 17.9964C30.8172 18.2929 32.183 18.2929 33.4934 17.9964C33.6254 19.1083 33.7377 20.2936 33.8297 21.5312ZM31.5 16.5625C28.2126 16.5625 26.25 14.5925 26.25 11.2926C26.25 8.8983 28.8368 5.98869 30.7274 4.2518C30.9461 5.42691 31.5339 6.90614 33.0392 7.90528C33.5835 8.25454 34.1532 8.56697 34.744 8.84023C36.0796 9.48855 36.75 9.81441 36.75 11.2926C36.75 14.5925 34.7874 16.5625 31.5 16.5625Z" fill="#0BD5FE"/>
<path d="M32.375 13.25C30.2054 13.25 29.75 11.8989 29.75 10.7656C29.75 10.546 29.6578 10.3354 29.4937 10.1801C29.3296 10.0247 29.1071 9.9375 28.875 9.9375C28.6429 9.9375 28.4204 10.0247 28.2563 10.1801C28.0922 10.3354 28 10.546 28 10.7656C28 12.7673 29.1493 14.9062 32.375 14.9062C32.6071 14.9062 32.8296 14.819 32.9937 14.6637C33.1578 14.5084 33.25 14.2978 33.25 14.0781C33.25 13.8585 33.1578 13.6479 32.9937 13.4926C32.8296 13.3372 32.6071 13.25 32.375 13.25Z" fill="#0BD5FE"/>
<path d="M52.5 13.25C52.5 13.1675 52.487 13.0853 52.4613 13.0064L48.9613 2.24082C48.9062 2.07157 48.7953 1.92348 48.6448 1.81828C48.4943 1.71308 48.3121 1.65631 48.125 1.65631C47.9379 1.65631 47.7557 1.71308 47.6052 1.81828C47.4547 1.92348 47.3438 2.07157 47.2887 2.24082L43.7887 13.0064C43.763 13.0853 43.75 13.1675 43.75 13.25C43.75 15.6496 45.2554 17.6571 47.25 18.1188V21.5313H45.5C45.2679 21.5313 45.0454 21.6185 44.8813 21.7738C44.7172 21.9291 44.625 22.1398 44.625 22.3594V48.0313C44.625 48.9098 44.9937 49.7523 45.6501 50.3736C46.3065 50.9948 47.1967 51.3438 48.125 51.3438C49.0533 51.3438 49.9435 50.9948 50.5999 50.3736C51.2563 49.7523 51.625 48.9098 51.625 48.0313V22.3594C51.625 22.1398 51.5328 21.9291 51.3687 21.7738C51.2046 21.6185 50.9821 21.5313 50.75 21.5313H49V18.1188C50.9946 17.6571 52.5 15.6496 52.5 13.25ZM49.875 48.0313C49.875 48.4705 49.6906 48.8918 49.3624 49.2024C49.0342 49.513 48.5891 49.6875 48.125 49.6875C47.6609 49.6875 47.2158 49.513 46.8876 49.2024C46.5594 48.8918 46.375 48.4705 46.375 48.0313V23.1875H49.875V48.0313ZM45.5016 13.3694L48.125 5.30002L50.7484 13.3691C50.6984 15.1409 49.5408 16.5625 48.125 16.5625C46.7092 16.5625 45.5516 15.1409 45.5016 13.3694Z" fill="#0BD5FE"/>
</svg>
