<svg width="82" height="82" viewBox="0 0 82 82" fill="none" xmlns="http://www.w3.org/2000/svg">
<path d="M2.40234 48.259C2.40234 41.3135 7.58177 35.3602 14.451 34.4099C14.8814 34.3504 15.2461 34.0633 15.4044 33.6585C17.2994 28.8251 20.9492 24.9 25.5737 22.6465C25.645 22.9493 25.7639 23.2452 25.9309 23.5224C26.479 24.4295 27.4386 24.9707 28.4984 24.9707H32.8658L29.0521 33.3138C28.6254 34.2472 28.7018 35.3195 29.256 36.1829C29.811 37.0456 30.7544 37.5611 31.7804 37.5611H36.6783L35.9763 40.3932C33.92 40.7586 31.9825 41.5074 30.2664 42.6123C29.709 42.9714 29.5482 43.7146 29.9073 44.2726C30.2664 44.83 31.0096 44.9914 31.5677 44.6317C33.6941 43.2623 36.236 42.5384 38.918 42.5384C42.0529 42.5384 45.0277 43.5444 47.2943 45.3718C47.5164 45.5507 47.7829 45.6377 48.0475 45.6377C48.3978 45.6377 48.7457 45.4844 48.9834 45.1904C49.3994 44.6743 49.3181 43.9179 48.802 43.5012C47.6834 42.5997 46.4215 41.869 45.0671 41.3197L47.8517 37.6643C48.254 37.1369 48.152 36.383 47.624 35.9808C47.0966 35.5785 46.3427 35.6811 45.9404 36.2085L42.6297 40.5546C41.4298 40.2806 40.1848 40.1361 38.918 40.1361C38.7828 40.1361 38.6483 40.1398 38.5132 40.143L39.379 36.6489C39.4679 36.2905 39.3872 35.9107 39.1595 35.6198C38.9317 35.3289 38.5826 35.1594 38.2135 35.1594H31.7804C31.4964 35.1594 31.3431 34.9873 31.2774 34.8847C31.2117 34.7821 31.1191 34.5713 31.2367 34.3135L35.8287 24.2694C35.9982 23.8977 35.9676 23.4648 35.7467 23.1207C35.5253 22.7767 35.1449 22.5689 34.7358 22.5689H28.4984C28.1944 22.5689 28.0399 22.3675 27.9873 22.2805C27.9354 22.1936 27.8284 21.9627 27.9698 21.6937L32.8214 12.4578C33.1304 11.871 32.904 11.1447 32.3172 10.8363C31.7303 10.5278 31.0034 10.7537 30.6949 11.3411L26.2969 19.713C24.0253 20.592 21.9289 21.8176 20.074 23.3284L17.5715 18.5644C17.193 17.8443 16.4529 17.397 15.639 17.397H8.38443C7.61055 17.397 6.91049 17.7937 6.5126 18.4574C6.11472 19.1212 6.0947 19.9251 6.45943 20.6077L7.33591 22.248H7.3309C6.56891 22.248 5.87448 22.6353 5.47409 23.2846C5.0737 23.9334 5.03867 24.7273 5.38025 25.4086L7.23393 29.1059C6.41626 29.1222 5.68742 29.5839 5.32332 30.319C4.95296 31.0672 5.03679 31.9456 5.54291 32.61L7.1526 34.7227C6.02338 35.4941 4.98549 36.4093 4.06897 37.4535C1.44516 40.4408 0 44.2783 0 48.259C0 51.668 1.03789 54.9368 3.00043 57.7114C3.23441 58.0423 3.60539 58.2193 3.98201 58.2193C4.22162 58.2193 4.46373 58.1474 4.67456 57.9985C5.21634 57.6156 5.34459 56.8662 4.96172 56.3244C3.28758 53.9577 2.40234 51.1687 2.40234 48.259ZM7.72316 31.507H9.17958C9.59624 31.507 9.98286 31.2912 10.2018 30.9365C10.4202 30.5824 10.4402 30.1401 10.2531 29.7672L7.6875 24.6497H9.33911C9.7614 24.6497 10.1524 24.4283 10.3695 24.066C10.5866 23.7044 10.5978 23.2552 10.3989 22.883L8.75166 19.7987H15.5064L18.2365 24.9957C16.2177 27.0371 14.578 29.455 13.4306 32.1408C11.9742 32.4067 10.5697 32.8721 9.25027 33.5115L7.72316 31.507Z" fill="#0BD5FE"/>
<path d="M73.909 43.3017C73.9246 42.9995 73.9327 42.6986 73.9327 42.4008C73.9327 38.2098 72.4519 34.3592 69.9864 31.3425L75.1483 24.5665C75.6544 23.9021 75.7382 23.0244 75.3679 22.2755C75.0038 21.5404 74.2743 21.0787 73.4573 21.0625L75.3109 17.3657C75.6525 16.6838 75.6175 15.8899 75.2171 15.2412C74.8167 14.5924 74.1223 14.2051 73.3597 14.2051H73.3553L74.2318 12.5648C74.5965 11.8822 74.5765 11.0783 74.1786 10.4146C73.7807 9.75079 73.0813 9.35416 72.3068 9.35416H65.0522C64.2383 9.35416 63.4982 9.80147 63.1203 10.5215L58.1029 20.0715C57.7451 20.7534 57.7688 21.5548 58.1673 22.2148C58.5659 22.8742 59.264 23.2684 60.0354 23.2684H61.5675L60.5935 25.3998C59.2584 25.0732 57.8645 24.8981 56.43 24.8981C56.2342 24.8981 56.0378 24.9043 55.8413 24.9106C55.8032 24.8049 55.76 24.6998 55.7093 24.5965C55.1994 23.5674 54.1691 22.928 53.0211 22.928H51.4827L55.6067 14.7019C56.0765 13.7653 56.0284 12.6736 55.4778 11.7822C54.9273 10.89 53.9732 10.3576 52.9254 10.3576H51.2475L53.641 5.87827C54.1422 4.93985 54.1146 3.8344 53.5679 2.92226C53.0204 2.00949 52.0589 1.46521 50.9947 1.46521H37.6949C36.5769 1.46521 35.5597 2.07956 35.0398 3.06927L33.442 6.10974C33.1335 6.69719 33.3594 7.42352 33.9468 7.73195C34.5343 8.04038 35.2606 7.81453 35.569 7.22708L37.1662 4.18662C37.2701 3.99017 37.4728 3.86755 37.6949 3.86755H50.9947C51.3006 3.86755 51.4552 4.07025 51.5071 4.15784C51.5596 4.2448 51.666 4.4769 51.5221 4.74654L48.1845 10.9933C47.9855 11.3655 47.9968 11.8153 48.2139 12.1769C48.431 12.5391 48.822 12.7606 49.2443 12.7606H52.9254C53.2263 12.7606 53.3814 12.9589 53.434 13.044C53.4865 13.1291 53.5941 13.3568 53.4596 13.6258L48.4635 23.5912C48.2764 23.964 48.2958 24.4063 48.5148 24.7604C48.7338 25.1152 49.1204 25.331 49.537 25.331H53.0211C53.3558 25.331 53.5072 25.5637 53.5566 25.6632C53.606 25.7633 53.6992 26.0242 53.4965 26.2907L49.0872 32.0782C48.685 32.6062 48.7869 33.3601 49.315 33.7617C49.532 33.9275 49.7879 34.0076 50.0419 34.0076C50.4041 34.0076 50.762 33.8443 50.9985 33.534L55.4071 27.7465C55.5104 27.6113 55.5992 27.4687 55.6768 27.3217C55.9277 27.3092 56.1798 27.301 56.4306 27.301C64.7563 27.301 71.5304 34.0752 71.5304 42.4014C71.5304 42.9551 71.4985 43.5206 71.4359 44.083C70.9761 46.9827 69.6279 49.6854 67.5352 51.9007C67.0792 52.383 67.1011 53.1431 67.5834 53.5992C67.8155 53.8182 68.112 53.927 68.408 53.927C68.7264 53.927 69.0448 53.8007 69.2813 53.551C71.4071 51.3007 72.8717 48.6093 73.5624 45.7046C77.1202 46.8263 79.597 50.1314 79.597 53.9596C79.597 58.7355 75.712 62.6205 70.9361 62.6205C69.1086 62.6205 67.3594 62.0562 65.878 60.9877C65.4407 60.6724 64.8464 60.6874 64.4259 61.024C61.926 63.0215 58.9106 64.0769 55.7049 64.0769C52.9992 64.0769 50.3741 63.3031 48.1132 61.8379C47.816 61.6452 47.4481 61.5939 47.1091 61.6971C46.77 61.801 46.4941 62.0487 46.3552 62.3753C44.153 67.5428 39.1012 70.8823 33.4851 70.8823C28.0048 70.8823 23.0143 67.6629 20.749 62.6749C18.9916 57.854 20.0539 52.51 23.5248 48.7226C23.9727 48.234 23.9396 47.4739 23.4503 47.0259C22.9611 46.5774 22.2016 46.6105 21.7531 47.0997C17.9975 51.1981 16.6437 56.848 18.0651 62.1407C17.5077 62.2076 16.9465 62.2426 16.3847 62.2426C13.5019 62.2426 10.7329 61.3718 8.37813 59.7239C7.83448 59.3436 7.08562 59.4762 6.70525 60.0192C6.32488 60.5629 6.45751 61.3117 7.00116 61.6921C9.76136 63.624 13.0064 64.645 16.3853 64.645C17.2399 64.645 18.0951 64.5787 18.9384 64.446C21.7437 69.8457 27.3529 73.2847 33.4851 73.2847C37.753 73.2847 41.7419 71.6374 44.723 68.8291C50.934 70.3468 55.2626 73.4511 57.5912 78.0612C58.4664 79.7935 60.2006 80.8696 62.1174 80.8696C63.9098 80.8696 65.5302 79.9512 66.451 78.4128C67.3726 76.875 67.417 75.0132 66.5705 73.4329L62.1393 65.1574C63.2229 64.6957 64.2583 64.1201 65.2217 63.4326C66.944 64.4761 68.9022 65.0235 70.9367 65.0235C77.037 65.0235 82 60.0599 82 53.9596C82 48.934 78.6573 44.6148 73.909 43.3017ZM62.8982 26.1374L64.5304 22.5664C64.7006 22.1948 64.6693 21.7619 64.4485 21.4178C64.2276 21.0737 63.8466 20.866 63.4375 20.866H60.3995L65.1854 11.7565H71.9402L70.2923 14.8401C70.0934 15.2124 70.1046 15.6622 70.3217 16.0238C70.5388 16.386 70.9298 16.6075 71.3521 16.6075H73.0037L70.4381 21.725C70.2516 22.0972 70.271 22.5401 70.49 22.8942C70.7083 23.249 71.095 23.4648 71.5116 23.4648H72.968L68.3185 29.5676C66.7501 28.1137 64.9164 26.9426 62.8982 26.1374ZM64.4528 74.5659C64.8964 75.3942 64.8733 76.3708 64.3903 77.1772C63.9067 77.9843 63.0577 78.4653 62.1174 78.4653C61.1121 78.4653 60.1993 77.8954 59.7357 76.977C57.2371 72.0284 52.7971 68.6189 46.5279 66.8221C47.0684 66.1108 47.5557 65.3507 47.9805 64.5461C50.3478 65.8136 52.9923 66.4787 55.7056 66.4787C57.1051 66.4787 58.4933 66.2941 59.8358 65.9438L64.4528 74.5659Z" fill="#0BD5FE"/>
<path d="M38.9104 54.3098H38.8979C38.2347 54.3136 37.7067 54.8547 37.7105 55.5185C37.7149 56.1792 38.2579 56.7115 38.9179 56.7115H38.9254C39.5886 56.7078 40.1235 56.1666 40.1191 55.5029C40.1147 54.8422 39.5779 54.3092 38.9179 54.3092C38.9154 54.3098 38.9129 54.3098 38.9104 54.3098Z" fill="#0BD5FE"/>
<path d="M41.6393 56.5364H41.6268C40.9636 56.5408 40.4356 57.0819 40.4394 57.7451C40.4438 58.4063 40.9868 58.9387 41.6468 58.9387H41.6543C42.3175 58.935 42.8524 58.3938 42.848 57.73C42.8436 57.0694 42.3068 56.5364 41.6468 56.5364C41.6443 56.5364 41.6418 56.5364 41.6393 56.5364Z" fill="#0BD5FE"/>
<path d="M34.5737 58.6185C33.9105 58.6228 33.3825 59.164 33.3863 59.8271C33.3906 60.4884 33.9337 61.0208 34.5937 61.0208H34.6012C35.2643 61.017 35.7992 60.4759 35.7949 59.8121C35.7905 59.149 35.2543 58.6122 34.5862 58.6185H34.5737Z" fill="#0BD5FE"/>
<path d="M73.8344 58.7141C73.8344 58.0503 73.297 57.5129 72.6332 57.5129H72.6207C71.9576 57.5129 71.4258 58.0503 71.4258 58.7141C71.4258 59.3773 71.9701 59.9153 72.6332 59.9153C73.297 59.9153 73.8344 59.3773 73.8344 58.7141Z" fill="#0BD5FE"/>
<path d="M67.1804 38.7603C67.1804 38.0965 66.6424 37.5591 65.9792 37.5591H65.9667C65.3029 37.5591 64.7718 38.0965 64.7718 38.7603C64.7718 39.4234 65.3154 39.9614 65.9792 39.9614C66.6424 39.9614 67.1804 39.4234 67.1804 38.7603Z" fill="#0BD5FE"/>
<path d="M15.0371 47.6489C14.3734 47.6489 13.8422 48.1863 13.8422 48.8501C13.8422 49.5132 14.3859 50.0513 15.0497 50.0513C15.7128 50.0513 16.2508 49.5132 16.2508 48.8501C16.2508 48.1863 15.7128 47.6489 15.0497 47.6489H15.0371Z" fill="#0BD5FE"/>
<path d="M26.691 28.7975C26.0278 28.7975 25.4961 29.3355 25.4961 29.9987C25.4961 30.6618 26.0404 31.1998 26.7035 31.1998C27.3673 31.1998 27.9047 30.6618 27.9047 29.9987C27.9047 29.3355 27.3673 28.7975 26.7035 28.7975H26.691Z" fill="#0BD5FE"/>
</svg>
