<svg width="40" height="40" viewBox="0 0 40 40" fill="none" xmlns="http://www.w3.org/2000/svg">
<path d="M11.8 16.2L9 19L18 28L38 8L35.2 5.2L18 22.4L11.8 16.2ZM36 20C36 28.8 28.8 36 20 36C11.2 36 4 28.8 4 20C4 11.2 11.2 4 20 4C21.6 4 23 4.2 24.4 4.6L27.6001 1.4C25.2 0.6 22.6 0 20 0C9 0 0 9 0 20C0 31 9 40 20 40C31 40 40 31 40 20H36Z" fill="url(#paint0_linear)"/>
<defs>
<linearGradient id="paint0_linear" x1="20" y1="0" x2="20" y2="40" gradientUnits="userSpaceOnUse">
<stop stop-color="#38EF7D"/>
<stop offset="1" stop-color="#11998E"/>
</linearGradient>
</defs>
</svg>
