<svg width="31" height="32" viewBox="0 0 31 32" fill="none" xmlns="http://www.w3.org/2000/svg">
<path d="M17.7562 15.9776L30.4968 29.0719C31.1076 29.6968 31.1076 30.7083 30.4968 31.3316C29.8875 31.9564 28.8979 31.9564 28.2886 31.3316L15.5589 18.2484L2.71154 31.5266C2.10226 32.1578 1.11264 32.1578 0.503361 31.5266C-0.105917 30.8938 -0.105917 29.8695 0.503361 29.2382L13.3414 15.9696L0.456958 2.72829C-0.152319 2.10344 -0.152319 1.0919 0.456958 0.468641C1.06624 -0.156212 2.05586 -0.156212 2.66514 0.468641L15.5386 13.6988L28.3349 0.473423C28.9441 -0.157806 29.9338 -0.157806 30.543 0.473423C31.1523 1.10625 31.1523 2.13054 30.543 2.76177L17.7562 15.9776Z" fill="#9575CD"/>
</svg>
