<svg width="75" height="73" viewBox="0 0 75 73" fill="none" xmlns="http://www.w3.org/2000/svg">
<g clip-path="url(#clip0)">
<path fill-rule="evenodd" clip-rule="evenodd" d="M70.2737 30.0077C69.4646 30.0077 68.8088 30.646 68.8088 31.4335V40.7517H6.29889V31.4335C6.29889 30.646 5.64314 30.0077 4.83405 30.0077C4.02495 30.0077 3.3692 30.646 3.3692 31.4335V42.1775C3.3692 42.965 4.02495 43.6033 4.83405 43.6033H36.089V57.5565L22.7229 70.5661C22.1512 71.1225 22.1512 72.0253 22.7229 72.5823C23.009 72.8608 23.3838 73 23.7591 73C24.1339 73 24.5087 72.8608 24.7948 72.5823L36.089 61.5893V71.5742C36.089 72.3617 36.7448 73 37.5539 73C38.3624 73 39.0187 72.3617 39.0187 71.5742V61.5899L50.3123 72.5823C50.5984 72.8608 50.9732 73 51.3486 73C51.7234 73 52.0981 72.8608 52.3843 72.5823C52.9559 72.0259 52.9559 71.1231 52.3843 70.5661L39.0187 57.557V43.6033H70.2731C71.0822 43.6033 71.7379 42.965 71.7379 42.1775V31.4335C71.7385 30.646 71.0822 30.0077 70.2737 30.0077Z" fill="#0BD5FE"/>
<path fill-rule="evenodd" clip-rule="evenodd" d="M70.2737 0H4.83405C4.02495 0 3.3692 0.63826 3.3692 1.42578V20.0272C3.3692 20.8142 4.02495 21.453 4.83405 21.453C5.64314 21.453 6.29889 20.8142 6.29889 20.0272V10.7084H68.8082V20.0272C68.8082 20.8142 69.4646 21.453 70.2731 21.453C71.0822 21.453 71.7379 20.8142 71.7379 20.0272V1.42578C71.7385 0.63826 71.0822 0 70.2737 0ZM6.29889 7.85683V2.85156H68.8082V7.85683H6.29889Z" fill="#0BD5FE"/>
<path fill-rule="evenodd" clip-rule="evenodd" d="M29.5893 36.1074C29.8417 36.1074 30.0952 36.0439 30.3217 35.9163L46.2508 26.9645C46.704 26.71 46.9832 26.2394 46.9832 25.7303C46.9832 25.2207 46.704 24.7501 46.2508 24.4956L30.3217 15.5438C29.868 15.2893 29.3101 15.2893 28.8569 15.5438C28.4037 15.7983 28.1245 16.2695 28.1245 16.7785V34.6816C28.1245 35.1912 28.4037 35.6618 28.8569 35.9163C29.0835 36.0439 29.3358 36.1074 29.5893 36.1074ZM31.0542 19.248L42.5887 25.7303L31.0542 32.2121V19.248Z" fill="#0BD5FE"/>
<path fill-rule="evenodd" clip-rule="evenodd" d="M4.83405 27.1561C5.64085 27.1561 6.29889 26.5156 6.29889 25.7303C6.29889 24.9445 5.64085 24.3046 4.83405 24.3046C4.02724 24.3046 3.3692 24.9445 3.3692 25.7303C3.3692 26.5156 4.02781 27.1561 4.83405 27.1561Z" fill="#0BD5FE"/>
<path fill-rule="evenodd" clip-rule="evenodd" d="M70.2736 24.3046C69.4662 24.3046 68.8088 24.9445 68.8088 25.7303C68.8088 26.5156 69.4662 27.1561 70.2736 27.1561C71.0804 27.1561 71.7385 26.5156 71.7385 25.7303C71.7385 24.9445 71.0804 24.3046 70.2736 24.3046Z" fill="#0BD5FE"/>
</g>
<defs>
<clipPath id="clip0">
<rect width="75" height="73" fill="white"/>
</clipPath>
</defs>
</svg>
