<svg width="80" height="83" viewBox="0 0 80 83" fill="none" xmlns="http://www.w3.org/2000/svg">
<g clip-path="url(#clip0)">
<path d="M13.1372 43.4055C12.1887 42.3201 12.1887 40.6832 13.1366 39.5972C20.5335 31.1276 30.0452 26.4631 39.9194 26.4631C49.7925 26.4631 59.3048 31.1276 66.7035 39.5972C67.652 40.6832 67.652 42.3201 66.7035 43.4061C65.4718 44.8151 64.151 46.1487 62.7771 47.3696C62.2858 47.8065 61.546 47.747 61.1249 47.2372C60.7043 46.7268 60.7611 45.9593 61.2524 45.5224C62.5513 44.368 63.8013 43.1066 64.967 41.7723C65.1019 41.6178 65.1019 41.3848 64.967 41.2303C58.0182 33.2755 49.1229 28.8948 39.9194 28.8948C30.7153 28.8948 21.8207 33.2755 14.8737 41.2297C14.7382 41.3848 14.7382 41.6178 14.8737 41.7723C21.8213 49.7252 30.7159 54.1053 39.9194 54.1053C46.0193 54.1053 51.8506 52.2639 57.2516 48.6322C57.7948 48.2675 58.5199 48.4277 58.8721 48.9919C59.2242 49.5549 59.0692 50.3078 58.526 50.6732C52.821 54.5093 46.3867 56.537 39.9194 56.537C30.0464 56.537 20.5347 51.8732 13.1372 43.4055Z" fill="#0BD5FE"/>
<path d="M4.95666 62.0087C6.00585 61.5578 7.20214 61.8048 8.00476 62.6375L11.8207 66.5965C12.2778 67.0708 12.2778 67.8408 11.8207 68.3157C11.3629 68.7907 10.6207 68.7907 10.163 68.3157L6.34704 64.3567C6.16149 64.1636 5.95886 64.2098 5.85388 64.2548C5.74951 64.2997 5.57434 64.4156 5.57434 64.6885V76.6637C5.57434 76.9234 5.77758 77.1336 6.02722 77.1336H17.5696C17.8326 77.1336 17.9443 76.9519 17.9877 76.8436C18.031 76.7353 18.0756 76.5251 17.8894 76.3319L13.7714 72.0595C13.3142 71.5845 13.3142 70.8151 13.7714 70.3402C14.2291 69.8653 14.9713 69.8653 15.4291 70.3402L19.5471 74.6127C20.3497 75.4454 20.5872 76.6865 20.1532 77.7745C19.7186 78.8624 18.7048 79.5653 17.5696 79.5653H6.02722C4.48486 79.5653 3.23058 78.2639 3.23058 76.6637V64.6885C3.23058 63.5113 3.90808 62.4589 4.95666 62.0087Z" fill="#0BD5FE"/>
<path d="M2.79358 9.30039C1.25122 9.30039 -0.00305176 7.99908 -0.00305176 6.39952V2.9015C-0.00305176 1.30131 1.25122 0 2.79358 0H6.16516C7.70691 0 8.96118 1.30131 8.96118 2.9015V3.43469H35.4382V2.9015C35.4382 1.30131 36.6925 0 38.2343 0H41.6058C43.1482 0 44.4025 1.30131 44.4025 2.9015V3.43469H70.8795V2.9015C70.8795 1.30131 72.1338 0 73.6755 0H77.0471C78.5895 0 79.8438 1.30131 79.8438 2.9015V6.39952C79.8438 7.99908 78.5895 9.30039 77.0477 9.30039H76.6101V36.8495H77.0477C78.5895 36.8495 79.8438 38.1508 79.8438 39.751V43.249C79.8438 44.8486 78.5895 46.1505 77.0477 46.1505H76.6101V73.699H77.0477C78.5895 73.699 79.8438 75.0003 79.8438 76.6005V80.0985C79.8438 81.6987 78.5895 83 77.0471 83H73.6755C72.1338 83 70.8795 81.6987 70.8795 80.0985V79.5653H44.4025V80.0985C44.4025 81.6987 43.1482 83 41.6064 83H38.2349C36.6925 83 35.4382 81.6987 35.4382 80.0985V76.6005C35.4382 75.0009 36.6925 73.6996 38.2349 73.6996H41.6064C43.1482 73.6996 44.4025 75.0009 44.4025 76.6005V77.1337H70.8795V76.6005C70.8795 75.0009 72.1338 73.6996 73.6755 73.6996H74.2664V46.1505H73.6755C72.1338 46.1505 70.8795 44.8492 70.8795 43.249V39.751C70.8795 38.1508 72.1338 36.8495 73.6755 36.8495H74.2664V9.30039H73.6755C72.1338 9.30039 70.8795 7.99908 70.8795 6.39952V5.86633H44.4025V6.39952C44.4025 7.99908 43.1482 9.30039 41.6064 9.30039H38.2349C36.6925 9.30039 35.4382 7.99908 35.4382 6.39952V5.86633H8.96179V6.39952C8.96179 7.99908 7.70752 9.30039 6.16516 9.30039H5.57495V36.8495H6.16516C7.70752 36.8495 8.96179 38.1508 8.96179 39.751V43.249C8.96179 44.8486 7.70752 46.1505 6.16516 46.1505H2.79358C1.25183 46.1505 -0.00244141 44.8486 -0.00244141 43.249V39.751C-0.00244141 38.1508 1.25183 36.8495 2.79358 36.8495H3.2312V9.30039H2.79358ZM42.0587 76.6005C42.0587 76.3415 41.8561 76.1312 41.6064 76.1312H38.2349C37.9852 76.1312 37.782 76.3415 37.782 76.6005V80.0985C37.782 80.3575 37.9852 80.5684 38.2349 80.5684H41.6064C41.8561 80.5684 42.0587 80.3575 42.0587 80.0985V76.6005ZM73.6755 76.1312C73.4259 76.1312 73.2233 76.3415 73.2233 76.6005V80.0985C73.2233 80.3575 73.4259 80.5684 73.6755 80.5684H77.0471C77.2968 80.5684 77.5 80.3575 77.5 80.0985V76.6005C77.5 76.3415 77.2968 76.1312 77.0471 76.1312H73.6755ZM73.6755 39.2811C73.4259 39.2811 73.2233 39.492 73.2233 39.751V43.249C73.2233 43.508 73.4259 43.7189 73.6755 43.7189H77.0471C77.2968 43.7189 77.5 43.508 77.5 43.249V39.751C77.5 39.492 77.2968 39.2811 77.0471 39.2811H73.6755ZM73.2233 6.39952C73.2233 6.65852 73.4259 6.86875 73.6755 6.86875H77.0471C77.2968 6.86875 77.5 6.65852 77.5 6.39952V2.9015C77.5 2.64251 77.2968 2.43164 77.0471 2.43164H73.6755C73.4259 2.43164 73.2233 2.64251 73.2233 2.9015V6.39952ZM37.782 6.39952C37.782 6.65852 37.9846 6.86875 38.2343 6.86875H41.6058C41.8555 6.86875 42.0587 6.65852 42.0587 6.39952V2.9015C42.0587 2.64251 41.8555 2.43164 41.6058 2.43164H38.2343C37.9846 2.43164 37.782 2.64251 37.782 2.9015V6.39952ZM2.79358 39.2811C2.54395 39.2811 2.3407 39.492 2.3407 39.751V43.249C2.3407 43.508 2.54395 43.7189 2.79358 43.7189H6.16516C6.41479 43.7189 6.61743 43.508 6.61743 43.249V39.751C6.61743 39.492 6.41479 39.2811 6.16516 39.2811H2.79358ZM6.16516 6.86875C6.41479 6.86875 6.61743 6.65852 6.61743 6.39952V2.9015C6.61743 2.64251 6.41479 2.43164 6.16516 2.43164H2.79358C2.54395 2.43164 2.3407 2.64251 2.3407 2.9015V6.39952C2.3407 6.65852 2.54395 6.86875 2.79358 6.86875H6.16516Z" fill="#0BD5FE"/>
<path d="M31.6736 39.7669C31.546 40.4248 30.9278 40.8516 30.2936 40.7186C29.6588 40.5857 29.2487 39.9448 29.3762 39.2869C30.3821 34.1026 34.8169 30.3398 39.9201 30.3398C45.8514 30.3398 50.6769 35.3462 50.6769 41.5001C50.6769 47.6539 45.8514 52.6603 39.9201 52.6603C35.3735 52.6603 31.2988 49.6733 29.7803 45.2273C29.5642 44.5947 29.8834 43.8994 30.4938 43.6752C31.1041 43.4511 31.7737 43.7823 31.9898 44.4149C33.1769 47.892 36.3641 50.2286 39.9201 50.2286C44.5593 50.2286 48.3331 46.3127 48.3331 41.5001C48.3331 36.6868 44.5593 32.7715 39.9201 32.7715C35.9284 32.7715 32.4603 35.7135 31.6736 39.7669Z" fill="#0BD5FE"/>
<path d="M37.8784 35.3278C39.0277 35.3278 40.0354 35.9597 40.6036 36.9039C42.7521 37.2458 44.4025 39.1766 44.4025 41.4999C44.4025 44.0646 42.392 46.1505 39.92 46.1505C37.4487 46.1505 35.4382 44.0646 35.4382 41.4999C35.4382 41.2903 35.4529 41.0814 35.4797 40.8743C34.9744 40.2854 34.6643 39.5116 34.6643 38.6624C34.6643 36.8235 36.106 35.3278 37.8784 35.3278ZM37.8784 37.7594C37.3987 37.7594 37.0081 38.1647 37.0081 38.6624C37.0081 39.1601 37.3987 39.5654 37.8784 39.5654C38.3582 39.5654 38.7482 39.1601 38.7482 38.6624C38.7482 38.1647 38.3582 37.7594 37.8784 37.7594ZM39.92 43.7188C41.0992 43.7188 42.0587 42.7234 42.0587 41.4999C42.0587 40.6717 41.6187 39.9491 40.9686 39.5679C40.5872 40.9674 39.3475 41.9964 37.8784 41.9964C37.8644 41.9964 37.851 41.9945 37.8375 41.9945C38.0548 42.9805 38.905 43.7188 39.92 43.7188Z" fill="#0BD5FE"/>
<path d="M39.9188 22.9138H39.9158C39.2688 22.9125 38.7457 22.3667 38.747 21.6948L38.7506 20.3511C38.7518 19.6805 39.2761 19.1384 39.9225 19.1384C39.9231 19.1384 39.9243 19.1384 39.9249 19.1384C40.5725 19.1403 41.0956 19.6855 41.0944 20.3574L41.0907 21.7011C41.0889 22.3717 40.5646 22.9138 39.9188 22.9138Z" fill="#0BD5FE"/>
<path d="M43.0151 23.5039C42.8156 23.5039 42.6129 23.4507 42.428 23.3393C41.8683 23.0024 41.6779 22.2583 42.0026 21.6777L42.6532 20.515C42.9779 19.9344 43.6951 19.7374 44.2548 20.0743C44.8145 20.4112 45.0049 21.1552 44.6802 21.7359L44.0295 22.8986C43.8123 23.2867 43.4192 23.5039 43.0151 23.5039Z" fill="#0BD5FE"/>
<path d="M36.82 23.4881C36.4142 23.4881 36.0193 23.269 35.8026 22.8771L35.1574 21.7119C34.8352 21.1299 35.0293 20.3865 35.5908 20.0522C36.1517 19.7178 36.8683 19.9192 37.1905 20.5018L37.8351 21.6669C38.1573 22.2489 37.9632 22.9923 37.4023 23.3267C37.2186 23.4362 37.0178 23.4881 36.82 23.4881Z" fill="#0BD5FE"/>
<path d="M39.9219 60.0862C39.9225 60.0862 39.9237 60.0862 39.9249 60.0862C40.5719 60.0874 41.095 60.6333 41.0937 61.3052L41.0901 62.6489C41.0889 63.3195 40.5646 63.8615 39.9182 63.8615H39.9158C39.2682 63.8596 38.7451 63.3144 38.7463 62.6426L38.75 61.2988C38.7518 60.6282 39.2755 60.0862 39.9219 60.0862Z" fill="#0BD5FE"/>
<path d="M35.8112 60.1013C36.1359 59.5207 36.8531 59.3237 37.4128 59.6606C37.9725 59.9975 38.1629 60.7416 37.8382 61.3222L37.1875 62.4849C36.9703 62.873 36.5772 63.0902 36.1731 63.0902C35.9735 63.0902 35.7709 63.0371 35.586 62.9256C35.0263 62.5887 34.8359 61.8447 35.1606 61.264L35.8112 60.1013Z" fill="#0BD5FE"/>
<path d="M44.0381 60.1224L44.6832 61.2882C45.0049 61.8701 44.8114 62.6136 44.2499 62.9479C44.0661 63.0575 43.8653 63.1094 43.6676 63.1094C43.2617 63.1094 42.8668 62.8897 42.6501 62.4983L42.0056 61.3331C41.6833 60.7506 41.8768 60.0078 42.4383 59.6734C42.9993 59.3391 43.7158 59.5404 44.0381 60.1224Z" fill="#0BD5FE"/>
</g>
<defs>
<clipPath id="clip0">
<rect width="80" height="83" transform="matrix(-1 0 0 1 80 0)" fill="white"/>
</clipPath>
</defs>
</svg>
