<svg width="53" height="53" viewBox="0 0 53 53" fill="none" xmlns="http://www.w3.org/2000/svg">
<path d="M40.5781 26.5H27.3281V21.5313H34.7813C35.6598 21.5313 36.5023 21.1823 37.1235 20.561C37.7448 19.9398 38.0938 19.0973 38.0938 18.2188C38.0938 17.3402 37.7448 16.4977 37.1235 15.8765C36.5023 15.2552 35.6598 14.9063 34.7813 14.9063H18.2188C17.7795 14.9063 17.3582 14.7318 17.0476 14.4211C16.737 14.1105 16.5625 13.6893 16.5625 13.25C16.5625 12.8107 16.737 12.3895 17.0476 12.0789C17.3582 11.7682 17.7795 11.5938 18.2188 11.5938H26.5C26.7196 11.5938 26.9303 11.5065 27.0856 11.3512C27.2409 11.1959 27.3281 10.9853 27.3281 10.7656V5.79688C27.3281 5.57724 27.2409 5.36661 27.0856 5.2113C26.9303 5.056 26.7196 4.96875 26.5 4.96875C26.2804 4.96875 26.0697 5.056 25.9144 5.2113C25.7591 5.36661 25.6719 5.57724 25.6719 5.79688V9.9375H18.2188C17.3402 9.9375 16.4977 10.2865 15.8765 10.9077C15.2552 11.5289 14.9063 12.3715 14.9063 13.25C14.9063 14.1285 15.2552 14.9711 15.8765 15.5923C16.4977 16.2135 17.3402 16.5625 18.2188 16.5625H34.7813C35.2205 16.5625 35.6418 16.737 35.9524 17.0476C36.263 17.3582 36.4375 17.7795 36.4375 18.2188C36.4375 18.658 36.263 19.0793 35.9524 19.3899C35.6418 19.7005 35.2205 19.875 34.7813 19.875H26.5C26.2804 19.875 26.0697 19.9622 25.9144 20.1176C25.7591 20.2729 25.6719 20.4835 25.6719 20.7031V26.5H12.4219C10.5122 26.5003 8.6369 27.0086 6.98844 27.9727C5.33997 28.9369 3.97764 30.3222 3.04118 31.9865C2.10471 33.6509 1.62783 35.5343 1.65943 37.4438C1.69104 39.3532 2.23 41.2199 3.22103 42.8524C4.21206 44.4848 5.61949 45.8242 7.29896 46.7333C8.97843 47.6424 10.8695 48.0883 12.7782 48.0254C14.6868 47.9625 16.5444 47.393 18.1604 46.3754C19.7764 45.3577 21.0926 43.9285 21.974 42.2344H31.026C31.9074 43.9288 33.2236 45.3582 34.8396 46.3761C36.4557 47.394 38.3135 47.9636 40.2223 48.0266C42.1312 48.0896 44.0225 47.6437 45.7021 46.7346C47.3818 45.8255 48.7894 44.4859 49.7805 42.8533C50.7717 41.2207 51.3107 39.3538 51.3422 37.4442C51.3738 35.5345 50.8968 33.6508 49.9601 31.9864C49.0235 30.3219 47.6609 28.9366 46.0122 27.9724C44.3635 27.0083 42.488 26.5001 40.5781 26.5ZM35.5266 28.1563C35.3344 29.0909 34.8259 29.9307 34.0867 30.5341C33.3475 31.1375 32.4229 31.4676 31.4688 31.4688H21.5313C20.5772 31.4675 19.6527 31.1374 18.9136 30.534C18.1745 29.9306 17.6661 29.0908 17.474 28.1563H35.5266ZM40.5781 46.375C38.8343 46.3717 37.1279 45.8696 35.6601 44.928C34.1924 43.9864 33.0247 42.6445 32.2948 41.0608C32.2287 40.9168 32.1227 40.7948 31.9893 40.7092C31.8559 40.6236 31.7007 40.5781 31.5422 40.5781H21.4578C21.2993 40.5781 21.1441 40.6236 21.0107 40.7092C20.8773 40.7947 20.7712 40.9168 20.7051 41.0608C20.0239 42.5477 18.9551 43.8238 17.6107 44.7551C16.2664 45.6865 14.6961 46.2388 13.0647 46.354C11.4333 46.4693 9.80094 46.1432 8.339 45.4101C6.87705 44.677 5.6394 43.5639 4.75596 42.1876C3.87252 40.8113 3.37587 39.2225 3.31814 37.5881C3.26041 35.9536 3.64372 34.3338 4.42785 32.8985C5.21197 31.4633 6.36799 30.2656 7.77457 29.4312C9.18115 28.5968 10.7864 28.1564 12.4219 28.1563H15.7945C15.9952 29.5351 16.6852 30.7957 17.7384 31.708C18.7917 32.6202 20.1379 33.1232 21.5313 33.125H31.4688C32.8621 33.1232 34.2083 32.6202 35.2616 31.708C36.3148 30.7957 37.0048 29.5351 37.2055 28.1563H40.5781C42.9941 28.1563 45.3111 29.116 47.0194 30.8243C48.7278 32.5327 49.6875 34.8497 49.6875 37.2656C49.6875 39.6816 48.7278 41.9986 47.0194 43.7069C45.3111 45.4153 42.9941 46.375 40.5781 46.375Z" fill="#0BD5FE"/>
<path d="M24.8438 36.4375H21.5312C21.3116 36.4375 21.101 36.5247 20.9457 36.6801C20.7904 36.8354 20.7031 37.046 20.7031 37.2656C20.7031 37.4853 20.7904 37.6959 20.9457 37.8512C21.101 38.0065 21.3116 38.0938 21.5312 38.0938H24.8438C25.0634 38.0938 25.274 38.0065 25.4293 37.8512C25.5846 37.6959 25.6719 37.4853 25.6719 37.2656C25.6719 37.046 25.5846 36.8354 25.4293 36.6801C25.274 36.5247 25.0634 36.4375 24.8438 36.4375Z" fill="#0BD5FE"/>
<path d="M31.4688 36.4375H28.1562C27.9366 36.4375 27.726 36.5247 27.5707 36.6801C27.4154 36.8354 27.3281 37.046 27.3281 37.2656C27.3281 37.4853 27.4154 37.6959 27.5707 37.8512C27.726 38.0065 27.9366 38.0938 28.1562 38.0938H31.4688C31.6884 38.0938 31.899 38.0065 32.0543 37.8512C32.2096 37.6959 32.2969 37.4853 32.2969 37.2656C32.2969 37.046 32.2096 36.8354 32.0543 36.6801C31.899 36.5247 31.6884 36.4375 31.4688 36.4375Z" fill="#0BD5FE"/>
<path d="M15.7344 34.7812H14.9062V33.9531C14.9062 33.2942 14.6445 32.6623 14.1786 32.1964C13.7127 31.7305 13.0808 31.4688 12.4219 31.4688C11.763 31.4688 11.1311 31.7305 10.6652 32.1964C10.1992 32.6623 9.9375 33.2942 9.9375 33.9531V34.7812H9.10938C8.45048 34.7812 7.81857 35.043 7.35266 35.5089C6.88675 35.9748 6.625 36.6067 6.625 37.2656C6.625 37.9245 6.88675 38.5564 7.35266 39.0223C7.81857 39.4883 8.45048 39.75 9.10938 39.75H9.9375V40.5781C9.9375 41.237 10.1992 41.8689 10.6652 42.3348C11.1311 42.8008 11.763 43.0625 12.4219 43.0625C13.0808 43.0625 13.7127 42.8008 14.1786 42.3348C14.6445 41.8689 14.9062 41.237 14.9062 40.5781V39.75H15.7344C16.3933 39.75 17.0252 39.4883 17.4911 39.0223C17.957 38.5564 18.2188 37.9245 18.2188 37.2656C18.2188 36.6067 17.957 35.9748 17.4911 35.5089C17.0252 35.043 16.3933 34.7812 15.7344 34.7812ZM15.7344 38.0938H14.0781C13.8585 38.0938 13.6479 38.181 13.4926 38.3363C13.3372 38.4916 13.25 38.7022 13.25 38.9219V40.5781C13.25 40.7978 13.1628 41.0084 13.0074 41.1637C12.8521 41.319 12.6415 41.4062 12.4219 41.4062C12.2022 41.4062 11.9916 41.319 11.8363 41.1637C11.681 41.0084 11.5938 40.7978 11.5938 40.5781V38.9219C11.5938 38.7022 11.5065 38.4916 11.3512 38.3363C11.1959 38.181 10.9853 38.0938 10.7656 38.0938H9.10938C8.88974 38.0938 8.67911 38.0065 8.5238 37.8512C8.3685 37.6959 8.28125 37.4853 8.28125 37.2656C8.28125 37.046 8.3685 36.8354 8.5238 36.6801C8.67911 36.5247 8.88974 36.4375 9.10938 36.4375H10.7656C10.9853 36.4375 11.1959 36.3503 11.3512 36.1949C11.5065 36.0396 11.5938 35.829 11.5938 35.6094V33.9531C11.5938 33.7335 11.681 33.5229 11.8363 33.3676C11.9916 33.2122 12.2022 33.125 12.4219 33.125C12.6415 33.125 12.8521 33.2122 13.0074 33.3676C13.1628 33.5229 13.25 33.7335 13.25 33.9531V35.6094C13.25 35.829 13.3372 36.0396 13.4926 36.1949C13.6479 36.3503 13.8585 36.4375 14.0781 36.4375H15.7344C15.954 36.4375 16.1646 36.5247 16.3199 36.6801C16.4753 36.8354 16.5625 37.046 16.5625 37.2656C16.5625 37.4853 16.4753 37.6959 16.3199 37.8512C16.1646 38.0065 15.954 38.0938 15.7344 38.0938Z" fill="#0BD5FE"/>
<path d="M43.8906 34.7813C43.5198 34.7808 43.1537 34.864 42.8194 35.0244C43.0005 34.6457 43.0828 34.2273 43.0584 33.8082C43.0341 33.3891 42.9039 32.983 42.6801 32.6278C42.4563 32.2726 42.1462 31.9799 41.7786 31.7771C41.411 31.5743 40.9981 31.4679 40.5783 31.4679C40.1584 31.4679 39.7455 31.5743 39.3779 31.7771C39.0104 31.9799 38.7002 32.2726 38.4764 32.6278C38.2526 32.983 38.1224 33.3891 38.0981 33.8082C38.0737 34.2273 38.156 34.6457 38.3371 35.0244C37.9584 34.8433 37.54 34.761 37.1209 34.7854C36.7018 34.8097 36.2957 34.9399 35.9405 35.1637C35.5853 35.3875 35.2927 35.6976 35.0898 36.0652C34.887 36.4328 34.7806 36.8457 34.7806 37.2655C34.7806 37.6854 34.887 38.0983 35.0898 38.4659C35.2927 38.8334 35.5853 39.1436 35.9405 39.3674C36.2957 39.5912 36.7018 39.7214 37.1209 39.7457C37.54 39.7701 37.9584 39.6878 38.3371 39.5067C38.156 39.8854 38.0737 40.3038 38.0981 40.7229C38.1224 41.142 38.2526 41.5481 38.4764 41.9033C38.7002 42.2585 39.0104 42.5511 39.3779 42.754C39.7455 42.9568 40.1584 43.0632 40.5783 43.0632C40.9981 43.0632 41.411 42.9568 41.7786 42.754C42.1462 42.5511 42.4563 42.2585 42.6801 41.9033C42.9039 41.5481 43.0341 41.142 43.0584 40.7229C43.0828 40.3038 43.0005 39.8854 42.8194 39.5067C43.1558 39.6677 43.5243 39.7508 43.8973 39.75C44.2703 39.7492 44.6383 39.6644 44.9741 39.5019C45.3098 39.3394 45.6047 39.1033 45.8368 38.8113C46.0688 38.5193 46.2322 38.1787 46.3146 37.8149C46.3971 37.4512 46.3966 37.0735 46.3132 36.7099C46.2297 36.3463 46.0655 36.0062 45.8326 35.7148C45.5998 35.4234 45.3043 35.1882 44.9681 35.0266C44.6319 34.8649 44.2637 34.7811 43.8906 34.7813ZM40.5782 33.125C40.7419 33.125 40.902 33.1736 41.0382 33.2646C41.1744 33.3556 41.2806 33.4849 41.3432 33.6362C41.4059 33.7876 41.4223 33.9541 41.3904 34.1147C41.3584 34.2753 41.2795 34.4229 41.1637 34.5387C41.0479 34.6545 40.9004 34.7334 40.7397 34.7654C40.5791 34.7973 40.4126 34.7809 40.2612 34.7182C40.1099 34.6556 39.9806 34.5494 39.8896 34.4132C39.7986 34.277 39.75 34.1169 39.75 33.9531C39.7503 33.7336 39.8376 33.5231 39.9929 33.3678C40.1481 33.2126 40.3586 33.1253 40.5782 33.125ZM41.6494 36.1944C41.4893 36.5288 41.4062 36.8949 41.4062 37.2658C41.4062 37.6366 41.4893 38.0027 41.6494 38.3371C41.315 38.177 40.9489 38.0939 40.578 38.0939C40.2072 38.0939 39.8411 38.177 39.5067 38.3371C39.6668 38.0027 39.7499 37.6366 39.7499 37.2658C39.7499 36.8949 39.6668 36.5288 39.5067 36.1944C39.8411 36.3545 40.2072 36.4376 40.578 36.4376C40.9489 36.4376 41.315 36.3545 41.6494 36.1944ZM37.2657 38.0938C37.1019 38.0938 36.9418 38.0452 36.8056 37.9542C36.6694 37.8632 36.5632 37.7339 36.5006 37.5826C36.4379 37.4312 36.4215 37.2647 36.4534 37.1041C36.4854 36.9434 36.5643 36.7959 36.6801 36.6801C36.7959 36.5643 36.9435 36.4854 37.1041 36.4534C37.2647 36.4215 37.4312 36.4379 37.5826 36.5006C37.7339 36.5632 37.8632 36.6694 37.9542 36.8056C38.0452 36.9418 38.0938 37.1019 38.0938 37.2656C38.0935 37.4852 38.0062 37.6957 37.851 37.851C37.6957 38.0062 37.4852 38.0935 37.2657 38.0938ZM40.5782 41.4063C40.4144 41.4063 40.2543 41.3577 40.1181 41.2667C39.9819 41.1757 39.8757 41.0464 39.8131 40.8951C39.7504 40.7437 39.734 40.5772 39.7659 40.4166C39.7979 40.2559 39.8768 40.1084 39.9926 39.9926C40.1084 39.8768 40.256 39.7979 40.4166 39.7659C40.5772 39.734 40.7437 39.7504 40.8951 39.8131C41.0464 39.8757 41.1757 39.9819 41.2667 40.1181C41.3577 40.2543 41.4063 40.4144 41.4063 40.5781C41.406 40.7977 41.3187 41.0082 41.1635 41.1635C41.0082 41.3187 40.7977 41.406 40.5782 41.4063ZM43.8906 38.0938C43.7269 38.0938 43.5668 38.0452 43.4306 37.9542C43.2944 37.8632 43.1882 37.7339 43.1256 37.5826C43.0629 37.4312 43.0465 37.2647 43.0784 37.1041C43.1104 36.9434 43.1893 36.7959 43.3051 36.6801C43.4209 36.5643 43.5684 36.4854 43.7291 36.4534C43.8897 36.4215 44.0562 36.4379 44.2076 36.5006C44.3589 36.5632 44.4882 36.6694 44.5792 36.8056C44.6702 36.9418 44.7188 37.1019 44.7188 37.2656C44.7185 37.4852 44.6312 37.6957 44.476 37.851C44.3207 38.0062 44.1102 38.0935 43.8906 38.0938Z" fill="#0BD5FE"/>
</svg>
