<svg width="146" height="51" viewBox="0 0 146 51" fill="none" xmlns="http://www.w3.org/2000/svg">
<g clip-path="url(#clip0)">
<path d="M17.5693 50.1749L5.21618 35.1674H8.87719C11.1328 35.1674 12.9626 34.8737 14.3665 34.2863C15.4324 33.7754 16.3589 33.0144 17.0671 32.0681C17.8078 31.1387 18.2109 29.9854 18.2104 28.797C18.2007 27.7153 17.8661 26.6616 17.2499 25.7726C16.5532 24.7635 15.6068 23.9522 14.5031 23.4178C13.224 22.7868 11.812 22.4725 10.3861 22.5014H2.0596V50.1749H0V20.4374H10.3861C11.726 20.4259 13.0576 20.6496 14.3203 21.0983C15.5015 21.5162 16.5896 22.1612 17.5231 22.9971C18.3779 23.7494 19.071 24.6674 19.5607 25.6955C20.1397 26.9166 20.3712 28.2737 20.2298 29.6178C20.0884 30.9618 19.5794 32.241 18.7589 33.3149C17.8449 34.5695 16.6132 35.558 15.1903 36.1785C14.3141 36.5861 13.3801 36.8558 12.4215 36.9781C11.471 37.0887 10.5147 37.1424 9.55785 37.1389L20.3096 50.1793L17.5693 50.1749Z" fill="white"/>
<path d="M28.277 50.1748V20.4374H47.5381V22.5432H30.3344V34.2554H43.7405V36.3612H30.3344V48.0359H47.5381V50.1881L28.277 50.1748Z" fill="white"/>
<path d="M63.918 50.1749H55.3624V20.4374H63.918C65.9299 20.419 67.924 20.8164 69.7751 21.6049C71.5534 22.3623 73.1488 23.492 74.4538 24.9178C75.6983 26.2928 76.6701 27.8917 77.3174 29.6296C78.6596 33.2616 78.6596 37.2537 77.3174 40.8858C76.664 42.6345 75.6932 44.2476 74.4538 45.6437C73.1629 47.0931 71.5695 48.2413 69.7861 49.0074C67.9316 49.7973 65.9336 50.1948 63.918 50.1749ZM57.422 48.1153H63.918C67.6098 48.1153 70.6144 46.8186 72.9317 44.2252C74.0089 43.052 74.841 41.6755 75.379 40.1765C76.5098 37.0106 76.5098 33.5509 75.379 30.3851C74.8404 28.8863 74.0085 27.5099 72.9317 26.3364C70.5821 23.8047 67.5775 22.5388 63.918 22.5388H57.422V48.1153Z" fill="white"/>
<path d="M85.2849 50.1749L85.2386 20.4374H95.8538C97.5326 20.425 99.1893 20.8195 100.682 21.5873C102.097 22.2939 103.31 23.3482 104.207 24.6513C105.056 25.8867 105.511 27.3506 105.511 28.8498C105.511 30.349 105.056 31.813 104.207 33.0483C103.316 34.3615 102.102 35.4235 100.682 36.1322C99.1888 36.8977 97.532 37.29 95.8538 37.2754H87.3445V50.1793L85.2849 50.1749ZM87.3445 35.1211H95.8538C97.1678 35.1343 98.4672 34.8449 99.6514 34.2753C100.756 33.7595 101.712 32.972 102.429 31.9866C103.095 31.0788 103.452 29.9819 103.449 28.8564C103.459 27.7136 103.101 26.5979 102.429 25.6734C101.713 24.6897 100.761 23.9025 99.6602 23.3847C98.476 22.8151 97.1766 22.5257 95.8626 22.5389H87.2982L87.3445 35.1211Z" fill="white"/>
<path d="M113.002 50.1749V20.4374H115.062V50.1749H113.002Z" fill="white"/>
<path d="M146 20.433L135.385 35.3039L146 50.1749H143.484L134.149 37.0419L124.816 50.1749H122.3L132.916 35.3039L122.3 20.433H124.816L134.149 33.5659L143.484 20.433H146Z" fill="white"/>
<path d="M134.149 0L124.499 14.1088L134.149 28.2154L143.799 14.1088L134.149 0Z" fill="url(#paint0_linear)"/>
<path d="M134.149 0L125.342 12.8752L134.149 25.7505L142.958 12.8752L134.149 0Z" fill="url(#paint1_linear)"/>
<path d="M134.149 0L126.226 11.5844L134.149 23.171L142.075 11.5844L134.149 0Z" fill="url(#paint2_linear)"/>
</g>
<defs>
<linearGradient id="paint0_linear" x1="134.149" y1="0" x2="134.149" y2="28.2154" gradientUnits="userSpaceOnUse">
<stop stop-color="#D22026"/>
<stop offset="0.16" stop-color="#CE2025"/>
<stop offset="0.34" stop-color="#C11E23"/>
<stop offset="0.52" stop-color="#AB1C20"/>
<stop offset="0.71" stop-color="#8D191B"/>
<stop offset="0.9" stop-color="#671515"/>
<stop offset="1" stop-color="#4F1211"/>
</linearGradient>
<linearGradient id="paint1_linear" x1="134.149" y1="0" x2="134.149" y2="25.7505" gradientUnits="userSpaceOnUse">
<stop stop-color="#D22026"/>
<stop offset="0.38" stop-color="#D02026"/>
<stop offset="0.57" stop-color="#C81F24"/>
<stop offset="0.71" stop-color="#BB1D22"/>
<stop offset="0.84" stop-color="#A91A1E"/>
<stop offset="0.94" stop-color="#91171A"/>
<stop offset="1" stop-color="#811517"/>
</linearGradient>
<linearGradient id="paint2_linear" x1="134.149" y1="0" x2="134.149" y2="23.1688" gradientUnits="userSpaceOnUse">
<stop stop-color="#D22026"/>
<stop offset="0.29" stop-color="#D22228"/>
<stop offset="0.44" stop-color="#D42A30"/>
<stop offset="0.55" stop-color="#D7373C"/>
<stop offset="0.64" stop-color="#DA494E"/>
<stop offset="0.72" stop-color="#DF6266"/>
<stop offset="0.8" stop-color="#E57F83"/>
<stop offset="0.87" stop-color="#ECA3A5"/>
<stop offset="0.93" stop-color="#F5CCCD"/>
<stop offset="0.99" stop-color="#FEF9F9"/>
<stop offset="1" stop-color="white"/>
</linearGradient>
<clipPath id="clip0">
<rect width="146" height="50.1748" fill="white"/>
</clipPath>
</defs>
</svg>
