<svg width="54" height="53" viewBox="0 0 54 53" fill="none" xmlns="http://www.w3.org/2000/svg">
<path d="M47.25 14.0781C47.25 13.8585 47.1611 13.6479 47.0029 13.4926C46.8446 13.3372 46.63 13.25 46.4062 13.25H7.59375C7.36997 13.25 7.15536 13.3372 6.99713 13.4926C6.8389 13.6479 6.75 13.8585 6.75 14.0781V38.9219C6.75 39.1415 6.8389 39.3521 6.99713 39.5074C7.15536 39.6628 7.36997 39.75 7.59375 39.75H46.4062C46.63 39.75 46.8446 39.6628 47.0029 39.5074C47.1611 39.3521 47.25 39.1415 47.25 38.9219V14.0781ZM45.5625 38.0938H8.4375V14.9062H45.5625V38.0938Z" fill="#0BD5FE"/>
<path d="M52.3125 2.48438C52.3125 2.26474 52.2236 2.05411 52.0654 1.8988C51.9071 1.7435 51.6925 1.65625 51.4688 1.65625H2.53125C2.30747 1.65625 2.09286 1.7435 1.93463 1.8988C1.77639 2.05411 1.6875 2.26474 1.6875 2.48438C1.6875 2.70401 1.77639 2.91464 1.93463 3.06995C2.09286 3.22525 2.30747 3.3125 2.53125 3.3125H51.4688C51.6925 3.3125 51.9071 3.22525 52.0654 3.06995C52.2236 2.91464 52.3125 2.70401 52.3125 2.48438Z" fill="#0BD5FE"/>
<path d="M51.4688 49.6875H2.53125C2.30747 49.6875 2.09286 49.7747 1.93463 49.9301C1.77639 50.0854 1.6875 50.296 1.6875 50.5156C1.6875 50.7353 1.77639 50.9459 1.93463 51.1012C2.09286 51.2565 2.30747 51.3438 2.53125 51.3438H51.4688C51.6925 51.3438 51.9071 51.2565 52.0654 51.1012C52.2236 50.9459 52.3125 50.7353 52.3125 50.5156C52.3125 50.296 52.2236 50.0854 52.0654 49.9301C51.9071 49.7747 51.6925 49.6875 51.4688 49.6875Z" fill="#0BD5FE"/>
<path d="M37.9688 11.5938C38.1925 11.5938 38.4071 11.5065 38.5654 11.3512C38.7236 11.1959 38.8125 10.9853 38.8125 10.7656V5.79688C38.8125 5.57724 38.7236 5.36661 38.5654 5.2113C38.4071 5.056 38.1925 4.96875 37.9688 4.96875H32.9062C32.6825 4.96875 32.4679 5.056 32.3096 5.2113C32.1514 5.36661 32.0625 5.57724 32.0625 5.79688V10.7656C32.0625 10.9853 32.1514 11.1959 32.3096 11.3512C32.4679 11.5065 32.6825 11.5938 32.9062 11.5938H37.9688ZM33.75 6.625H37.125V9.9375H33.75V6.625Z" fill="#0BD5FE"/>
<path d="M47.25 5.79688C47.25 5.57724 47.1611 5.36661 47.0029 5.2113C46.8446 5.056 46.63 4.96875 46.4062 4.96875H41.3438C41.12 4.96875 40.9054 5.056 40.7471 5.2113C40.5889 5.36661 40.5 5.57724 40.5 5.79688V10.7656C40.5 10.9853 40.5889 11.1959 40.7471 11.3512C40.9054 11.5065 41.12 11.5938 41.3438 11.5938H46.4062C46.63 11.5938 46.8446 11.5065 47.0029 11.3512C47.1611 11.1959 47.25 10.9853 47.25 10.7656V5.79688ZM45.5625 9.9375H42.1875V6.625H45.5625V9.9375Z" fill="#0BD5FE"/>
<path d="M29.5312 11.5938C29.755 11.5938 29.9696 11.5065 30.1279 11.3512C30.2861 11.1959 30.375 10.9853 30.375 10.7656V5.79688C30.375 5.57724 30.2861 5.36661 30.1279 5.2113C29.9696 5.056 29.755 4.96875 29.5312 4.96875H24.4688C24.245 4.96875 24.0304 5.056 23.8721 5.2113C23.7139 5.36661 23.625 5.57724 23.625 5.79688V10.7656C23.625 10.9853 23.7139 11.1959 23.8721 11.3512C24.0304 11.5065 24.245 11.5938 24.4688 11.5938H29.5312ZM25.3125 6.625H28.6875V9.9375H25.3125V6.625Z" fill="#0BD5FE"/>
<path d="M21.0938 11.5938C21.3175 11.5938 21.5321 11.5065 21.6904 11.3512C21.8486 11.1959 21.9375 10.9853 21.9375 10.7656V5.79688C21.9375 5.57724 21.8486 5.36661 21.6904 5.2113C21.5321 5.056 21.3175 4.96875 21.0938 4.96875H16.0312C15.8075 4.96875 15.5929 5.056 15.4346 5.2113C15.2764 5.36661 15.1875 5.57724 15.1875 5.79688V10.7656C15.1875 10.9853 15.2764 11.1959 15.4346 11.3512C15.5929 11.5065 15.8075 11.5938 16.0312 11.5938H21.0938ZM16.875 6.625H20.25V9.9375H16.875V6.625Z" fill="#0BD5FE"/>
<path d="M7.59375 11.5938H12.6562C12.88 11.5938 13.0946 11.5065 13.2529 11.3512C13.4111 11.1959 13.5 10.9853 13.5 10.7656V5.79688C13.5 5.57724 13.4111 5.36661 13.2529 5.2113C13.0946 5.056 12.88 4.96875 12.6562 4.96875H7.59375C7.36997 4.96875 7.15536 5.056 6.99713 5.2113C6.8389 5.36661 6.75 5.57724 6.75 5.79688V10.7656C6.75 10.9853 6.8389 11.1959 6.99713 11.3512C7.15536 11.5065 7.36997 11.5938 7.59375 11.5938ZM8.4375 6.625H11.8125V9.9375H8.4375V6.625Z" fill="#0BD5FE"/>
<path d="M2.53125 9.9375C2.30747 9.9375 2.09286 10.0247 1.93463 10.1801C1.77639 10.3354 1.6875 10.546 1.6875 10.7656C1.6875 10.9853 1.77639 11.1959 1.93463 11.3512C2.09286 11.5065 2.30747 11.5938 2.53125 11.5938H4.21875C4.44253 11.5938 4.65714 11.5065 4.81537 11.3512C4.9736 11.1959 5.0625 10.9853 5.0625 10.7656V5.79688C5.0625 5.57724 4.9736 5.36661 4.81537 5.2113C4.65714 5.056 4.44253 4.96875 4.21875 4.96875H2.53125C2.30747 4.96875 2.09286 5.056 1.93463 5.2113C1.77639 5.36661 1.6875 5.57724 1.6875 5.79688C1.6875 6.01651 1.77639 6.22714 1.93463 6.38245C2.09286 6.53775 2.30747 6.625 2.53125 6.625H3.375V9.9375H2.53125Z" fill="#0BD5FE"/>
<path d="M51.4688 6.625C51.6925 6.625 51.9071 6.53775 52.0654 6.38245C52.2236 6.22714 52.3125 6.01651 52.3125 5.79688C52.3125 5.57724 52.2236 5.36661 52.0654 5.2113C51.9071 5.056 51.6925 4.96875 51.4688 4.96875H49.7812C49.5575 4.96875 49.3429 5.056 49.1846 5.2113C49.0264 5.36661 48.9375 5.57724 48.9375 5.79688V10.7656C48.9375 10.9853 49.0264 11.1959 49.1846 11.3512C49.3429 11.5065 49.5575 11.5938 49.7812 11.5938H51.4688C51.6925 11.5938 51.9071 11.5065 52.0654 11.3512C52.2236 11.1959 52.3125 10.9853 52.3125 10.7656C52.3125 10.546 52.2236 10.3354 52.0654 10.1801C51.9071 10.0247 51.6925 9.9375 51.4688 9.9375H50.625V6.625H51.4688Z" fill="#0BD5FE"/>
<path d="M32.9062 41.4062C32.6825 41.4062 32.4679 41.4935 32.3096 41.6488C32.1514 41.8041 32.0625 42.0147 32.0625 42.2344V47.2031C32.0625 47.4228 32.1514 47.6334 32.3096 47.7887C32.4679 47.944 32.6825 48.0312 32.9062 48.0312H37.9688C38.1925 48.0312 38.4071 47.944 38.5654 47.7887C38.7236 47.6334 38.8125 47.4228 38.8125 47.2031V42.2344C38.8125 42.0147 38.7236 41.8041 38.5654 41.6488C38.4071 41.4935 38.1925 41.4062 37.9688 41.4062H32.9062ZM37.125 46.375H33.75V43.0625H37.125V46.375Z" fill="#0BD5FE"/>
<path d="M46.4062 41.4062H41.3438C41.12 41.4062 40.9054 41.4935 40.7471 41.6488C40.5889 41.8041 40.5 42.0147 40.5 42.2344V47.2031C40.5 47.4228 40.5889 47.6334 40.7471 47.7887C40.9054 47.944 41.12 48.0312 41.3438 48.0312H46.4062C46.63 48.0312 46.8446 47.944 47.0029 47.7887C47.1611 47.6334 47.25 47.4228 47.25 47.2031V42.2344C47.25 42.0147 47.1611 41.8041 47.0029 41.6488C46.8446 41.4935 46.63 41.4062 46.4062 41.4062ZM45.5625 46.375H42.1875V43.0625H45.5625V46.375Z" fill="#0BD5FE"/>
<path d="M24.4688 41.4062C24.245 41.4062 24.0304 41.4935 23.8721 41.6488C23.7139 41.8041 23.625 42.0147 23.625 42.2344V47.2031C23.625 47.4228 23.7139 47.6334 23.8721 47.7887C24.0304 47.944 24.245 48.0312 24.4688 48.0312H29.5312C29.755 48.0312 29.9696 47.944 30.1279 47.7887C30.2861 47.6334 30.375 47.4228 30.375 47.2031V42.2344C30.375 42.0147 30.2861 41.8041 30.1279 41.6488C29.9696 41.4935 29.755 41.4062 29.5312 41.4062H24.4688ZM28.6875 46.375H25.3125V43.0625H28.6875V46.375Z" fill="#0BD5FE"/>
<path d="M16.0312 41.4062C15.8075 41.4062 15.5929 41.4935 15.4346 41.6488C15.2764 41.8041 15.1875 42.0147 15.1875 42.2344V47.2031C15.1875 47.4228 15.2764 47.6334 15.4346 47.7887C15.5929 47.944 15.8075 48.0312 16.0312 48.0312H21.0938C21.3175 48.0312 21.5321 47.944 21.6904 47.7887C21.8486 47.6334 21.9375 47.4228 21.9375 47.2031V42.2344C21.9375 42.0147 21.8486 41.8041 21.6904 41.6488C21.5321 41.4935 21.3175 41.4062 21.0938 41.4062H16.0312ZM20.25 46.375H16.875V43.0625H20.25V46.375Z" fill="#0BD5FE"/>
<path d="M7.59375 41.4062C7.36997 41.4062 7.15536 41.4935 6.99713 41.6488C6.8389 41.8041 6.75 42.0147 6.75 42.2344V47.2031C6.75 47.4228 6.8389 47.6334 6.99713 47.7887C7.15536 47.944 7.36997 48.0312 7.59375 48.0312H12.6562C12.88 48.0312 13.0946 47.944 13.2529 47.7887C13.4111 47.6334 13.5 47.4228 13.5 47.2031V42.2344C13.5 42.0147 13.4111 41.8041 13.2529 41.6488C13.0946 41.4935 12.88 41.4062 12.6562 41.4062H7.59375ZM11.8125 46.375H8.4375V43.0625H11.8125V46.375Z" fill="#0BD5FE"/>
<path d="M2.53125 46.375C2.30747 46.375 2.09286 46.4622 1.93463 46.6176C1.77639 46.7729 1.6875 46.9835 1.6875 47.2031C1.6875 47.4228 1.77639 47.6334 1.93463 47.7887C2.09286 47.944 2.30747 48.0312 2.53125 48.0312H4.21875C4.44253 48.0312 4.65714 47.944 4.81537 47.7887C4.9736 47.6334 5.0625 47.4228 5.0625 47.2031V42.2344C5.0625 42.0147 4.9736 41.8041 4.81537 41.6488C4.65714 41.4935 4.44253 41.4062 4.21875 41.4062H2.53125C2.30747 41.4062 2.09286 41.4935 1.93463 41.6488C1.77639 41.8041 1.6875 42.0147 1.6875 42.2344C1.6875 42.454 1.77639 42.6646 1.93463 42.8199C2.09286 42.9753 2.30747 43.0625 2.53125 43.0625H3.375V46.375H2.53125Z" fill="#0BD5FE"/>
<path d="M51.4688 43.0625C51.6925 43.0625 51.9071 42.9753 52.0654 42.8199C52.2236 42.6646 52.3125 42.454 52.3125 42.2344C52.3125 42.0147 52.2236 41.8041 52.0654 41.6488C51.9071 41.4935 51.6925 41.4062 51.4688 41.4062H49.7812C49.5575 41.4062 49.3429 41.4935 49.1846 41.6488C49.0264 41.8041 48.9375 42.0147 48.9375 42.2344V47.2031C48.9375 47.4228 49.0264 47.6334 49.1846 47.7887C49.3429 47.944 49.5575 48.0312 49.7812 48.0312H51.4688C51.6925 48.0312 51.9071 47.944 52.0654 47.7887C52.2236 47.6334 52.3125 47.4228 52.3125 47.2031C52.3125 46.9835 52.2236 46.7729 52.0654 46.6176C51.9071 46.4622 51.6925 46.375 51.4688 46.375H50.625V43.0625H51.4688Z" fill="#0BD5FE"/>
<path d="M27 34.7812C28.6688 34.7812 30.3001 34.2956 31.6876 33.3856C33.0752 32.4757 34.1566 31.1823 34.7952 29.6691C35.4338 28.1559 35.6009 26.4908 35.2754 24.8844C34.9498 23.278 34.1462 21.8024 32.9662 20.6443C31.7862 19.4861 30.2828 18.6974 28.6461 18.3779C27.0094 18.0583 25.3129 18.2223 23.7711 18.8491C22.2294 19.4759 20.9116 20.5373 19.9845 21.8992C19.0574 23.261 18.5625 24.8621 18.5625 26.5C18.565 28.6956 19.4548 30.8005 21.0366 32.353C22.6184 33.9055 24.763 34.7788 27 34.7812ZM27 19.875C28.335 19.875 29.6401 20.2636 30.7501 20.9915C31.8601 21.7195 32.7253 22.7542 33.2362 23.9647C33.7471 25.1753 33.8807 26.5074 33.6203 27.7925C33.3598 29.0776 32.717 30.2581 31.773 31.1846C30.829 32.1111 29.6262 32.7421 28.3169 32.9977C27.0075 33.2533 25.6503 33.1221 24.4169 32.6207C23.1835 32.1193 22.1293 31.2701 21.3876 30.1807C20.6459 29.0912 20.25 27.8103 20.25 26.5C20.252 24.7435 20.9638 23.0596 22.2292 21.8176C23.4947 20.5756 25.2104 19.877 27 19.875Z" fill="#0BD5FE"/>
<path d="M24.8689 29.6888C24.9912 29.763 25.1309 29.8053 25.2746 29.8117C25.4183 29.818 25.5612 29.7882 25.6899 29.7251L30.7524 27.2407C30.8925 27.1719 31.0103 27.0662 31.0927 26.9354C31.1751 26.8045 31.2187 26.6538 31.2187 26.5C31.2187 26.3463 31.1751 26.1955 31.0927 26.0647C31.0103 25.9339 30.8925 25.8282 30.7524 25.7594L25.6899 23.275C25.5612 23.2119 25.4183 23.1821 25.2746 23.1884C25.1309 23.1947 24.9913 23.237 24.8689 23.3112C24.7466 23.3854 24.6456 23.4891 24.5756 23.6124C24.5055 23.7357 24.4688 23.8745 24.4688 24.0157V28.9844C24.4688 29.1256 24.5055 29.2644 24.5755 29.3877C24.6456 29.5109 24.7466 29.6146 24.8689 29.6888ZM26.1563 25.3556L28.4883 26.5L26.1563 27.6445V25.3556Z" fill="#0BD5FE"/>
<path d="M2.53125 38.0938C2.30747 38.0938 2.09286 38.181 1.93463 38.3363C1.77639 38.4916 1.6875 38.7022 1.6875 38.9219C1.6875 39.1415 1.77639 39.3521 1.93463 39.5074C2.09286 39.6628 2.30747 39.75 2.53125 39.75H4.21875C4.44253 39.75 4.65714 39.6628 4.81537 39.5074C4.9736 39.3521 5.0625 39.1415 5.0625 38.9219V14.0781C5.0625 13.8585 4.9736 13.6479 4.81537 13.4926C4.65714 13.3372 4.44253 13.25 4.21875 13.25H2.53125C2.30747 13.25 2.09286 13.3372 1.93463 13.4926C1.77639 13.6479 1.6875 13.8585 1.6875 14.0781C1.6875 14.2978 1.77639 14.5084 1.93463 14.6637C2.09286 14.819 2.30747 14.9062 2.53125 14.9062H3.375V38.0938H2.53125Z" fill="#0BD5FE"/>
<path d="M51.4688 14.9062C51.6925 14.9062 51.9071 14.819 52.0654 14.6637C52.2236 14.5084 52.3125 14.2978 52.3125 14.0781C52.3125 13.8585 52.2236 13.6479 52.0654 13.4926C51.9071 13.3372 51.6925 13.25 51.4688 13.25H49.7812C49.5575 13.25 49.3429 13.3372 49.1846 13.4926C49.0264 13.6479 48.9375 13.8585 48.9375 14.0781V38.9219C48.9375 39.1415 49.0264 39.3521 49.1846 39.5074C49.3429 39.6628 49.5575 39.75 49.7812 39.75H51.4688C51.6925 39.75 51.9071 39.6628 52.0654 39.5074C52.2236 39.3521 52.3125 39.1415 52.3125 38.9219C52.3125 38.7022 52.2236 38.4916 52.0654 38.3363C51.9071 38.181 51.6925 38.0938 51.4688 38.0938H50.625V14.9062H51.4688Z" fill="#0BD5FE"/>
</svg>
