<svg width="76" height="73" viewBox="0 0 76 73" fill="none" xmlns="http://www.w3.org/2000/svg">
<path fill-rule="evenodd" clip-rule="evenodd" d="M1.51501 31.1277C2.3349 31.1277 2.99939 30.4894 2.99939 29.7019V7.51041C2.99939 6.0423 4.24313 4.84766 5.77158 4.84766H70.2306C71.759 4.84766 73.0027 6.0423 73.0027 7.51041V11.8735C73.0027 12.6605 73.6672 13.2993 74.4871 13.2993C75.307 13.2993 75.9715 12.6605 75.9715 11.8735V7.51041C75.9715 4.47005 73.3959 1.99609 70.2306 1.99609H5.77158C2.60626 1.99609 0.0306396 4.47005 0.0306396 7.51041V29.7019C0.0306396 30.4894 0.695129 31.1277 1.51501 31.1277Z" fill="#0BD5FE"/>
<path fill-rule="evenodd" clip-rule="evenodd" d="M74.487 22.0807C73.6671 22.0807 73.0026 22.7195 73.0026 23.5065V45.6985C73.0026 47.1666 71.7589 48.3613 70.2305 48.3613H5.77148C4.24304 48.3613 2.9993 47.1666 2.9993 45.6985V41.3354C2.9993 40.5479 2.33481 39.9096 1.51492 39.9096C0.695038 39.9096 0.0305481 40.5479 0.0305481 41.3354V45.6985C0.0305481 48.7389 2.60617 51.2129 5.77148 51.2129H70.2305C73.3958 51.2129 75.9714 48.7389 75.9714 45.6985V23.5065C75.9714 22.7195 75.3069 22.0807 74.487 22.0807Z" fill="#0BD5FE"/>
<path fill-rule="evenodd" clip-rule="evenodd" d="M28.4919 14.0011C28.0327 13.7465 27.4667 13.7465 27.0075 14.0011C26.5483 14.2556 26.2653 14.7262 26.2653 15.2358V37.9726C26.2653 38.4822 26.5483 38.9528 27.0075 39.2073C27.2371 39.3349 27.4934 39.3984 27.7497 39.3984C28.006 39.3984 28.2623 39.3349 28.4919 39.2073L48.9919 27.839C49.4511 27.5844 49.7341 27.1138 49.7341 26.6042C49.7341 26.0952 49.4511 25.6245 48.9919 25.3695L28.4919 14.0011ZM29.2341 35.5036V17.7053L45.2816 26.6042L29.2341 35.5036Z" fill="#0BD5FE"/>
<path fill-rule="evenodd" clip-rule="evenodd" d="M74.487 61.6879H25.9445V60.3445C25.9445 57.4874 23.5254 55.1638 20.5509 55.1638C17.5769 55.1638 15.1573 57.4874 15.1573 60.3445V61.6879H1.51492C0.695038 61.6879 0.0305481 62.3261 0.0305481 63.1137C0.0305481 63.9012 0.695038 64.5395 1.51492 64.5395H15.1573V65.8822C15.1573 68.7394 17.5769 71.063 20.5509 71.063C23.5254 71.063 25.9445 68.7394 25.9445 65.8822V64.5395H74.487C75.3069 64.5395 75.9714 63.9012 75.9714 63.1137C75.9714 62.3261 75.3069 61.6879 74.487 61.6879ZM22.9757 65.8822C22.9757 67.1671 21.888 68.2114 20.5509 68.2114C19.2138 68.2114 18.126 67.1671 18.126 65.8822V60.3445C18.126 59.0602 19.2138 58.0154 20.5509 58.0154C21.888 58.0154 22.9757 59.0602 22.9757 60.3445V65.8822Z" fill="#0BD5FE"/>
<path fill-rule="evenodd" clip-rule="evenodd" d="M1.51395 36.9728C2.34775 36.9728 3.02789 36.3195 3.02789 35.5186C3.02789 34.7177 2.34775 34.0645 1.51395 34.0645C0.680145 34.0645 0 34.7177 0 35.5186C0 36.3195 0.680145 36.9728 1.51395 36.9728Z" fill="#0BD5FE"/>
<path fill-rule="evenodd" clip-rule="evenodd" d="M74.4861 16.2355C73.6523 16.2355 72.9721 16.8888 72.9721 17.6897C72.9721 18.4905 73.6523 19.1438 74.4861 19.1438C75.3199 19.1438 76 18.4905 76 17.6897C76 16.8888 75.3199 16.2355 74.4861 16.2355Z" fill="#0BD5FE"/>
</svg>
