<svg width="35" height="35" viewBox="0 0 35 35" fill="none" xmlns="http://www.w3.org/2000/svg">
<path d="M17.5 0C7.85026 0 0 7.85026 0 17.5C0 27.1497 7.85026 35 17.5 35C27.1497 35 35 27.1497 35 17.5C35 7.85026 27.1497 0 17.5 0ZM17.5 33.4789C8.68989 33.4789 1.52105 26.3101 1.52105 17.5C1.52105 8.68989 8.68989 1.52105 17.5 1.52105C26.3101 1.52105 33.4789 8.68989 33.4789 17.5C33.4789 26.3101 26.3101 33.4789 17.5 33.4789Z" fill="#BDBDBD"/>
<path d="M24.1304 16.9707L15.0039 7.8442C14.7073 7.54759 14.2251 7.54759 13.9285 7.8442C13.6319 8.14081 13.6319 8.62301 13.9285 8.91962L22.515 17.5091L13.927 26.0971C13.6304 26.3937 13.6304 26.8759 13.927 27.1726C14.0761 27.3201 14.2707 27.3947 14.4654 27.3947C14.6602 27.3947 14.8548 27.3216 15.0039 27.1726L24.1304 18.0461C24.427 17.7495 24.427 17.2673 24.1304 16.9707Z" fill="#BDBDBD"/>
</svg>
