<svg width="113" height="114" viewBox="0 0 113 114" fill="none" xmlns="http://www.w3.org/2000/svg">
<path d="M68.9606 35.9238C68.3207 35.9238 67.8019 36.4472 67.8019 37.0928V39.0332C67.8019 39.6788 68.3207 40.2021 68.9606 40.2021C69.6005 40.2021 70.1193 39.6788 70.1193 39.0332V37.0928C70.1193 36.4472 69.6005 35.9238 68.9606 35.9238Z" fill="#0BD5FE"/>
<path d="M47.1238 37.8917C46.4184 36.8795 45.2654 36.2753 44.0392 36.2753C42.813 36.2753 41.66 36.8795 40.9549 37.8917C40.5633 38.4537 40.6975 39.2297 41.2548 39.6248C41.8119 40.0198 42.5811 39.8845 42.9727 39.3223C43.2202 38.9671 43.6089 38.7634 44.0393 38.7634C44.4698 38.7634 44.8489 38.9741 45.106 39.3223C45.697 40.1231 46.6082 39.7776 46.8239 39.6248C47.3812 39.2297 47.5154 38.4537 47.1238 37.8917Z" fill="#0BD5FE"/>
<path d="M63.7479 41.6678C62.0065 40.398 59.3646 39.6697 56.4999 39.6697C53.6353 39.6697 50.9933 40.398 49.2519 41.6679C48.3155 42.3508 47.9396 43.5068 48.2945 44.6129C48.6471 45.7122 49.6165 46.4224 50.7641 46.4224H51.2744C52.0389 48.2168 54.1005 49.5059 56.5184 49.5059C58.9364 49.5059 60.9978 48.2167 61.7625 46.4224H62.2357C63.3833 46.4224 64.3527 45.7122 64.7053 44.6129C65.06 43.5068 64.6843 42.3508 63.7479 41.6678ZM56.5184 47.1681C55.5933 47.1681 54.7463 46.8769 54.1487 46.4224H58.8882C58.2906 46.8771 57.4435 47.1681 56.5184 47.1681ZM62.2357 44.0845H50.7641C50.4046 44.0845 50.4124 43.6919 50.6094 43.5627C51.9906 42.6562 54.1468 42.0076 56.4999 42.0076C58.853 42.0076 61.0505 42.5952 62.3904 43.5627C62.5696 43.6921 62.6511 44.0845 62.2357 44.0845Z" fill="#0BD5FE"/>
<path d="M87.7203 55.3214C84.7903 49.9423 80.6067 46.7868 77.9791 45.214V38.7692C77.9791 34.3328 76.6593 30.0678 74.1624 26.4352C73.7978 25.9048 73.0758 25.7728 72.5499 26.1407C72.024 26.5086 71.8933 27.2369 72.2581 27.7674C74.4848 31.007 75.6617 34.8113 75.6617 38.7692V45.6342C75.6617 49.0269 76.5726 52.3788 78.2959 55.3275C80.577 59.2306 81.7827 63.7014 81.7827 68.257C81.7827 74.7337 79.4013 80.8471 75.0604 85.5743H69.1275C73.1895 82.0089 75.7617 76.758 75.7617 70.9122C75.7617 60.1969 67.1205 51.4792 56.4991 51.4792C49.3987 51.4792 42.8955 55.4009 39.5273 61.714C39.224 62.2824 39.4349 62.9913 39.9983 63.2974C40.5616 63.6033 41.2644 63.3906 41.5678 62.8222C44.5314 57.2677 50.2527 53.8173 56.4991 53.8173C65.8427 53.8173 73.4443 61.4861 73.4443 70.9123C73.4443 80.3385 65.8427 88.0074 56.4991 88.0074C47.1556 88.0074 39.5542 80.3385 39.5542 70.9123C39.5542 69.6089 39.6999 68.3106 39.9874 67.0534C40.1312 66.4244 39.7423 65.7967 39.1188 65.6516C38.4951 65.5062 37.8731 65.8987 37.7293 66.5279C37.4026 67.9571 37.2368 69.4323 37.2368 70.9123C37.2368 76.7582 39.8089 82.009 43.871 85.5745H38.0043C33.6242 80.824 31.2167 74.6943 31.2169 68.257C31.2169 63.7012 32.4227 59.2304 34.7036 55.3275C36.4269 52.379 37.3378 49.0269 37.3378 45.6342V38.7694C37.3381 28.1099 45.9341 19.4379 56.4999 19.4379C61.2122 19.4379 65.7418 21.1794 69.254 24.3418C69.7315 24.7715 70.464 24.7296 70.8901 24.248C71.3162 23.7664 71.2746 23.0273 70.7971 22.5974C66.8597 19.0524 61.7822 17.1 56.4999 17.1C44.6563 17.1 35.0208 26.8208 35.0208 38.7692V45.214C32.3933 46.7868 28.2097 49.9421 25.2799 55.3211C21.4211 62.4049 20.8248 71.1326 23.5069 81.2615C23.8513 82.5616 24.7625 83.5799 26.0071 84.0555C26.4812 84.2366 28.1571 84.5706 29.6931 83.6376C30.5844 83.0963 31.5088 82.4216 32.4214 81.8095C33.1695 83.1488 34.0311 84.4319 35.0018 85.6459C32.3272 86.0767 30.2766 88.4195 30.2766 91.2371C30.2766 94.3596 32.7947 96.9 35.8898 96.9H45.4025C46.9858 96.9 48.4172 96.234 49.4387 95.1664C51.7394 95.7875 54.1105 96.1015 56.5042 96.1015C56.5711 96.1015 56.638 96.1013 56.7048 96.1009C59.0333 96.0837 61.3394 95.7705 63.5712 95.1754C64.5921 96.2377 66.0199 96.9 67.5989 96.9H77.1118C80.2069 96.9 82.7249 94.3596 82.7249 91.2371C82.7249 88.4379 80.7006 86.1078 78.0515 85.6554C79.0143 84.4461 79.8688 83.1672 80.6104 81.8309C81.5132 82.4366 82.4408 83.079 83.307 83.6378C84.7916 84.5952 86.5191 84.2367 86.9931 84.0556C88.2377 83.5799 89.1488 82.5617 89.4932 81.2617C92.175 71.1327 91.5787 62.4052 87.7203 55.3214ZM28.4124 81.6894C27.9375 82.0072 27.36 82.0725 26.8279 81.8692C26.2896 81.6635 25.8951 81.2221 25.7458 80.6582C23.2228 71.1309 23.7493 62.985 27.3107 56.4471C29.5185 52.3938 32.5086 49.7242 34.8335 48.1092C34.5167 50.223 33.7986 52.2732 32.7076 54.1399C30.2164 58.4022 28.8998 63.2837 28.8996 68.2567C28.8996 72.2563 29.7506 76.1462 31.3632 79.7117C30.3837 80.3691 29.3501 81.0619 28.4124 81.6894ZM45.4023 94.5619H35.8896C34.0723 94.5619 32.5938 93.0704 32.5938 91.237C32.5938 89.4036 34.0723 87.912 35.8896 87.912H45.4023C47.2196 87.912 48.6981 89.4036 48.6981 91.237C48.6981 93.0704 47.2194 94.5619 45.4023 94.5619ZM56.6876 93.7628C54.6676 93.7783 52.6627 93.5471 50.7091 93.078C50.9065 92.5004 51.0153 91.8815 51.0153 91.237C51.0153 90.614 50.9136 90.0147 50.7286 89.4537C52.5513 90.0324 54.4898 90.3449 56.4995 90.3449C58.51 90.3449 60.4492 90.0319 62.2727 89.4529C62.0874 90.0143 61.9856 90.6137 61.9856 91.237C61.9856 91.8846 62.0953 92.5066 62.2948 93.0866C60.4646 93.5194 58.5848 93.7488 56.6876 93.7628ZM80.4071 91.237C80.4071 93.0704 78.9286 94.5619 77.1113 94.5619H67.5986C65.7813 94.5619 64.303 93.0704 64.303 91.237C64.303 89.4036 65.7813 87.912 67.5986 87.912H77.1115C78.9286 87.9122 80.4071 89.4038 80.4071 91.237ZM87.254 80.6582C87.1048 81.2221 86.7102 81.6635 86.1719 81.8692C85.6396 82.0725 85.0621 82.007 84.5875 81.6894C83.6582 81.0677 82.6348 80.3817 81.6632 79.7298C83.2596 76.1706 84.1001 72.2778 84.1001 68.257C84.1001 63.2841 82.7833 58.4026 80.2921 54.1402C79.2011 52.2733 78.483 50.223 78.1662 48.1092C80.4911 49.7242 83.4813 52.394 85.6893 56.4474C89.2505 62.9854 89.777 71.131 87.254 80.6582Z" fill="#0BD5FE"/>
<path d="M68.3511 77.4681C67.8191 77.1095 67.0994 77.2541 66.7441 77.7909C65.155 80.191 62.7815 81.9706 60.0609 82.8018C59.4485 82.989 59.1025 83.6416 59.2879 84.2594C59.4394 84.7644 59.9474 85.3045 60.7325 85.0395C63.9359 83.9583 66.7847 81.9387 68.6711 79.0894C69.0266 78.5526 68.8834 77.8268 68.3511 77.4681Z" fill="#0BD5FE"/>
</svg>
