<svg width="35" height="35" viewBox="0 0 35 35" fill="none" xmlns="http://www.w3.org/2000/svg">
<path d="M17.5 0C27.1497 0 35 7.85026 35 17.5C35 27.1497 27.1497 35 17.5 35C7.85026 35 0 27.1497 0 17.5C0 7.85026 7.85026 0 17.5 0ZM17.5 33.4789C26.3101 33.4789 33.4789 26.3101 33.4789 17.5C33.4789 8.68989 26.3101 1.52105 17.5 1.52105C8.68989 1.52105 1.52105 8.68989 1.52105 17.5C1.52105 26.3101 8.68989 33.4789 17.5 33.4789Z" fill="#757575"/>
<path d="M10.8696 16.9707L19.9961 7.8442C20.2927 7.54759 20.7749 7.54759 21.0715 7.8442C21.3681 8.14081 21.3681 8.62301 21.0715 8.91962L12.485 17.5091L21.073 26.0971C21.3696 26.3937 21.3696 26.8759 21.073 27.1726C20.9239 27.3201 20.7293 27.3947 20.5346 27.3947C20.3398 27.3947 20.1452 27.3216 19.9961 27.1726L10.8696 18.0461C10.573 17.7495 10.573 17.2673 10.8696 16.9707Z" fill="#757575"/>
</svg>
