<svg width="81" height="80" viewBox="0 0 81 80" fill="none" xmlns="http://www.w3.org/2000/svg">
<g clip-path="url(#clip0)">
<path d="M37.8 25.3333H43.2C43.9456 25.3333 44.55 24.7363 44.55 24C44.55 23.2636 43.9456 22.6666 43.2 22.6666H37.8C37.0544 22.6666 36.45 23.2636 36.45 24C36.45 24.7363 37.0544 25.3333 37.8 25.3333Z" fill="#0BD5FE"/>
<path d="M43.2 72H37.8C37.0544 72 36.45 72.597 36.45 73.3333C36.45 74.0697 37.0544 74.6667 37.8 74.6667H43.2C43.9456 74.6667 44.55 74.0697 44.55 73.3333C44.55 72.597 43.9456 72 43.2 72Z" fill="#0BD5FE"/>
<path d="M8.10002 69.3333C8.10002 72.2789 10.5177 74.6667 13.5 74.6667C16.4824 74.6667 18.9 72.2789 18.9 69.3333C18.9 66.3878 16.4824 64 13.5 64C10.5177 64 8.10002 66.3878 8.10002 69.3333ZM13.5 66.6667C14.9912 66.6667 16.2 67.8606 16.2 69.3333C16.2 70.8061 14.9912 72 13.5 72C12.0089 72 10.8 70.8061 10.8 69.3333C10.8 67.8606 12.0089 66.6667 13.5 66.6667Z" fill="#0BD5FE"/>
<path d="M1.6038 63.6414C2.59154 64.1673 3.79282 64.1103 4.725 63.4934C4.77179 63.4639 4.81687 63.4318 4.86 63.3974L12.2323 57.164C13.0313 56.6007 13.5054 55.6909 13.5054 54.7214C13.5054 53.7519 13.0313 52.842 12.2323 52.2787L4.86 45.944C4.81714 45.9067 4.77206 45.872 4.725 45.84C3.79286 45.2249 2.59346 45.1669 1.60491 45.6891C0.616367 46.2113 -0.00058329 47.2288 4.13821e-07 48.336V61.0027C0.000797474 62.1071 0.61727 63.1214 1.6038 63.6414ZM2.7 48.336C2.69535 48.212 2.76523 48.097 2.8782 48.0427C2.92784 48.0156 2.98347 48.0009 3.0402 48C3.08695 48.0002 3.13307 48.0107 3.1752 48.0307L10.5111 54.3387C10.5537 54.3763 10.5988 54.411 10.6461 54.4427C10.74 54.5045 10.7964 54.6086 10.7964 54.72C10.7964 54.8315 10.74 54.9355 10.6461 54.9974C10.5988 55.0261 10.5537 55.0582 10.5111 55.0934L3.1779 61.3014C3.07324 61.3479 2.95186 61.3389 2.85537 61.2775C2.75888 61.2162 2.70041 61.1107 2.7 60.9974V48.336Z" fill="#0BD5FE"/>
<path d="M76.95 25.3334H59.4V22.6667C59.4 19.7212 56.9823 17.3334 54 17.3334H27C25.4 17.3317 23.8831 18.037 22.8649 19.256C17.4782 17.6227 11.6309 19.4655 8.19777 23.8786C4.76463 28.2917 4.46788 34.3467 7.45343 39.0666C10.439 43.7866 16.0787 46.1786 21.6 45.0667V74.6667C21.6 77.6122 24.0177 80.0001 27 80.0001H54C56.9823 80.0001 59.4 77.6122 59.4 74.6667V44H76.95C79.1868 44 81 42.2092 81 40V29.3334C81 27.1242 79.1868 25.3334 76.95 25.3334ZM8.09999 32C8.09999 26.109 12.9353 21.3334 18.9 21.3334C24.8647 21.3334 29.7 26.109 29.7 32C29.7 37.8911 24.8647 42.6667 18.9 42.6667C12.9381 42.6601 8.10669 37.8883 8.09999 32ZM32.4 32C32.3946 27.2045 29.7821 22.7812 25.5582 20.416C25.9888 20.1445 26.4891 20.0002 27 20H54C55.4912 20 56.7 21.194 56.7 22.6667V25.3334H48.6C46.3632 25.3334 44.55 27.1242 44.55 29.3334V37.0187L39.2917 47.404C39.1227 47.7278 39.0979 48.1064 39.2231 48.4489C39.3484 48.7915 39.6125 49.067 39.9519 49.2094C39.996 49.2267 40.041 49.2414 40.0869 49.2534C40.1927 49.2879 40.3024 49.3094 40.4136 49.3174C40.4419 49.3174 40.4689 49.3334 40.4973 49.3334C40.5256 49.3334 40.5405 49.3187 40.5634 49.3174C40.7503 49.3143 40.9344 49.272 41.1034 49.1934L51.6186 44H56.7V66.6667H54.563C54.1958 66.298 53.7574 66.006 53.2737 65.8081L52.6365 65.5414C52.6595 65.119 52.6595 64.6958 52.6365 64.2734L53.2683 64.0067C55.3257 63.1631 56.307 60.8369 55.4647 58.8C55.0684 57.8212 54.2863 57.0435 53.298 56.6454C52.3024 56.2171 51.1729 56.2094 50.1714 56.624L49.5396 56.8907C49.252 56.5742 48.9469 56.2738 48.6257 55.9907L48.8808 55.3747C49.3109 54.3971 49.3134 53.2875 48.8876 52.308C48.2589 50.817 46.7841 49.8456 45.1487 49.8456C43.5134 49.8456 42.0385 50.817 41.4099 52.308L41.1399 52.9467C40.71 52.9247 40.2792 52.9247 39.8493 52.9467L39.5793 52.3C39.1818 51.332 38.4061 50.563 37.4274 50.1667C36.4299 49.736 35.2976 49.7264 34.2927 50.14C32.2302 50.9962 31.254 53.336 32.107 55.3787L32.3689 55.9974C32.0498 56.2799 31.7465 56.5795 31.4604 56.8947L30.8164 56.628C28.755 55.8116 26.4105 56.7685 25.5339 58.784C25.1173 59.7654 25.1139 60.8703 25.5244 61.8542C25.9348 62.8381 26.7253 63.62 27.7209 64.0267L28.3581 64.2934C28.3338 64.7157 28.3338 65.1391 28.3581 65.5614L27.729 65.8201C27.2441 66.0139 26.8034 66.3018 26.433 66.6667H24.3V44.212C29.2146 42.0898 32.3932 37.2977 32.4 32ZM41.85 64.9227C41.8451 65.5905 41.3407 66.1517 40.6699 66.2358C39.9991 66.3198 39.3689 65.9008 39.1953 65.2553C39.0217 64.6099 39.3583 63.9372 39.9829 63.6814C40.1467 63.6139 40.3225 63.5794 40.5 63.5801C40.8597 63.58 41.2045 63.7218 41.4579 63.9739C41.7114 64.2259 41.8525 64.5675 41.85 64.9227ZM44.2408 63.3827C43.3834 61.3418 41.0132 60.3739 38.9468 61.2207C36.8804 62.0676 35.9004 64.4085 36.7578 66.4494C36.7915 66.5281 36.8361 66.5974 36.8725 66.6721H31.1283C31.161 66.5195 31.166 66.3624 31.1431 66.208C31.0156 65.3536 31.0156 64.4852 31.1431 63.6307C31.2357 63.0248 30.8982 62.4346 30.325 62.2001L28.755 61.5534C28.423 61.4168 28.1598 61.155 28.024 60.8261C27.8882 60.4972 27.8908 60.1284 28.0314 59.8014C28.1713 59.4732 28.4425 59.217 28.7806 59.0934C29.1019 58.9543 29.4669 58.9514 29.7904 59.0854L31.3578 59.7254C31.9285 59.9577 32.586 59.7782 32.9548 59.2894C33.4849 58.594 34.1116 57.9759 34.8165 57.4534C35.3114 57.0871 35.4911 56.4356 35.2525 55.872L34.6072 54.3454C34.3302 53.6642 34.6504 52.8888 35.3308 52.5934C36.0179 52.3267 36.7955 52.6426 37.0939 53.3094L37.7406 54.856C37.9745 55.4146 38.5596 55.7478 39.1662 55.668C40.0443 55.5481 40.9351 55.5517 41.8122 55.6787C42.4275 55.77 43.0263 55.4341 43.2621 54.8654L43.9074 53.308C44.0422 52.9827 44.304 52.7246 44.6337 52.592C44.967 52.4546 45.3423 52.4557 45.6747 52.5953C46.0071 52.7348 46.2684 53.001 46.3995 53.3334C46.5422 53.6513 46.5422 54.0141 46.3995 54.332L45.7515 55.892C45.5136 56.4642 45.7053 57.1227 46.2146 57.4827C46.9223 57.9958 47.5492 58.6095 48.0748 59.3041C48.4479 59.7848 49.1022 59.9567 49.6679 59.7227L51.2136 59.0854C51.9028 58.8191 52.6813 59.1438 52.9686 59.8174C53.2481 60.4952 52.9221 61.2688 52.2383 61.5507L50.6857 62.1907C50.1202 62.4229 49.7839 63.002 49.8663 63.6014C49.9879 64.4618 49.9852 65.335 49.8582 66.1947C49.8346 66.3499 49.8397 66.508 49.8731 66.6614H44.1207C44.6377 65.6368 44.6819 64.4418 44.2422 63.3827H44.2408ZM54 77.3334H27C25.5088 77.3334 24.3 76.1395 24.3 74.6667V69.3334H56.7V74.6667C56.7 76.1395 55.4912 77.3334 54 77.3334ZM78.3 40C78.3 40.7364 77.6956 41.3334 76.95 41.3334H51.3C51.0906 41.3332 50.884 41.3811 50.6966 41.4734L43.5186 45.0187L47.115 37.9294C47.2061 37.7437 47.2523 37.5397 47.25 37.3334V29.3334C47.25 28.597 47.8544 28 48.6 28H76.95C77.6956 28 78.3 28.597 78.3 29.3334V40Z" fill="#0BD5FE"/>
<path d="M54 30.6666H51.3C50.5544 30.6666 49.95 31.2636 49.95 32C49.95 32.7363 50.5544 33.3333 51.3 33.3333H54C54.7456 33.3333 55.35 32.7363 55.35 32C55.35 31.2636 54.7456 30.6666 54 30.6666Z" fill="#0BD5FE"/>
<path d="M72.9 30.6666H60.75C60.0044 30.6666 59.4 31.2636 59.4 32C59.4 32.7363 60.0044 33.3333 60.75 33.3333H72.9C73.6456 33.3333 74.25 32.7363 74.25 32C74.25 31.2636 73.6456 30.6666 72.9 30.6666Z" fill="#0BD5FE"/>
<path d="M14.85 30.6667C15.5956 30.6667 16.2 30.0697 16.2 29.3333C16.2 28.597 15.5956 28 14.85 28C14.1044 28 13.5 28.597 13.5 29.3333C13.5 30.0697 14.1044 30.6667 14.85 30.6667Z" fill="#0BD5FE"/>
<path d="M22.95 30.6667C23.6956 30.6667 24.3 30.0697 24.3 29.3333C24.3 28.597 23.6956 28 22.95 28C22.2044 28 21.6 28.597 21.6 29.3333C21.6 30.0697 22.2044 30.6667 22.95 30.6667Z" fill="#0BD5FE"/>
<path d="M24.2447 33.5107C23.9343 33.3341 23.5655 33.2866 23.2197 33.3787C22.8738 33.4707 22.5791 33.6947 22.4006 34.0014C21.6797 35.2381 20.3449 36.0003 18.9 36.0003C17.4552 36.0003 16.1203 35.2381 15.3995 34.0014C15.0267 33.363 14.2004 33.1439 13.554 33.5121C12.9076 33.8803 12.6858 34.6963 13.0586 35.3347C14.6591 38.1138 18.0472 39.359 21.0978 38.2894L21.8147 39.3907C22.2201 40.0049 23.0516 40.1805 23.6759 39.7838C24.3002 39.3872 24.4831 38.5671 24.0854 37.9481L23.4225 36.9334C23.9444 36.4717 24.3895 35.9317 24.7415 35.3334C24.9207 35.0267 24.969 34.6622 24.8758 34.3203C24.7826 33.9784 24.5555 33.6871 24.2447 33.5107Z" fill="#0BD5FE"/>
<path d="M63.45 5.33337C62.7044 5.33337 62.1 5.93033 62.1 6.66671V9.33338C62.1 10.0698 62.7044 10.6667 63.45 10.6667C64.1956 10.6667 64.8 10.0698 64.8 9.33338V6.66671C64.8 5.93033 64.1956 5.33337 63.45 5.33337Z" fill="#0BD5FE"/>
<path d="M60.75 10.6666H58.05C57.3044 10.6666 56.7 11.2636 56.7 12C56.7 12.7363 57.3044 13.3333 58.05 13.3333H60.75C61.4956 13.3333 62.1 12.7363 62.1 12C62.1 11.2636 61.4956 10.6666 60.75 10.6666Z" fill="#0BD5FE"/>
<path d="M62.1 17.3334C62.1 18.0698 62.7044 18.6667 63.45 18.6667C64.1956 18.6667 64.8 18.0698 64.8 17.3334V14.6667C64.8 13.9303 64.1956 13.3334 63.45 13.3334C62.7044 13.3334 62.1 13.9303 62.1 14.6667V17.3334Z" fill="#0BD5FE"/>
<path d="M66.15 13.3333H68.85C69.5956 13.3333 70.2 12.7363 70.2 12C70.2 11.2636 69.5956 10.6666 68.85 10.6666H66.15C65.4044 10.6666 64.8 11.2636 64.8 12C64.8 12.7363 65.4044 13.3333 66.15 13.3333Z" fill="#0BD5FE"/>
<path d="M12.15 0C9.60157 0.00427186 7.40197 1.76512 6.87015 4.22667C6.39335 4.08314 5.89841 4.00683 5.4 4C2.41766 4 0 6.38782 0 9.33333C0 12.2789 2.41766 14.6667 5.4 14.6667C5.89841 14.6598 6.39335 14.5835 6.87015 14.44C7.44899 17.1048 9.969 18.9099 12.7135 18.6255C15.4579 18.3411 17.5438 16.0588 17.55 13.3333C17.5444 12.3943 17.2853 11.4738 16.7994 10.6667H33.75V14.6667C33.75 15.403 34.3544 16 35.1 16C35.8456 16 36.45 15.403 36.45 14.6667V10.6667H39.15V13.3333C39.15 14.0697 39.7544 14.6667 40.5 14.6667C41.2456 14.6667 41.85 14.0697 41.85 13.3333V10.6667H44.55V14.6667C44.55 15.403 45.1544 16 45.9 16C46.6456 16 47.25 15.403 47.25 14.6667V10.6667H48.6C49.3456 10.6667 49.95 10.0697 49.95 9.33333C49.95 8.59696 49.3456 8 48.6 8H16.7994C17.2853 7.19287 17.5444 6.27234 17.55 5.33333C17.55 2.38781 15.1323 0 12.15 0ZM12.15 2.66667C13.351 2.65705 14.414 3.43207 14.7585 4.56842C15.1029 5.70476 14.646 6.92923 13.6373 7.573C12.6285 8.21678 11.3105 8.12508 10.4031 7.348C10.1924 6.84708 9.90564 6.38083 9.5526 5.96533C9.48816 5.76055 9.45361 5.54775 9.45 5.33333C9.45 3.86057 10.6588 2.66667 12.15 2.66667ZM2.7 9.33333C2.7 7.86058 3.90883 6.66667 5.4 6.66667C6.89117 6.66667 8.1 7.86058 8.1 9.33333C8.1 10.8061 6.89117 12 5.4 12C4.68392 12 3.99716 11.7191 3.49081 11.219C2.98446 10.7189 2.7 10.0406 2.7 9.33333ZM12.15 16C10.6588 16 9.45 14.8061 9.45 13.3333C9.45361 13.1189 9.48816 12.9061 9.5526 12.7013C9.90564 12.2858 10.1924 11.8196 10.4031 11.3187C11.3105 10.5416 12.6285 10.4499 13.6373 11.0937C14.646 11.7374 15.1029 12.9619 14.7585 14.0983C14.414 15.2346 13.351 16.0096 12.15 16Z" fill="#0BD5FE"/>
</g>
<defs>
<clipPath id="clip0">
<rect width="81" height="80" fill="white"/>
</clipPath>
</defs>
</svg>
