<svg width="13" height="13" viewBox="0 0 13 13" fill="none" xmlns="http://www.w3.org/2000/svg">
<path d="M2.64898 8.64152C3.9312 10.1743 5.47471 11.3811 7.23642 12.235C7.90716 12.5528 8.80418 12.93 9.80356 12.9946C9.86551 12.9973 9.92478 13 9.98673 13C10.6575 13 11.1962 12.7683 11.6353 12.2915C11.638 12.2889 11.6434 12.2835 11.6461 12.2781C11.8023 12.0895 11.9801 11.9198 12.166 11.7393C12.2926 11.6181 12.4219 11.4915 12.5458 11.3622C13.1196 10.7642 13.1196 10.0046 12.5404 9.4254L10.9215 7.80646C10.6467 7.52093 10.3181 7.37008 9.97326 7.37008C9.62847 7.37008 9.29714 7.52093 9.01429 7.80377L8.04993 8.76813C7.96104 8.71695 7.86945 8.67116 7.78325 8.62806C7.6755 8.57418 7.57583 8.523 7.48694 8.46643C6.60878 7.90883 5.81143 7.18152 5.0491 6.24679C4.6639 5.75922 4.4053 5.34977 4.22482 4.93224C4.47803 4.70327 4.71508 4.46353 4.94405 4.22918C5.02486 4.14567 5.10837 4.06216 5.19187 3.97866C5.4828 3.68773 5.63903 3.35102 5.63903 3.00891C5.63903 2.6668 5.48549 2.33009 5.19187 2.03916L4.38914 1.23643C4.29486 1.14215 4.20596 1.05056 4.11437 0.956278C3.93659 0.773104 3.75072 0.584542 3.56755 0.414836C3.29009 0.142768 2.96415 0 2.61935 0C2.27724 0 1.94861 0.142768 1.66038 0.41753L0.652916 1.42499C0.286567 1.79134 0.0791488 2.23581 0.036049 2.75031C-0.0151322 3.39411 0.103393 4.07833 0.410479 4.9053C0.881884 6.18483 1.59303 7.37277 2.64898 8.64152ZM0.693322 2.80688C0.725647 2.44861 0.863028 2.14961 1.12163 1.89101L2.1237 0.888935C2.27994 0.738085 2.45234 0.659967 2.61935 0.659967C2.78367 0.659967 2.95068 0.738085 3.10422 0.894322C3.2847 1.06133 3.45441 1.23643 3.63758 1.4223C3.72917 1.51658 3.82345 1.61086 3.91773 1.70783L4.72047 2.51057C4.88748 2.67758 4.97368 2.84729 4.97368 3.0143C4.97368 3.18131 4.88748 3.35102 4.72047 3.51803C4.63696 3.60153 4.55345 3.68773 4.46995 3.77124C4.21943 4.02445 3.98508 4.26419 3.72648 4.49316C3.72109 4.49855 3.71839 4.50124 3.71301 4.50663C3.48943 4.73021 3.52445 4.94302 3.57832 5.10464C3.58101 5.11272 3.58371 5.11811 3.5864 5.12619C3.79382 5.62453 4.08205 6.09863 4.5319 6.66432C5.34003 7.661 6.19125 8.43411 7.12867 9.02942C7.2445 9.10485 7.36841 9.16411 7.48425 9.22337C7.592 9.27725 7.69166 9.32843 7.78056 9.385C7.79133 9.39038 7.79941 9.39577 7.81019 9.40116C7.89908 9.44695 7.98528 9.4685 8.07148 9.4685C8.28698 9.4685 8.42706 9.33112 8.47285 9.28533L9.48031 8.27787C9.63655 8.12163 9.80625 8.03813 9.97326 8.03813C10.178 8.03813 10.345 8.16473 10.4501 8.27787L12.0744 9.8995C12.3976 10.2228 12.3949 10.5729 12.0663 10.915C11.9532 11.0363 11.8346 11.1521 11.708 11.2733C11.5195 11.4565 11.3228 11.645 11.145 11.8579C10.8353 12.1919 10.4662 12.3481 9.98943 12.3481C9.94363 12.3481 9.89515 12.3454 9.84935 12.3427C8.96581 12.2862 8.14421 11.9414 7.52735 11.6477C5.85184 10.8369 4.38106 9.6867 3.16079 8.22669C2.15602 7.0172 1.47989 5.89121 1.03273 4.68442C0.755278 3.94364 0.650222 3.34832 0.693322 2.80688Z" fill="#0BD5FE"/>
</svg>
