<svg width="84" height="82" viewBox="0 0 84 82" fill="none" xmlns="http://www.w3.org/2000/svg">
<path fill-rule="evenodd" clip-rule="evenodd" d="M82.3594 16.3359H74.9759C74.0704 16.3359 73.3353 17.0529 73.3353 17.9375C73.3353 18.8221 74.0704 19.5391 74.9759 19.5391H80.7188V62.4935H22.1491C21.2429 62.4935 20.5085 63.211 20.5085 64.095C20.5085 64.9796 21.2429 65.6966 22.1491 65.6966H82.3594C83.2656 65.6966 84 64.9796 84 64.095V17.9375C84 17.0529 83.2656 16.3359 82.3594 16.3359Z" fill="#0BD5FE"/>
<path fill-rule="evenodd" clip-rule="evenodd" d="M9.02408 62.4935H3.28125V19.5391H61.8509C62.7571 19.5391 63.4915 18.8221 63.4915 17.9375C63.4915 17.0529 62.7571 16.3359 61.8509 16.3359H1.64062C0.734436 16.3359 0 17.0529 0 17.9375V64.095C0 64.9796 0.734436 65.6966 1.64062 65.6966H9.02408C9.92963 65.6966 10.6647 64.9796 10.6647 64.095C10.6647 63.211 9.92963 62.4935 9.02408 62.4935Z" fill="#0BD5FE"/>
<path fill-rule="evenodd" clip-rule="evenodd" d="M24.0159 41.0162C24.0159 50.6963 32.0838 58.5721 42 58.5721C51.9162 58.5721 59.9841 50.6963 59.9841 41.0162C59.9841 31.3361 51.9162 23.4603 42 23.4603C32.0838 23.4603 24.0159 31.3361 24.0159 41.0162ZM56.7028 41.0162C56.7028 48.9302 50.107 55.369 42 55.369C33.893 55.369 27.2972 48.9302 27.2972 41.0162C27.2972 33.1022 33.893 26.6635 42 26.6635C50.107 26.6635 56.7028 33.1022 56.7028 41.0162Z" fill="#0BD5FE"/>
<path fill-rule="evenodd" clip-rule="evenodd" d="M36.252 31.8248C35.7438 32.1107 35.4317 32.6393 35.4317 33.2111V48.8213C35.4317 49.3931 35.7438 49.9224 36.252 50.2083C36.5058 50.3516 36.7885 50.4229 37.0724 50.4229C37.3556 50.4229 37.6382 50.3516 37.8927 50.2083L51.7406 42.4032C52.2481 42.1173 52.5609 41.5887 52.5609 41.0162C52.5609 40.4444 52.2481 39.9158 51.7406 39.6292L37.8927 31.8248C37.3845 31.5382 36.7596 31.5382 36.252 31.8248ZM38.713 35.9851L47.639 41.0162L38.713 46.0474V35.9851Z" fill="#0BD5FE"/>
<path fill-rule="evenodd" clip-rule="evenodd" d="M13.6858 44.6635L9.94949 41.0162L13.6858 37.3689C14.326 36.7439 14.326 35.7298 13.6858 35.1042C13.0449 34.4786 12.006 34.4786 11.3652 35.1042L6.46893 39.8839C5.82806 40.5089 5.82806 41.523 6.46893 42.1486L11.3652 46.9283C11.6856 47.2411 12.1054 47.3975 12.5251 47.3975C12.9456 47.3975 13.3653 47.2411 13.6851 46.9283C14.326 46.3033 14.326 45.2892 13.6858 44.6635Z" fill="#0BD5FE"/>
<path fill-rule="evenodd" clip-rule="evenodd" d="M70.3142 37.369L74.0505 41.0163L70.3142 44.6636C69.6734 45.2886 69.6734 46.3027 70.3142 46.9283C70.6347 47.2411 71.0544 47.3975 71.4742 47.3975C71.894 47.3975 72.3138 47.2411 72.6342 46.9283L77.5304 42.1486C78.1713 41.523 78.1713 40.5089 77.5304 39.8833L72.6342 35.1036C71.9933 34.4786 70.9551 34.4786 70.3142 35.1036C69.6734 35.7299 69.6734 36.744 70.3142 37.369Z" fill="#0BD5FE"/>
<path fill-rule="evenodd" clip-rule="evenodd" d="M15.5866 62.4934C14.6823 62.4934 13.946 63.2129 13.946 64.095C13.946 64.9771 14.6823 65.6965 15.5866 65.6965C16.4902 65.6965 17.2272 64.9771 17.2272 64.095C17.2272 63.2129 16.4902 62.4934 15.5866 62.4934Z" fill="#0BD5FE"/>
<path fill-rule="evenodd" clip-rule="evenodd" d="M68.4134 19.5391C69.317 19.5391 70.054 18.8196 70.054 17.9375C70.054 17.0554 69.317 16.3359 68.4134 16.3359C67.5098 16.3359 66.7728 17.0554 66.7728 17.9375C66.7728 18.8196 67.5098 19.5391 68.4134 19.5391Z" fill="#0BD5FE"/>
</svg>
