<svg width="76" height="76" viewBox="0 0 76 76" fill="none" xmlns="http://www.w3.org/2000/svg">
<path fill-rule="evenodd" clip-rule="evenodd" d="M70.0016 30.6784H19.3589L68.0018 16.5873C68.3798 16.4777 68.6987 16.222 68.8889 15.8776C69.0791 15.5326 69.1243 15.1267 69.0147 14.7487L66.4693 5.96127C65.4522 2.45154 62.1843 0 58.5221 0C57.7503 0 56.9814 0.109589 56.2358 0.325287L10.5652 13.5554C8.45282 14.1671 6.70231 15.5714 5.63483 17.5087C4.56794 19.4459 4.31745 21.6765 4.92917 23.7883L7.41608 32.3733V67.7391C7.41608 72.2943 11.1218 76 15.6764 76H33.5133C34.3331 76 34.9976 75.3355 34.9976 74.5156C34.9976 73.6957 34.3331 73.0312 33.5133 73.0312H15.677C12.7587 73.0312 10.3848 70.6574 10.3848 67.7391V47.5388H17.9894H17.9928H17.9957H29.6202H29.6237H29.6272H41.2517H41.2552H41.2587H52.8832H52.8867H52.8896H68.5172V67.7391C68.5172 70.6574 66.1434 73.0312 63.2251 73.0312H45.3882C44.5689 73.0312 43.9039 73.6957 43.9039 74.5156C43.9039 75.3355 44.5689 76 45.3882 76H63.2251C67.7803 76 71.486 72.2943 71.486 67.7391V32.1628C71.486 31.3429 70.8215 30.6784 70.0016 30.6784ZM43.8273 44.5701L50.1342 33.6472H58.3371L52.0308 44.5701H43.8273ZM32.1959 44.5701L38.5027 33.6472H46.7056L40.3994 44.5701H32.1959ZM20.565 44.5701L26.8713 33.6472H35.0747L28.7679 44.5701H20.565ZM26.0838 25.3538L15.5227 15.2102L23.4357 12.9181C23.4914 12.9993 23.5563 13.0758 23.6306 13.1472L34.1917 23.2908L26.2787 25.5829C26.223 25.5017 26.1575 25.4246 26.0838 25.3538ZM45.9745 6.67447L56.5356 16.8181L48.6226 19.1102C48.5669 19.029 48.502 18.9519 48.4277 18.8811L37.8666 8.73752L45.7796 6.44543C45.8353 6.52661 45.9002 6.60315 45.9745 6.67447ZM34.8022 9.9111L45.3633 20.0541L37.4503 22.3468C37.3947 22.2656 37.3297 22.1885 37.2555 22.1178L26.6944 11.9742L34.6074 9.68207C34.6636 9.76266 34.7286 9.83978 34.8022 9.9111ZM57.062 3.17691C57.5387 3.03891 58.0298 2.96875 58.5221 2.96875C60.871 2.96875 62.9659 4.53894 63.6176 6.78754L65.7503 14.1485L59.7948 15.8735C59.7386 15.7924 59.6736 15.7158 59.5994 15.6445L49.0389 5.50146L57.062 3.17691ZM8.23539 18.9409C8.91959 17.6983 10.0404 16.7984 11.3914 16.407L12.2635 16.1542C12.3197 16.2354 12.3847 16.3125 12.4583 16.3832L23.0194 26.5268L9.91343 30.3236L7.7808 22.9626C7.38941 21.6122 7.55118 20.184 8.23539 18.9409ZM10.3848 33.6472H23.4433L17.137 44.5701H10.3848V33.6472ZM55.4588 44.5701L61.7651 33.6472H68.5172V44.5701H55.4588Z" fill="#0BD5FE"/>
<path fill-rule="evenodd" clip-rule="evenodd" d="M49.715 60.134C49.715 59.6034 49.432 59.1135 48.9728 58.8485L35.9317 51.3193C35.4725 51.0544 34.9066 51.0544 34.4474 51.3193C33.9881 51.5843 33.7052 52.0743 33.7052 52.6048V67.6631C33.7052 68.1931 33.9881 68.683 34.4474 68.948C34.677 69.0808 34.9333 69.1475 35.1895 69.1475C35.4458 69.1475 35.7021 69.0808 35.9317 68.948L48.9728 61.4195C49.432 61.1545 49.715 60.6645 49.715 60.134ZM36.6739 65.0921V55.1758L45.2618 60.134L36.6739 65.0921Z" fill="#0BD5FE"/>
<path fill-rule="evenodd" clip-rule="evenodd" d="M39.4508 73.0312C38.6332 73.0312 37.9664 73.6981 37.9664 74.5156C37.9664 75.3332 38.6332 76 39.4508 76C40.2689 76 40.9352 75.3332 40.9352 74.5156C40.9352 73.6981 40.2689 73.0312 39.4508 73.0312Z" fill="#0BD5FE"/>
</svg>
