<svg width="54" height="54" viewBox="0 0 54 54" fill="none" xmlns="http://www.w3.org/2000/svg">
<g clip-path="url(#clip0)">
<path d="M38.7 0H15.3C12.8159 0.00295313 10.8029 2.01593 10.8 4.50004V49.5001C10.8029 51.9842 12.8159 53.9972 15.3 54.0001H38.7001C41.1842 53.9972 43.1971 51.9842 43.2001 49.5001V4.50004C43.197 2.01593 41.1841 0.00295313 38.7 0ZM41.4 49.5C41.3984 50.9905 40.1904 52.1984 38.7 52.2H15.3C13.8095 52.1984 12.6016 50.9905 12.6 49.5V8.99996H41.4001V49.5H41.4ZM41.4 7.20004H12.6V4.50004C12.6016 3.00955 13.8095 1.80162 15.3 1.80004H38.7001C40.1905 1.80162 41.3985 3.00955 41.4001 4.50004V7.20004H41.4Z" fill="#0BD5FE"/>
<path d="M23.4 23.9274L21.6 25.7273V23.3999C21.6 22.9029 21.1971 22.5 20.7 22.5C20.203 22.5 19.8001 22.9029 19.8001 23.3999V34.1999C19.8002 34.5822 20.0415 34.9227 20.4021 35.0494C20.4979 35.0827 20.5986 35.0998 20.7 35.0999C20.9735 35.0998 21.2322 34.9755 21.4032 34.762L24.7328 30.6H29.2674L32.597 34.762C32.768 34.9756 33.0266 35.0998 33.3002 35.0999C33.4016 35.0998 33.5023 35.0827 33.5981 35.0494C33.9587 34.9227 34.2001 34.5822 34.2002 34.1999V23.3999C34.2002 22.9029 33.7974 22.5 33.3003 22.5C32.8032 22.5 32.4003 22.9029 32.4003 23.3999V25.7273L30.6003 23.9273V21.6C30.6004 21.4781 30.5756 21.3574 30.5274 21.2454L27.8274 14.9455C27.6857 14.6146 27.3603 14.4001 27.0003 14.4001C26.6404 14.4001 26.3151 14.6146 26.1732 14.9455L23.4732 21.2454C23.425 21.3574 23.4001 21.4781 23.4003 21.6V23.9274H23.4ZM23.4 29.3841L21.6 31.6345V28.2727L23.4 26.4727V29.3841ZM30.6 26.4727L32.4 28.2727V31.6345L30.6 29.3841V26.4727ZM25.2 21.7846L27 17.5847L28.8 21.7846V28.8H25.2001V21.7846H25.2Z" fill="#0BD5FE"/>
<path d="M15.3 16.2C16.7905 16.2016 17.9984 17.4095 18 18.9C18 19.3971 18.4029 19.8 18.9 19.8C19.397 19.8 19.7999 19.3971 19.7999 18.9C19.8015 17.4095 21.0094 16.2016 22.4999 16.2C22.997 16.2 23.3999 15.797 23.3999 15.3C23.3999 14.8031 22.997 14.4001 22.4999 14.4001C21.0094 14.3985 19.8015 13.1906 19.7999 11.7001C19.7999 11.203 19.397 10.8001 18.9 10.8001C18.4029 10.8001 18 11.203 18 11.7001C17.9984 13.1906 16.7905 14.3985 15.3 14.4001C14.8029 14.4001 14.4 14.803 14.4 15.3C14.4 15.7971 14.8029 16.2 15.3 16.2ZM18.8942 14.3792C19.1532 14.7285 19.4612 15.0386 19.8087 15.3C19.4612 15.5615 19.1532 15.8716 18.8942 16.2209C18.6329 15.871 18.3223 15.5609 17.972 15.3C18.3223 15.0392 18.6329 14.729 18.8942 14.3792Z" fill="#0BD5FE"/>
<path d="M31.5 40.5C31.0029 40.5 30.6 40.903 30.6 41.4C30.6 41.897 31.0029 42.2999 31.5 42.2999C32.9905 42.3015 34.1984 43.5094 34.2 44.9999C34.2 45.497 34.6029 45.8999 35.1 45.8999C35.597 45.8999 35.9999 45.497 35.9999 44.9999C36.0015 43.5094 37.2094 42.3015 38.6999 42.2999C39.197 42.2999 39.5999 41.8969 39.5999 41.4C39.5999 40.9029 39.197 40.5 38.6999 40.5C37.2094 40.4984 36.0015 39.2905 35.9999 37.8C35.9999 37.3029 35.597 36.9 35.1 36.9C34.6029 36.9 34.2 37.3029 34.2 37.8C34.1983 39.2905 32.9905 40.4984 31.5 40.5ZM35.0942 40.4792C35.3532 40.8285 35.6612 41.1386 36.0087 41.4001C35.6612 41.6615 35.3532 41.9716 35.0942 42.3209C34.8329 41.9711 34.5223 41.6609 34.1721 41.4001C34.5223 41.1391 34.8329 40.8291 35.0942 40.4792Z" fill="#0BD5FE"/>
<path d="M20.7 37.8C20.4614 37.7999 20.2324 37.8947 20.0635 38.0636C19.8948 38.2323 19.8 38.4613 19.8 38.7001V41.4001C19.8 41.8971 20.2028 42.3 20.6999 42.3C21.197 42.3 21.5999 41.897 21.5999 41.4001V38.7001C21.6 38.4614 21.5052 38.2324 21.3363 38.0636C21.1677 37.8947 20.9387 37.7999 20.7 37.8Z" fill="#0BD5FE"/>
<path d="M24.3 36.9001C24.797 36.9001 25.1999 36.4972 25.1999 36.0001V35.1C25.1999 34.603 24.797 34.2001 24.3 34.2001C23.8029 34.2001 23.4 34.6031 23.4 35.1V36C23.4 36.4971 23.8029 36.9001 24.3 36.9001Z" fill="#0BD5FE"/>
<path d="M25.1999 41.3999V39.5999C25.1999 39.1028 24.797 38.7 24.3 38.7C23.8029 38.7 23.4 39.1028 23.4 39.5999V41.3999C23.4 41.897 23.803 42.2999 24.3 42.2999C24.7969 42.2999 25.1999 41.897 25.1999 41.3999Z" fill="#0BD5FE"/>
<path d="M30.5999 35.1C30.5999 34.603 30.197 34.2001 29.7 34.2001C29.2029 34.2001 28.8 34.6031 28.8 35.1V36C28.8 36.4971 29.203 36.9 29.7 36.9C30.1971 36.9 30.5999 36.4971 30.5999 36V35.1Z" fill="#0BD5FE"/>
<path d="M29.7 3.59998H24.3C23.8029 3.59998 23.4 4.00287 23.4 4.49994C23.4 4.99701 23.803 5.39991 24.3 5.39991H29.7C30.197 5.39991 30.5999 4.99701 30.5999 4.49994C30.5999 4.00287 30.197 3.59998 29.7 3.59998Z" fill="#0BD5FE"/>
<path d="M35.9999 3.59998H35.0999C34.6029 3.59998 34.2 4.00287 34.2 4.49994C34.2 4.99701 34.6029 5.39991 35.0999 5.39991H35.9999C36.497 5.39991 36.8999 4.99701 36.8999 4.49994C36.8999 4.00287 36.497 3.59998 35.9999 3.59998Z" fill="#0BD5FE"/>
<path d="M39.1948 3.75292C39.1489 3.71716 39.0971 3.68964 39.0419 3.6716C38.9881 3.64439 38.9302 3.62625 38.8705 3.61802C38.5773 3.56476 38.2764 3.65515 38.061 3.86102C37.713 4.21593 37.713 4.78409 38.061 5.13899C38.2336 5.30331 38.4618 5.39654 38.7001 5.40002C38.7572 5.39834 38.8143 5.39232 38.8706 5.38199C38.9303 5.37334 38.9882 5.35509 39.042 5.32788C39.0972 5.30985 39.149 5.28232 39.1949 5.24657C39.2466 5.21587 39.2949 5.1798 39.3391 5.13888C39.3751 5.09364 39.4111 5.04881 39.4472 5.00399C39.481 4.95368 39.5083 4.89915 39.5281 4.84178C39.5541 4.79084 39.5723 4.7361 39.5817 4.67967C39.5926 4.62029 39.5987 4.56018 39.6001 4.49985C39.5966 4.26159 39.5034 4.03346 39.3391 3.86081C39.2949 3.82 39.2466 3.78382 39.1948 3.75292Z" fill="#0BD5FE"/>
<path d="M27 45.0001C25.2603 45.0001 23.8499 46.4104 23.8499 48.1501C23.8499 49.8898 25.2603 51.3001 27 51.3001C28.7397 51.3001 30.15 49.8898 30.15 48.1501C30.1479 46.4112 28.7388 45.0022 27 45.0001ZM27 49.5C26.2544 49.5 25.65 48.8956 25.65 48.15C25.65 47.4044 26.2544 46.8 27 46.8C27.7455 46.8 28.35 47.4044 28.35 48.15C28.3491 48.8952 27.7452 49.4993 27 49.5Z" fill="#0BD5FE"/>
</g>
<defs>
<clipPath id="clip0">
<rect width="54" height="54" fill="white"/>
</clipPath>
</defs>
</svg>
