<svg width="87" height="87" viewBox="0 0 87 87" fill="none" xmlns="http://www.w3.org/2000/svg">
<path fill-rule="evenodd" clip-rule="evenodd" d="M85.3008 11.3848H15.4695C14.531 11.3848 13.7703 12.1454 13.7703 13.084V18.2699H8.58437C7.64582 18.2699 6.88515 19.0306 6.88515 19.9691V25.1551H1.69922C0.760666 25.1551 0 25.9164 0 26.8543V73.9412C0 74.8798 0.760666 75.6405 1.69922 75.6405H29.818C30.7565 75.6405 31.5172 74.8798 31.5172 73.9412C31.5172 73.0033 30.7565 72.242 29.818 72.242H3.39844V28.5535H69.8313V72.242H43.4117C42.4732 72.242 41.7125 73.0027 41.7125 73.9412C41.7125 74.8798 42.4732 75.6405 43.4117 75.6405H71.5305C72.4684 75.6405 73.2297 74.8798 73.2297 73.9412V68.7553H78.4156C79.3542 68.7553 80.1148 67.994 80.1148 67.0561V61.8701H85.3008C86.2393 61.8701 87 61.1088 87 60.1709V13.084C87 12.1454 86.2393 11.3848 85.3008 11.3848ZM76.7164 65.3569H73.2297V26.8543C73.2297 25.9157 72.4684 25.1551 71.5305 25.1551H10.2836V21.6684H76.7164V65.3569ZM83.6016 58.4717H80.1148V19.9691C80.1148 19.0306 79.3542 18.2699 78.4156 18.2699H17.1687V14.7832H83.6016V58.4717Z" fill="#0BD5FE"/>
<path fill-rule="evenodd" clip-rule="evenodd" d="M54.3511 50.3978C54.3511 40.6173 46.3946 32.6615 36.6148 32.6615C26.835 32.6615 18.8786 40.6173 18.8786 50.3978C18.8786 60.1776 26.835 68.134 36.6148 68.134C46.3946 68.134 54.3511 60.1776 54.3511 50.3978ZM22.277 50.3978C22.277 42.4917 28.7088 36.0599 36.6148 36.0599C44.5209 36.0599 50.9527 42.4917 50.9527 50.3978C50.9527 58.3038 44.5209 64.7356 36.6148 64.7356C28.7088 64.7356 22.277 58.3038 22.277 50.3978Z" fill="#0BD5FE"/>
<path fill-rule="evenodd" clip-rule="evenodd" d="M47.2097 50.3978C47.2097 49.7911 46.8858 49.2296 46.3601 48.9262L32.3243 40.8231C31.7986 40.5191 31.1508 40.5191 30.6251 40.8231C30.0994 41.1264 29.7755 41.6873 29.7755 42.2946V58.5016C29.7755 59.1083 30.0994 59.6692 30.6251 59.9732C30.8879 60.1252 31.1813 60.2008 31.4747 60.2008C31.7688 60.2008 32.0615 60.1252 32.3243 59.9732L46.3601 51.8693C46.8858 51.566 47.2097 51.0045 47.2097 50.3978ZM33.1739 55.5585V45.2371L42.1121 50.3978L33.1739 55.5585Z" fill="#0BD5FE"/>
<path fill-rule="evenodd" clip-rule="evenodd" d="M36.6148 72.2421C35.6789 72.2421 34.9156 73.0054 34.9156 73.9413C34.9156 74.8772 35.6789 75.6405 36.6148 75.6405C37.5507 75.6405 38.3141 74.8772 38.3141 73.9413C38.3141 73.0054 37.5507 72.2421 36.6148 72.2421Z" fill="#0BD5FE"/>
</svg>
